<?xml version="1.0" encoding="utf-8"?>
<!-- Generator: Adobe Illustrator 22.1.0, SVG Export Plug-In . SVG Version: 6.00 Build 0)  -->
<svg version="1.1" id="Layer_1" xmlns="http://www.w3.org/2000/svg" xmlns:xlink="http://www.w3.org/1999/xlink" x="0px" y="0px"
	 viewBox="0 0 512 512" style="enable-background:new 0 0 512 512;" xml:space="preserve">
<style type="text/css">
	.st0{fill:#C2C2C2;}
	.st1{fill:#DBDBDB;}
	.st2{fill:#80C45C;}
	.st3{fill:#83C65E;}
	.st4{fill:#81C45D;}
	.st5{fill:#88CA62;}
	.st6{fill:#85C760;}
	.st7{fill:#87C861;}
	.st8{fill:#7AC058;}
	.st9{fill:#8ECD66;}
	.st10{fill:#8CCC64;}
	.st11{fill:#90CF67;}
	.st12{fill:#82C55D;}
	.st13{fill:#8BCB63;}
	.st14{fill:#74BC54;}
	.st15{fill:#71BA52;}
	.st16{fill:#8FCE66;}
	.st17{fill:#85C75F;}
	.st18{fill:#6FB951;}
	.st19{fill:#78BF57;}
	.st20{fill:#89CA62;}
	.st21{fill:#77BD56;}
	.st22{fill:#6BB64E;}
	.st23{fill:#7EC25B;}
	.st24{fill:#73BB53;}
	.st25{fill:#317A25;}
	.st26{fill:#7CC159;}
	.st27{fill:#8BCB64;}
	.st28{fill:#6AB54D;}
	.st29{fill:#79BF57;}
	.st30{fill:#76BD56;}
	.st31{fill:#75BC54;}
	.st32{fill:#6DB74F;}
	.st33{fill:#68B44C;}
	.st34{fill:#6CB64E;}
	.st35{fill:#6EB74F;}
	.st36{fill:#6FB850;}
	.st37{fill:#317625;}
	.st38{fill:#81C55D;}
	.st39{fill:#358028;}
	.st40{fill:#76BD55;}
	.st41{fill:#7EC25A;}
	.st42{fill:#327D26;}
	.st43{fill:#77BE56;}
	.st44{fill:#7DC25A;}
	.st45{fill:#3D862E;}
	.st46{fill:#418930;}
	.st47{fill:#3C862D;}
	.st48{fill:#418931;}
	.st49{fill:#468C34;}
	.st50{fill:#458C33;}
	.st51{fill:#4B8E37;}
	.st52{fill:#4D9239;}
	.st53{fill:#498F36;}
	.st54{fill:#51943C;}
	.st55{fill:#53953D;}
	.st56{fill:#60A149;}
	.st57{fill:#60A148;}
	.st58{fill:#5FA345;}
	.st59{fill:#4D9639;}
	.st60{fill:#58A940;}
	.st61{fill:#59AA42;}
	.st62{fill:#2C3032;}
	.st63{fill:#559E3E;}
	.st64{fill:#59A641;}
	.st65{fill:#51A53C;}
	.st66{fill:#449133;}
	.st67{fill:#5BA042;}
	.st68{fill:#3F8E2F;}
	.st69{fill:#418F31;}
	.st70{fill:#489935;}
	.st71{fill:#57A440;}
	.st72{fill:#54A63E;}
	.st73{fill:#52A13D;}
	.st74{fill:#5AA141;}
	.st75{fill:#459534;}
	.st76{fill:#292D2F;}
	.st77{fill:#5FAE45;}
	.st78{fill:#4FA13B;}
	.st79{fill:#4E993A;}
	.st80{fill:#5DAC44;}
	.st81{fill:#5BAB43;}
	.st82{fill:#64B149;}
	.st83{fill:#51973B;}
	.st84{fill:#54A53E;}
	.st85{fill:#61AF47;}
	.st86{fill:#2B2F31;}
	.st87{fill:#50A33B;}
	.st88{fill:#4E9E3A;}
	.st89{fill:#5FAE46;}
	.st90{fill:#4DA239;}
	.st91{fill:#63B048;}
	.st92{fill:#62B048;}
	.st93{fill:#66B24A;}
	.st94{fill:#3C8C2D;}
	.st95{fill:#56A73F;}
	.st96{fill:#4BA038;}
	.st97{fill:#55A73F;}
	.st98{fill:#5CA643;}
	.st99{fill:#479D36;}
	.st100{fill:#449633;}
	.st101{fill:#4A9D37;}
	.st102{fill:#419831;}
	.st103{fill:#66A049;}
	.st104{fill:#3D4346;}
	.st105{fill:#63A348;}
	.st106{fill:#383D40;}
	.st107{fill:#466241;}
	.st108{fill:#3B8E2D;}
	.st109{fill:#363B3D;}
	.st110{fill:#66B34B;}
	.st111{fill:#3F9530;}
	.st112{fill:#3C922E;}
	.st113{fill:#4CA139;}
	.st114{fill:#5EAD45;}
	.st115{fill:#599E40;}
	.st116{fill:#52993C;}
	.st117{fill:#5DA044;}
	.st118{fill:#2E3235;}
	.st119{fill:#429331;}
	.st120{fill:#3E912F;}
	.st121{fill:#409430;}
	.st122{fill:#3B4144;}
	.st123{fill:#2F3437;}
	.st124{fill:#323739;}
	.st125{fill:#34393C;}
	.st126{fill:#353A3D;}
	.st127{fill:#313638;}
	.st128{fill:#C8C8C8;}
	.st129{fill:#C3C3C3;}
	.st130{fill:#BFBFBF;}
	.st131{fill:#BCBCBC;}
	.st132{fill:#BABABA;}
	.st133{fill:#B7B7B7;}
	.st134{fill:#B3B3B3;}
	.st135{fill:#AFAFAF;}
</style>
<g>
	<path class="st0" d="M139.8,451.8c-3.3,3-4.7,7.2-7,10.9c-3.7,6.1-7.2,12.3-10.6,18.6c-1.3,2.3-3.2,3.6-5.3,5
		c-9.9,6.5-19.8,13.1-29.7,19.7c-1,0.7-1.9,1.5-3.6,1.5c0.3-5.8,0.2-11.6,0.9-17.3c0.5-4.3,0.9-8.7,0.8-12.9
		c-0.4-9.9,3-18.2,8.2-26.3c4.6-7.1,8.4-14.7,12.6-22.1c0.7-3.4,3.1-5.9,4.5-8.9c3.2-4.8,5.2-10.4,8.5-15.1
		c2.9-3.7,4.3-8.2,6.8-12.1c0.6-0.9,1.1-2,1.9-2.8c3.2-4.4,5.1-9.6,8-14.2c2-3.6,4.1-7.2,6.3-10.7c2.8-4.6,5.8-9.1,8-14.1
		c1.7-3.1,3.5-6,5.2-9.1c0.8-1.4,1.7-2.7,2.6-4c1.7-1.8,2.1-4.3,3.5-6.4c1.9-3.5,3.9-6.8,5.8-10.3c2.2-3.2,3.7-6.9,6.1-10
		c0.5-0.7,1-1.4,1.4-2.1c1.4-2.8,3.3-5.3,4.3-8.3c1.3-1.9,2.2-4,3.4-5.9c0.9-1.6,2-3.1,2.7-4.8c1-1.7,2-3.4,3.1-5.1
		c1.3-1.5,2.1-3.3,3.1-4.9c0.8-1.5,1.6-2.9,2.5-4.4c1-1.8,1.9-3.8,2.9-5.7c0.6-1.3,1.4-2.4,2.1-3.7c0.7-1.4,1.5-2.8,2.5-4
		c1.7-1.5,1.7-4.6,4.6-4.9c1.8,0.5,3,1.9,4.3,3.1c4.1,3.7,8.4,7.4,12.6,11c3.9,3.4,7.6,6.9,11.6,10.2c0.7,0.6,1.3,1.3,1.5,2.3
		c-0.1,2.2-1.4,3.8-2.4,5.6c-4,6.9-8.1,13.9-12,20.9c-3.9,6.9-8,13.8-11.9,20.7c-1.9,3.4-1.7,3.6,1.7,5.2c13.7,6.3,28.1,9.9,43,11.1
		c5.6,0.5,11.2,0.1,16.8,0.1c12.8-0.8,25.5-2.8,37.8-6.4c13-3.4,24.8-9.5,35.6-17.3c8.6-6.3,16.4-13.5,23.3-21.7
		c2.2-2.6,4.5-5.1,6.7-7.7c8.4-9.4,15.6-19.5,19.8-31.5c0.2-0.4,0.5-0.9,0.7-1.3c3.8-11.8,5.7-24,5.7-36.4c0.1-0.7,0.1-1.5,0.3-2.2
		c0.5-1.5,0.3-3,0.4-4.6c0.1-1.1,0-2.3,1-3.1c0.9-0.5,2-0.6,3-0.6c10.7,0,21.3,0,32,0c0.8,0,1.7,0.1,2.5,0.3c2.3,0.5,3.1,2.1,3,4.3
		c0,1,0,2.1,0,3.1c0.2,5.2-0.8,10.3-1.3,15.5c-0.6,4.4-1.2,8.7-2.1,13c-0.9,3.2-1.4,6.5-2.3,9.7c-1.7,6-3.5,12.1-5.8,17.9
		c-2.7,6.9-5.8,13.6-9.2,20.2c-3.8,6.5-7.5,13.2-12,19.2c-1.1,1.5-2.3,3-3.3,4.5c-5.4,7.2-11.6,13.6-18,19.9
		c-1.7,1.6-3.2,3.4-5.1,4.7c-5.6,5-11.5,9.4-17.6,13.6c-10.1,6.7-20.8,12.4-32.3,16.4c-1.3,0.4-2.5,1.1-3.7,1.6
		c-14.3,4.4-28.7,7.7-43.6,9.4c-8,0.8-16.1,1.6-24.1,1.4c-10.1-0.3-20.2-1-30.2-3.1c-14.9-2.8-29.4-7.2-43-14.1
		c-2.3-1.2-3.5-0.7-4.7,1.5c-3.1,5.6-6.4,11.1-9.6,16.7c-3,5-5.9,10.1-8.8,15.2c-3.4,5.8-6.7,11.5-10,17.3
		c-3.6,6-6.9,12.1-10.5,18.1C143.7,445,142.1,448.6,139.8,451.8z"/>
	<path class="st1" d="M330.7,378.6c0.3-0.7,0.9-1,1.7-1.2c11.6-3.8,22.2-9.4,32.4-16c0.4-0.3,0.9-0.5,1.4-0.7c2,0.9,2.4,2.9,3.5,4.5
		c1.4,2.1,2.5,4.4,3.9,6.6c5.2,9.4,10.8,18.6,16.2,27.9c3.8,6.9,7.9,13.6,11.8,20.5c1.2,3.1,4,5.5,4.5,8.9
		c4.4,8.6,9.6,16.9,14.4,25.3c1.7,3,3.8,5.8,5,8.9c1,2.6,0.9,5.6,1.2,8.5c0.2,3,0.3,6,0.5,8.9c0.7,8.3,1,16.7,1.4,25
		c0,0.6-0.1,1.2-0.1,2.3c-3.2-2-6.2-3.8-9.1-5.7c-8.5-5.6-17-11.4-25.6-16.9c-3.6-2.3-4.7-6.2-6.7-9.5c-4.3-7.1-8.3-14.3-12.5-21.4
		c-0.5-0.9-1-2.1-2.2-2.5c-2.2-3.3-3.9-6.8-6.1-10.1c-2.1-4-4.5-7.9-6.7-11.9c-2.1-3.6-4.2-7.2-6.3-10.7
		c-6.9-12.3-14.1-24.5-21.1-36.7C331.2,381.3,330,380.2,330.7,378.6z"/>
	<path class="st2" d="M56.2,112.3c1.4-2.7,3.2-5.1,5.1-7.5c1.3-0.8,2.6-0.3,4-0.3c127.7,0,255.3,0,383,0c0.8,0,1.7-0.2,2.4,0.3
		c1.7,1.9,3.3,3.9,4.4,6.2c-0.8,1.2-2.1,1.2-3.3,1.1c-53.8-0.3-107.5-0.1-161.3-0.2c-2,0-3.9,0.5-5.9,0.4c-0.8,0-1.6-0.4-2.3-0.6
		c-1.4-0.4-2.9-0.4-4.3-0.4c-14.4,0-28.9,0-43.3,0c-1.9,0-3.7,0.1-5.5,0.9c-1.5,0.5-3.1,0.4-4.6,0.4c-55.2,0-110.4,0-165.6,0
		C58,112.8,57,112.9,56.2,112.3z"/>
	<path class="st3" d="M75.5,86.8c1.5-2,3-4,5-5.6c1.2-0.3,2.4-0.4,3.7-0.4c114.6,0,229.1,0,343.7,0c1.3,0,2.5,0,3.7,0.4
		c2.1,1.8,4,3.9,5.4,6.3c-1.4,1.3-3.1,1-4.7,1c-10,0.1-20-0.1-30.1,0.2c-1.5-0.3-3.1-0.3-4.6-0.3c-26.4,0-52.9,0-79.3,0
		c-26.7,0-53.3,0-80,0c-1.2,0-2.5-0.1-3.7,0.2c-0.4,0.1-0.8,0.1-1.2,0c-1.7-0.4-3.5-0.2-5.3-0.2c-49.1,0-98.2,0-147.3,0
		C78.9,88.3,76.7,89,75.5,86.8z"/>
	<path class="st4" d="M445.6,98c1.7,1.7,3.1,3.5,4.3,5.6c-1.5,1.4-3.3,0.9-5,0.9c-79.8,0-159.6,0-239.3,0c-46.1,0-92.2,0-138.3-0.1
		c-1.6,0-3.9,1-4.7-1.6c1.4-1.9,2.6-4,4.4-5.6c1.7,0.7,3.5,0.4,5.2,0.4c122.7,0,245.3,0,368,0C441.9,97.7,443.8,97.7,445.6,98z"/>
	<path class="st5" d="M99,63.1c2.5-2.6,5.2-4.9,8.2-6.8c0.6-0.3,1.1-0.5,1.8-0.4c1.5,0.3,3.1,0.2,4.7,0.2c95,0,189.9,0,284.9,0
		c1.4,0,2.9,0.1,4.3-0.2c0.6-0.1,1.2,0.1,1.8,0.4c2.8,1.7,5.4,3.6,7.5,6.2c-1.2,2.1-3.2,1.6-5,1.6c-11.5,0.1-23,0.1-34.5,0.1
		c-89.2-0.2-178.4,0-267.6-0.1C103,64.2,100.8,64.7,99,63.1z"/>
	<path class="st6" d="M84.8,76.6c1.3-1.9,3-3.5,4.8-4.8c1.7-0.8,3.6-0.9,5.5-0.9c107.3,0,214.5,0,321.8,0c1.9,0,3.7,0.2,5.5,0.9
		c2.2,1.5,3.9,3.6,5.6,5.6c-1.4,1.5-3.3,0.9-5,0.9c-41.2,0-82.4,0-123.6,0c-1.7,0-3.3-0.1-5,0.2c-0.4,0.1-0.8,0.1-1.2,0
		c-4.2-0.6-8.4-0.3-12.7-0.2c-8.3,0.1-16.7-0.3-25,0.2c-0.4,0.1-0.8,0-1.2,0c-1.7-0.4-3.5-0.2-5.3-0.2c-52.7,0-105.4,0-158.1,0
		c-1.3,0-2.7,0.1-4-0.1C85.9,78.2,84.8,78.2,84.8,76.6z"/>
	<path class="st3" d="M233.6,88.1c0.2,0,0.4,0,0.6,0c1.1-0.6,2.2-0.3,3.3-0.3c26.9,0,53.7,0,80.6,0c26.9,0,53.8,0,80.7,0
		c1.1,0,2.3-0.3,3.4,0.3c1.2-0.8,2.6-0.6,3.9-0.6c10.3,0,20.6,0,30.9,0c1.4,1.6,2.9,3,3.9,4.9c-0.1,1.4-1.3,1.4-2.3,1.6
		c-1.1,0.2-2.3,0.1-3.4,0.1c-119.5,0-239.1,0-358.6,0c-2.1,0-4.5,0.7-5.9-1.6c1.4-1.7,2.9-3.3,4.3-5c1.6,0.3,3.3,0.4,4.9,0.4
		c50,0,100.1,0,150.1,0C231.2,87.8,232.4,87.5,233.6,88.1z"/>
	<path class="st7" d="M422.4,71.8c-1.2,0-2.5,0.1-3.7,0.1c-108.4,0-216.9,0-325.3,0c-1.2,0-2.5-0.1-3.7-0.1c2-2.2,4.1-4.3,6.5-6.1
		c1.2-0.4,2.4-0.4,3.7-0.4c104.1,0,208.3,0,312.4,0c1.2,0,2.5,0,3.7,0.4C418.3,67.5,420.4,69.6,422.4,71.8z"/>
	<path class="st8" d="M466.9,131c2.2,3.5,4.1,7.3,5.6,11.2c-2.4,1.4-5,1-7.6,1c-45.9,0-91.8,0-137.7,0c-3.2,0-6.4,0-9.6,0.1
		c-1.5,0.3-2.6-0.5-3.6-1.4c-2.9-2.8-5.7-5.7-8.6-8.5c-0.9-0.9-1.6-1.8,0.1-2.5c2-0.8,4.1-0.8,6.1-0.8c50,0,100.1,0,150.1,0
		C463.6,130,465.3,129.9,466.9,131z"/>
	<path class="st9" d="M351,24c6.3,2.4,12.4,5.1,18.2,8.7c-0.8,1.2-2,1.4-3.2,1.5c-1,0.1-2.1,0.1-3.1,0.1c-71.2,0-142.3,0-213.5,0
		c-2.2,0-4.7,0.7-6.2-1.7c5.8-3.5,11.9-6.4,18.2-8.8c2.3,0.6,4.7,0.4,7.1,0.4c33.4,0,66.8,0,100.2,0c26.6,0,53.3,0.1,79.9-0.1
		C349.4,24.1,350.2,24,351,24z"/>
	<path class="st10" d="M143.2,32.6c1.2,0.8,2.5,0.8,3.9,0.8c72.6,0,145.2,0,217.8,0c1.5,0,2.9-0.3,4.3-0.6c4.1,2,8.1,4.1,11.7,6.8
		c-0.7,1.2-2,1.4-3.2,1.5c-1.4,0.1-2.9,0-4.3,0c-66.8,0-133.6,0-200.4,0c-12.2,0-24.4,0-36.6,0c-1.8,0-3.8,0.1-5.2-1.5
		C134.9,36.9,138.8,34.4,143.2,32.6z"/>
	<path class="st11" d="M176.9,17.7c9.8-4,20-6.5,30.3-8.6c19-4,38.3-5.6,57.7-4.9c22.9,0.9,45.2,4.8,66.9,12.2
		c0.5,0.2,0.9,0.4,1.4,0.7c0.1,1.6-1,1.9-2.1,2.2c-1.1,0.3-2.3,0.2-3.4,0.2c-48.1,0-96.3,0-144.4,0C181,19.4,178.6,19.7,176.9,17.7z
		"/>
	<path class="st12" d="M70.6,92.4c1.1,0.7,2.4,0.6,3.6,0.6c121.1,0,242.3,0,363.4,0c1.1,0,2.3,0.4,3.2-0.7c1.2,1.5,2.5,3,3.7,4.4
		c-1.5,1.4-3.3,0.9-5,0.9c-66.6,0-133.3,0-199.9,0c-32.4,0-64.9,0-97.3,0c-23.4,0-46.8,0-70.2,0c-1.6,0-3.4,0.4-4.7-1
		C67.9,94.9,69.5,93.8,70.6,92.4z"/>
	<path class="st13" d="M389.7,45.2c2.4,1.4,4.9,2.8,6.8,5c-1.7,1.5-3.7,1-5.7,1c-34.9,0-69.8,0-104.7,0c-21.7,0-43.5,0-65.2,0
		c-1.1,0-2.3,0-3.4-0.1c-11.8,0.2-23.6,0.1-35.4,0.1c-20.5,0-41,0.1-61.4,0c-1.8,0-3.8,0.4-5.3-1c2.5-2.2,5.2-4.1,8.1-5.7
		c1.5-0.2,3.1-0.3,4.6-0.3c84.5,0,168.9,0,253.4,0C384.3,44.1,387,44.3,389.7,45.2z"/>
	<path class="st14" d="M480,161.4c2.1,2.8,2.7,6.2,3.6,9.4c-0.5,1.3-1.7,1.4-2.8,1.5c-1.2,0.1-2.5,0.1-3.7,0.1
		c-42.2,0-84.5,0-126.7,0c-1,0-2.1,0-3.1-0.1c-1.2,0.2-2.2-0.2-3.1-1c-2.2-2.1-4.4-4.2-6.5-6.5c-0.8-0.9-1.7-2-0.2-3.1
		c1.5-0.8,3.2-0.7,4.9-0.7c44.8,0,89.7,0,134.5,0C478,161.1,479,161.1,480,161.4z"/>
	<path class="st15" d="M486.8,182c1.2,3,1.8,6.2,2.4,9.3c-1.7,1.9-3.9,1.6-6.1,1.6c-13.2,0-26.3,0-39.5,0c-23.4,0-46.8,0-70.2,0
		c-1.7,0-3.3,0.1-5-0.2c-4.8-1.4-7.6-5.3-10.8-8.8c-0.8-0.8-0.5-1.7,0.6-2.2c1.7-0.8,3.6-0.8,5.5-0.8c39.4,0,78.9,0,118.3,0
		C483.7,181,485.4,180.8,486.8,182z"/>
	<path class="st16" d="M176.9,17.7c3,0.8,6.1,0.7,9.2,0.7c47.7,0,95.3,0,143,0c1.5,0,3.2,0.6,4.1-1.3c6.1,1.8,12.1,4,17.8,7
		c-1.2,1.3-2.7,1.2-4.3,1.2c-22.7,0-45.3,0-68,0c-37.8,0-75.5,0-113.3,0c-1.5,0-3.2,0.5-4-1.4C166.4,21.4,171.5,19.2,176.9,17.7z"/>
	<path class="st17" d="M254.8,78.1c0.2,0,0.4,0,0.6,0c1-0.5,2-0.3,3-0.3c10.6,0,21.3,0,31.9,0c1,0,2.1-0.3,3,0.3c0.2,0,0.4,0,0.6,0
		c1.1-0.6,2.2-0.3,3.4-0.3c42.2,0,84.4,0,126.6,0c1.8,0,3.5-0.1,5.1,0.9c0.9,0.7,2,1.3,2.6,2.4c-1.2,0.8-2.6,0.7-3.9,0.7
		c-114.4,0-228.8,0-343.2,0c-1.3,0-2.7,0.1-3.9-0.7c1-1.1,2-2.1,2.9-3.2c1.2-0.5,2.3-0.2,3.5-0.1c1.4,0.3,2.9,0.2,4.3,0.2
		c27.3,0,54.6,0,81.9,0c0.4,0,0.8,0,1.2,0c26.2,0,52.4,0,78.6,0C253.6,78.1,254.2,78.1,254.8,78.1z"/>
	<path class="st18" d="M367.3,192c37.9,0,75.9,0,113.8,0c2.7,0,5.4,0.1,8-0.6c0.3,3.6,2.1,6.9,2,10.6c-1.7,1.5-3.7,1-5.7,1
		c-32.7,0-65.5,0-98.2,0c-2.7,0-5.4,0-8.1,0.1c-0.3,0-0.7,0.2-0.9,0C373.7,200.3,369.8,196.8,367.3,192z"/>
	<path class="st19" d="M35.2,152.1c0.5-2,1.3-3.9,2.4-5.6c1.6-1.3,3.5-1,5.4-1c24.3,0.1,48.5,0.1,72.8,0.1
		c35.9-0.1,71.7,0,107.6-0.1c1.9,0,4-0.3,5.8,0.7c1.2,1.2,1.1,2.6,0.4,4c-1,1-2.2,1-3.4,1c-2.3,0.1-4.5,0.2-6.8,0
		c-6.2-0.5-12,0.8-17.8,2.7c-2.4-0.3-4.8-0.1-7.1-0.1c-50.9,0-101.7,0-152.6,0C39.5,153.7,37,154.4,35.2,152.1z"/>
	<path class="st20" d="M217.4,50.1c59.7,0,119.4,0,179.1,0c3,1.7,5.8,3.6,8.1,6.2c-0.4,0-0.8,0-1.2,0c-0.9,0.5-1.8,0.3-2.7,0.3
		c-60.3,0-120.7,0-181,0c-0.7,0-1.5,0-2.2-0.1C216,54.4,216.1,52.3,217.4,50.1z"/>
	<path class="st21" d="M480,161.4c-1,1.1-2.3,0.7-3.5,0.7c-23.7,0-47.4,0-71.1,0c-21.4,0-42.8,0-64.3,0c-1.4,0-2.9-0.2-4.2,0.6
		c-2.5,0-3.2-2.5-5-3.6c-0.9-0.9-1.9-1.8-2.7-2.8c-0.8-1.1-0.9-2,0.7-2.4c2-0.4,3.9-0.3,5.9-0.3c45,0,89.9,0,134.9,0
		c2.2,0,4.5-0.7,6.7,0.4C478.2,156.5,479.9,158.7,480,161.4z"/>
	<path class="st22" d="M18.4,218.7c0.2-2.3,0.4-4.5,0.6-6.8c1.7-1.4,3.7-1,5.7-1c43,0,86,0,129,0c10.3,0,20.5,0,30.8,0
		c1.6,0,3.3-0.2,4.8,0.8c1.3,2.2,1.2,4.4,0.2,6.6c-1.3,0.9-2.7,0.8-4.2,0.8c-53.6,0-107.2,0-160.8,0
		C22.6,219.1,20.5,219.1,18.4,218.7z"/>
	<path class="st23" d="M457.6,115.4c1.1,1.8,2.2,3.7,3.3,5.5c-0.8,1.3-2.2,1.5-3.5,1.6c-1.4,0.1-2.9,0.1-4.3,0.1
		c-51.8,0-103.6,0-155.3,0c-0.5,0-1,0-1.5-0.1c-2.5-0.4-6.8-3.9-7.4-6.1c-0.1-0.5,0.1-1,0.5-1.4c1.4-0.8,3-0.7,4.5-0.7
		c39,0,78.1,0,117.1,0c13.9,0,27.8-0.1,41.6,0C454.3,114.4,456.1,114.2,457.6,115.4z"/>
	<path class="st8" d="M42,137.2c0.9-1.9,1.7-3.7,2.6-5.6c1.3-1,2.9-1,4.5-1c58.7,0,117.3,0,176,0c1.4,0,2.9-0.1,4.2,0.8
		c1.3,2,1.2,4,0.1,6c-1.5,1.1-3.2,0.7-4.8,0.7c-28.7,0-57.4,0-86.1,0c-30.6,0-61.1,0-91.7,0C45.1,138.1,43.3,138.5,42,137.2z"/>
	<path class="st24" d="M25,182c0.6-2.1,1.2-4.2,1.8-6.3c1.4-0.9,2.9-0.9,4.5-0.9c51.3,0,102.6,0,153.9,0c1.4,0,2.9-0.1,4.2,0.8
		c1.3,2.2,1.2,4.4,0.1,6.7c-1.4,1-3,0.8-4.5,0.8c-51.8,0-103.6,0-155.3,0C28.1,183,26.4,183.3,25,182z"/>
	<path class="st25" d="M290.2,479.3c-15.3,2.6-30.6,3-46.1,2.3c-14.3-0.7-28.4-2.6-42.3-5.9c-0.5-0.1-0.9-0.3-1.4-0.5
		c0.2-1.2,1.2-1.9,2-2.7c1.1-1.2,1.4-2.1-0.8-2.3c-0.5,0-1,0-1.5-0.1c-1.7-0.4-2.3-1.6-1.3-2.9c1.5-1.9,2.6-4.2,5.1-5.1
		c6.5,0.9,12.8,2.4,19.3,3.3c12.8,1.8,25.7,2.5,38.7,2.5c1.2,0.1,2.5,0,3.7,0.1c2.7,0.3,5.2,0.4,7.4,2.9c1.7,1.8,4.9,2.4,7.5,3.2
		c0.9,0.3,1.9,0.3,2.5,1.1c1.2,1.7,2.9,2.1,4.9,2.2C289,477.4,290.7,477.2,290.2,479.3z"/>
	<path class="st26" d="M47.5,126.5c0.3-1.9,1.8-3.2,2.6-4.9c1.3-1,2.9-1,4.5-1c56.8,0,113.6,0,170.4,0c1.4,0,2.9-0.1,4.2,0.8
		c1.3,2,1.2,4,0.1,6c-1.4,1-3,0.8-4.5,0.8c-57.6,0-115.1,0-172.7,0C50.6,128.2,48.3,129.1,47.5,126.5z"/>
	<path class="st7" d="M415.9,65.7c-1.1,0.7-2.4,0.6-3.6,0.6c-104.2,0-208.3,0-312.5,0c-1.2,0-2.5,0.1-3.6-0.6
		c0.7-1.1,1.8-1.9,2.9-2.6c1.6,0,3.1,0.1,4.7,0.1c87.8,0,175.6,0,263.4,0c13.7,0,27.3,0,41,0c1.3,0,2.7,0.2,3.9-0.6
		C413.4,63.5,415,64.2,415.9,65.7z"/>
	<path class="st27" d="M389.7,45.2c-87.4,0-174.8,0-262.1-0.1c-1.4,0-2.9,0.6-4.1-0.7c2.1-1.7,4.4-3.2,6.8-4.4
		c2.3,0.7,4.7,0.8,7.1,0.8c79.4,0,158.8,0,238.2,0c2.1,0,4.1,0,6.2-0.6C384.3,41.9,387,43.5,389.7,45.2z"/>
	<path class="st28" d="M440.9,238.6c0.4-5.2,0.8-10.4,1.3-15.6c0.7-1.3-0.5-3.1,1-4.2c1.1-0.5,2.2-0.5,3.3-0.5c14.3,0,28.7,0,43,0
		c1.4,0,2.9-0.1,4.1,1c0.8,6.8,1.4,13.7,1.2,20.5c-0.4,0.1-0.8,0.1-1.1-0.2c-1.1-1.2-2.5-1.3-4-1.3c-14.9,0-29.7,0-44.6,0
		C443.7,238.3,442.3,238.9,440.9,238.6z"/>
	<path class="st29" d="M38.7,144c0.3-1.1,0.7-2.2,1.5-3.1c1.8-2.6,4.4-2.8,7.2-2.8c14.7,0,29.4,0,44.1,0c44.3,0,88.6,0,133,0
		c1.6,0,3.3-0.3,4.8,0.7c1.2,1.8,1.1,3.6,0.1,5.4c-1.8,1.2-3.8,0.8-5.7,0.8c-32.4,0-64.8,0-97.3,0c-27.5,0-54.9,0-82.4,0
		C42.2,145,40.2,145.5,38.7,144z"/>
	<path class="st18" d="M21.6,197.5c0.4-2.1,0.8-4.1,1.3-6.2c1.7-1.4,3.7-1,5.7-1c45.1,0,90.2,0,135.2,0c7,0,14.1,0,21.1,0
		c1.5,0,3.1-0.1,4.5,0.7c1.3,2,1.2,4,0.2,6c-1.7,1.2-3.6,0.8-5.4,0.8c-27,0-53.9,0-80.9,0c-26.1,0-52.2,0-78.4,0
		C23.8,198,22.6,198.1,21.6,197.5z"/>
	<path class="st30" d="M35.2,152.1c1.7,0.6,3.4,0.6,5.2,0.6c52.4,0,104.8,0,157.3,0c1.4,0,2.9-0.2,4.2,0.6c-1.6,2.9-4.2,4.7-7.3,5.8
		c-9.2,0.3-18.4,0.2-27.7,0.2c-42.4,0-84.8,0-127.1,0c-2.4,0-5,0.5-7-1.6C33.5,155.9,34,153.8,35.2,152.1z"/>
	<path class="st24" d="M189.4,175.8c-52.7,0-105.5,0-158.2,0c-1.4,0-2.9-0.1-4.3-0.1c0.5-1.6,1-3.3,1.6-4.9c1.1-1.8,3-1.6,4.7-1.6
		c10.2-0.1,20.5,0,30.7,0c39.5-0.1,79.1,0,118.6,0c2.2,0,4.4-0.1,6.5,0.3c0.4,0.1,0.7,0.2,1.1,0.4c0.6,0.6,0.6,1.3,0.5,2.1
		C190.1,173.2,190.5,174.8,189.4,175.8z"/>
	<path class="st31" d="M29.6,167.1c0.3-1.8,0.9-3.4,1.8-5c1.8-1.4,4-1,6-1c45.3,0,90.6,0,135.9,0c5.1,0,10.2,0,15.2,0
		c1.3,0,2.7-0.1,4,0.4c1.3,2.1,0.5,4.6-2.3,6.8c-1.5,0.5-3.1,0.4-4.6,0.4c-49.9,0-99.7,0-149.6,0C33.7,168.7,31.3,169.3,29.6,167.1z
		"/>
	<path class="st32" d="M377.9,202.5c1.3-0.8,2.8-0.6,4.2-0.6c36.3,0,72.7,0,109,0c0.8,2.6,1.3,5.3,1.2,8.1c-1.4,1.3-3.1,1-4.7,1
		c-33.5,0-66.9,0-100.4,0c-0.5,0.1-1.1,0.2-1.5-0.1C382.6,208.7,379.3,206.5,377.9,202.5z"/>
	<path class="st33" d="M17.2,239.8c0-3.1-0.3-6.3,0.4-9.3c1.3-1.1,2.9-1,4.5-1c54.4,0,108.7,0,163.1,0c1.4,0,2.9-0.1,4.2,0.7
		c1.3,1.8,1.1,3.6,0.2,5.4c-1.8,1.2-3.8,0.8-5.7,0.8c-37.8,0-75.7,0-113.5,0c-14.5,0-29,0-43.5,0C23.2,236.5,19.4,235.8,17.2,239.8z
		"/>
	<path class="st33" d="M17.2,239.8c1.3-4.3,1.3-4.3,6.3-4.3c55.3,0,110.6,0,165.9,0c1.3,1.7,1.2,3.5,0.1,5.2c-1.4,0.9-3,0.8-4.5,0.8
		c-54.3,0-108.6,0-162.9,0c-1.2,0-2.5,0.1-3.7-0.3c-0.4-0.2-0.7-0.4-1-0.7C17.2,240.3,17.2,240.1,17.2,239.8z"/>
	<path class="st34" d="M386,210.6c1.3-0.8,2.8-0.6,4.2-0.6c34,0,68.1,0,102.1,0c0.8,3.1,1.1,6.2,1.2,9.3c-17,0-34,0-50.9,0
		c-0.3-1.5-0.4-3.2-2.6-3.1c-12.6,0-25.1,0-37.7,0c-1.1,2.4,0.1,5.1-0.7,7.6c0,0.6,0,1.2,0,1.8c-1.4,0.4-2-0.7-2.8-1.5
		c-2.1-2-4.2-4.2-6.3-6.3C390.5,215.3,387.4,213.8,386,210.6z"/>
	<path class="st32" d="M189.4,211.9c-56.8,0-113.5,0-170.3,0c0.2-1.7,0.4-3.3,0.6-5c1.3-1,2.9-1,4.5-1c43.3,0,86.6-0.1,129.9,0.1
		c10.2,0,20.3,0,30.5,0c1.6,0,3.3-0.2,4.8,0.7C190.6,208.4,190.7,210.1,189.4,211.9z"/>
	<path class="st35" d="M189.4,206.9c-56.6,0-113.1,0-169.7,0c0.8-1.6,0-3.5,1.1-5c1.7-1.4,3.7-1,5.7-1c39.8,0,79.6,0,119.4,0
		c12.9,0,25.7,0,38.6,0c1.6,0,3.3-0.2,4.9,0.7C190.6,203.4,190.7,205.1,189.4,206.9z"/>
	<path class="st36" d="M189.4,201.9c-56.2,0-112.4,0-168.5,0c-0.2-1.5,0.3-2.9,0.7-4.4c1.2-0.8,2.6-0.6,3.9-0.6
		c21.5,0,43.1,0,64.6,0c33.1,0,66.2,0,99.3,0C190.6,198.6,190.6,200.3,189.4,201.9z"/>
	<path class="st26" d="M295.2,122.3c1.1-1.1,2.6-0.6,3.8-0.6c52.1,0,104.2,0,156.4,0c1.9,0,3.7-0.1,5.5-0.7c1.2,1.9,2.3,3.8,3.5,5.7
		c-1.7,1.5-3.7,1-5.7,1c-48.6,0-97.3,0-145.9,0c-3.8,0-7.7,0-11.5,0.4C298.2,127.3,296,125.5,295.2,122.3z"/>
	<path class="st15" d="M189.4,191.3c-55.5,0-111,0-166.5,0c0.2-1.7,0.5-3.4,1.2-5c0.7-1.2,1.9-1,3-1c29.3,0.1,58.6,0,87.9,0.1
		c23,0,46,0,69,0c1.8,0,3.7-0.3,5.5,0.7C190.6,187.9,190.7,189.6,189.4,191.3z"/>
	<path class="st24" d="M486.8,182c-40.1,0-80.1,0-120.2,0c-3.1,0-6.2-0.2-9.2,0.6c-3.3-0.7-4.8-3.5-6.7-5.8c-0.7-0.9,0.1-1.4,1-1.7
		c1.8-0.4,3.7-0.3,5.6-0.3c32.5,0.1,65-0.1,97.5,0.1c8.5,0,17,0,25.5-0.1c1.6,0,3.3-0.2,4.7,1C485.5,177.9,486.9,179.7,486.8,182z"
		/>
	<path class="st26" d="M47.5,126.5c1.1,1.3,2.5,0.7,3.8,0.7c32.7,0,65.4,0,98.2,0c26.6,0,53.2,0,79.8,0c1.1,1.5,1.1,2.9,0,4.4
		c-61.6,0-123.1,0-184.7,0C45.6,129.9,46.5,128.2,47.5,126.5z"/>
	<path class="st37" d="M203.1,462.6c-0.7,1.9-2.3,3.1-3.6,4.5c-0.4,0.5-0.8,0.9-0.6,1.6c0.3,0.7,1,0.6,1.6,0.7
		c1.4,0.2,3.4-0.8,3.9,0.8c0.6,1.7-1.5,2.7-2.5,3.9c-0.4,0.4-1,0.7-1.5,1.1c-7.6-1.3-14.9-3.8-22.2-6.3c-13.3-4.4-26-10.4-38.4-17
		c0.9-3.9,3.5-7,5.5-10.4c1.5-0.5,2.6,0.4,3.8,1c13.1,6.4,26.5,12,40.5,15.9c3.4,1.2,7,1.8,10.5,2.9
		C201.1,461.6,202.3,461.6,203.1,462.6z"/>
	<path class="st19" d="M474.2,145.9c-0.1,2.1,2.1,3.4,1.9,5.6c-1.7,1.5-3.7,1-5.7,1c-44.7,0-89.3,0-134,0c-3.3,0-6.6,0-9.9,0.3
		c-3.4-1-5.2-2.9-5.5-5.9c1.3-1.9,3.3-1.4,5.1-1.4c18.3,0,36.7-0.1,55,0c17.7,0.1,35.4,0,53.1,0.1c12.4,0,24.8,0.1,37.3-0.2
		C472.5,145.4,473.4,145.4,474.2,145.9z"/>
	<path class="st23" d="M56.2,112.3c1.4-0.8,3-0.6,4.6-0.6c56.2,0,112.3,0,168.5,0c1.2,1.6,1.1,3.1,0,4.6c-1.4,0.9-3,0.7-4.5,0.7
		c-55.4,0-110.8,0-166.2,0c-1.6,0-3.4,0.3-4.7-1C54.4,114.7,55.1,113.4,56.2,112.3z"/>
	<path class="st22" d="M18.4,218.7c0.6-0.5,0.9-1.5,2-1.1c2.5,0.9,5.1,0.4,7.7,0.4c53.7,0,107.5,0,161.2,0c1.3,1.5,1.1,3,0.1,4.6
		c-1.8,1.1-3.8,0.8-5.8,0.8c-52.7,0-105.4,0-158.1,0c-2.8,0-5.5,0-7.7,2.1C17.6,223.2,18.2,221,18.4,218.7z"/>
	<path class="st28" d="M189.4,230.5c-57.2,0-114.5,0-171.7,0c0.1-1.4,0.1-2.9,0.2-4.3c1.3-1,2.9-1,4.5-1c54.3,0,108.6,0,162.8,0
		c1.4,0,2.9-0.1,4.2,0.7C190.5,227.4,190.6,229,189.4,230.5z"/>
	<path class="st23" d="M457.6,115.4c-38.8,0-77.6,0-116.4,0c-16.2,0-32.5,0-48.7,0c-1.2,0-2.5-0.5-3.5,0.6c-2.5-0.6-4.1-2.1-4.9-4.4
		c6.8-1.1,13.6-0.6,20.4-0.6c48.1,0,96.1,0,144.2-0.1c2.1,0,4.3,0.9,6.4,0.1C456.1,112.4,457.3,113.7,457.6,115.4z"/>
	<path class="st2" d="M62.5,102.9c1.1,1.2,2.5,0.7,3.8,0.7c31.9,0,63.8,0,95.8,0c96,0,191.9,0,287.9,0c0.2,0.4,0.5,0.8,0.7,1.2
		c-1.7,0.6-3.4,0.6-5.2,0.6c-94.1,0-188.2,0-282.4,0c-26.6,0-53.2,0-79.9,0c-5.6,0-11.2,0-16.7,0c-1.8,0-3.5-0.1-5.2-0.6
		C61.6,104.2,61.7,103.4,62.5,102.9z"/>
	<path class="st15" d="M189.4,186.4c-23.1,0-46.2,0-69.4,0c-30.4,0-60.7,0-91.1,0c-1.6,0-3.3,0-4.9,0c0.2-1.5,0.3-3,1-4.4
		c24.5,0,49.1,0,73.6,0c30.2,0,60.5,0,90.7,0C190.6,183.5,190.6,184.9,189.4,186.4z"/>
	<path class="st26" d="M300.2,127.3c12.8-1.3,25.6-0.5,38.4-0.6c41.9-0.1,83.8,0,125.8,0c1.1,1.3,2,2.7,2.5,4.4
		c-52.3,0-104.5,0-156.8,0c-1.8,0-3.7,0.4-5.5,0.6C302,131.2,300.6,129.7,300.2,127.3z"/>
	<path class="st38" d="M67.3,96.7c8.4,0,16.8,0.1,25.2,0.1c92.2,0,184.3,0,276.5,0c25.2,0,50.4,0,75.5,0c0.4,0.4,0.7,0.9,1.1,1.3
		c-1.1,0.8-2.4,0.6-3.6,0.6c-123.9,0-247.7,0-371.6,0c-1.2,0-3.1,0.9-3.6-1.3C67,97.1,67.2,96.9,67.3,96.7z"/>
	<path class="st39" d="M366.7,441.4c2,3.4,4.6,6.5,5.5,10.5c-13.7,7.3-27.7,13.7-42.5,18.4c-0.5,0.2-1,0.2-1.5,0.3
		c-4.1-0.2-8-1.2-12-2.2c-2.1-0.5-3.5-1-2.3-3.4c0.8-1.6-0.4-2.2-1.3-3c0.1-1.8,1.7-1.5,2.8-1.8c12.4-3.2,24.4-7.4,36.1-12.4
		c4-2,8.1-3.6,12.1-5.6C364.5,441.7,365.5,441,366.7,441.4z"/>
	<path class="st19" d="M474.2,145.9c-1.6,0.6-3.2,0.6-4.9,0.6c-48.1,0-96.3,0-144.4,0c-1.2,0-3-1-3.6,1.2c-2.7-0.6-4.4-2.3-5-5
		c1.3-0.8,2.8-0.6,4.2-0.6c48.7,0,97.4,0,146.1,0.1c1.9,0,3.8-1,5.8-0.1C473,143.4,473.6,144.7,474.2,145.9z"/>
	<path class="st20" d="M217.4,50.1c0,2.1,0,4.1,0,6.2c-0.9,0.5-1.8,0.3-2.7,0.3c-34.5,0-68.9,0-103.4,0c-0.9,0-1.9,0.2-2.7-0.3
		c-0.4,0-0.9,0-1.3,0c2.5-2.4,5.2-4.4,8.1-6.2C149.4,50.1,183.4,50.1,217.4,50.1z"/>
	<path class="st28" d="M189.4,226.2c-57.2,0-114.4,0-171.5,0c0-0.2,0-0.4,0-0.6c0.4-2.5,1.8-3.2,4.4-3.2
		c36.5,0.1,72.9,0.1,109.4,0.1c19.3,0,38.5,0,57.8,0C190.5,223.7,190.5,224.9,189.4,226.2z"/>
	<path class="st40" d="M193.1,162.1c-53.9,0-107.8,0-161.7,0c-0.2-1.6,1-2.9,1.4-4.3c2.7,0.8,5.5,0.6,8.3,0.6c42.5,0,84.9,0,127.4,0
		c9.1,0,18.2,0,27.3,0C195.9,160.4,194.9,161.5,193.1,162.1z"/>
	<path class="st24" d="M485,175.8c-44.8,0-89.6,0-134.4,0c-2.2-0.3-3.6-1.7-4.3-3.7c1.1-1.1,2.6-0.6,3.8-0.6c43.1,0,86.2,0,129.3,0
		c1.4,0,2.9,0.3,4.2-0.6C484.4,172.4,485,174,485,175.8z"/>
	<path class="st41" d="M53.8,116.1c58.5,0,117,0,175.5,0c0.9,1.2,0.9,2.3-0.1,3.4c-1.4,0.8-3,0.7-4.5,0.7c-56,0-112.1,0-168.1,0
		c-1.6,0-3.4,0.3-4.7-1C52.5,118.1,53.1,117.1,53.8,116.1z"/>
	<path class="st42" d="M312.6,462c3.4,0.3,3.7,0.8,2,3.2c-1.3,1.8-0.7,2.3,1.2,2.4c4,0.2,7.5,2.7,11.7,2.1c0.2,0,0.4,0.6,0.6,1
		c-12.4,4-25,7.2-38,8.7c-0.6-2-2.2-1.1-3.4-1.1c-1.7-0.1-3.3-0.1-4-2.1c-0.2-0.5-0.5-1.1-1-1c-2.5,0.5-4.1-1.5-6.2-2.2
		c-1.6-0.5-3.7,0.1-4.2-2.8c-0.2-1.3-2.9-1-4.5-1.3c-1.5-0.2-3.1-0.1-4.6-0.1c0.1-1.3,1.1-1.2,2-1.4c15.7-0.1,31-2.7,46.3-5.9
		C311.3,461.3,312,461.4,312.6,462z"/>
	<path class="st19" d="M38.7,144c18.6,0,37.1,0,55.7,0.1c25.4,0,50.8,0,76.2,0c19.6,0,39.2,0,58.7,0c0.7,0.8,0.7,1.7,0,2.5
		c-63.9,0-127.8,0-191.6,0C37.7,145.6,38.1,144.7,38.7,144z"/>
	<path class="st43" d="M325.7,152.1c3-0.8,6.1-0.6,9.2-0.6c47.1,0,94.2,0,141.3,0c0.5,0.8,1.2,1.5,1.3,2.5c-1.7,0.6-3.4,0.6-5.2,0.6
		c-47.8,0-95.7,0-143.5,0C327.1,154.6,326,153.9,325.7,152.1z"/>
	<path class="st44" d="M51.8,119.1c59.2,0,118.3,0,177.5,0c0.7,0.8,0.7,1.7,0,2.5c-59.7,0-119.4,0-179.1,0
		C50.7,120.8,51.3,120,51.8,119.1z"/>
	<path class="st14" d="M29.6,167.1c1.6,0.5,3.2,0.6,4.9,0.6c38.3,0,76.6,0,114.9,0c13.7,0,27.5,0,41.2,0c0.9,1.1,0.3,1.9-0.6,2.5
		c-3.3,0-6.6,0-9.9,0c-39.2,0-78.5,0-117.7,0c-10.1,0-20.3,0-30.4,0c-1.2,0-2.5-0.1-3.6,0.6C28.5,169.5,28.9,168.2,29.6,167.1z"/>
	<path class="st45" d="M111.1,420.4c-1.5,3-3,5.9-5,8.6c-11.1-9-21.5-18.7-30.6-29.7c-0.1-1.9,1.4-2.1,2.7-2.2
		c2.3-0.2,4.7-0.2,7.1,0c2.7,0.4,4,2.7,5.8,4.3c1,0.9,1.9,1.9,2.9,2.8c5.3,4.6,10.6,9.3,16.2,13.6
		C111,418.4,111.7,419.2,111.1,420.4z"/>
	<path class="st46" d="M456.3,372.8c-5.2,8.7-11.3,16.6-17.8,24.3c-2,2.4-3.8,5.1-6.5,6.9c-2.1-0.6-4.3-0.1-6.4-0.4
		c-1.2-0.2-2.4-0.6-3.3-1.4c-1-1.5,0.3-2.3,1.1-3.1c2-2.2,4.3-4.1,6.2-6.5c4.8-5.3,9.6-10.5,13.9-16.2c2.3-2.2,3.2-5.7,6.5-7.1
		c1.7-0.3,3.3-0.2,4.9,0.5C456.1,370.3,457.2,371.1,456.3,372.8z"/>
	<path class="st8" d="M229.2,139.1c-60.4,0-120.7,0-181.1,0c-2.9,0-5.5,0.5-8,1.9c0.3-1.4,0.9-2.6,1.8-3.7c62.4,0,124.9,0,187.3,0
		C229.8,137.8,229.8,138.5,229.2,139.1z"/>
	<path class="st47" d="M422.1,401.6c2.5,1.1,5.1,1.5,7.8,1.3c0.9-0.1,1.9-0.2,2.2,1.1c-7.8,9.3-16.8,17.3-26.1,25
		c-2-2.7-3.6-5.6-5-8.6c-0.7-1.7,0.7-2.4,1.7-3.2c4.5-3.8,9.4-7.3,13.5-11.6C418.1,404.4,419.4,401.9,422.1,401.6z"/>
	<path class="st10" d="M381.7,40.2c-1.4,1.5-3.2,1.2-4.9,1.2c-69.1,0-138.3,0-207.4,0c-11.6,0-23.2,0-34.8,0c-1.6,0-3.1,0.1-4.2-1.4
		c0.3-0.2,0.5-0.3,0.8-0.5c2.9,0.8,5.9,0.6,8.9,0.6c78.7,0,157.3,0,236,0c1.7,0,3.3,0,4.9-0.6C381.1,39.8,381.4,40,381.7,40.2z"/>
	<path class="st48" d="M86.2,397.9c-2.6,0-5.3,0-7.9,0c-1.2,0-2.2,0.1-2.8,1.4c-7.7-8.5-14.6-17.6-20.5-27.4c-0.1-1.8,1.2-2,2.4-2.1
		c1.6-0.2,3.3-0.2,5,0.1c2.8,1,3.7,3.8,5.5,5.8c3.6,4.5,7,9.1,11.2,13.2c2,2.2,3.8,4.7,6,6.7C85.7,396.1,86.5,396.8,86.2,397.9z"/>
	<path class="st49" d="M456.3,372.8c0.2-2.4-1.8-2.4-3.2-2.8c-1.1-0.3-2.4-0.1-3.6-0.1c-0.5-1.5,0.6-2.5,1.3-3.5
		c1.7-2.4,3.4-4.8,5-7.3c0.9-1.3,1.7-2.7,2.3-4.1c4.4-6.9,8.5-14,12.1-21.4c0.4-0.8,0.9-1.6,1.9-1.9c1.8,0,3.6,0.2,5,1.6
		C471.6,347.2,464.8,360.4,456.3,372.8z"/>
	<path class="st50" d="M63.1,370.5c-1.8,0-3.5,0-5.3,0c-1.2,0-2.3,0-2.9,1.3c-6-8.9-11.2-18.2-15.5-28.1c1.4-2.5,3.7-1.2,5.6-1.2
		c3.4,1.8,4,5.6,6,8.4c2.4,4.5,5.5,8.6,8.3,12.9C60.4,366.2,63.1,367.6,63.1,370.5z"/>
	<path class="st51" d="M477.1,333.2c-1.8-0.2-3.5-0.6-5.2-1.3c-0.9-1.3,0.2-2.3,0.4-3.5c0.8-2.1,2.1-4,2.8-6.2
		c2.6-6.4,5.2-12.8,7.2-19.4c0.3-0.9,0.8-1.6,1.7-2c3.1-0.1,3.2,0,2.8,3c-2.1,9-5,17.6-8.3,26.2
		C478.1,331.2,477.6,332.2,477.1,333.2z"/>
	<path class="st52" d="M30.7,322.1c-3.9-10.3-7-20.8-8.7-31.7c0-1.7,1.2-1.2,2.2-1.2c0.3,0.1,0.6,0.3,0.8,0.6
		c0.9,1.4,1.3,2.9,1.7,4.5c0.5,1.7,1,3.5,1.6,5.2c0.9,2.4,1.7,4.9,2.5,7.3c0.5,1.6,1,3.2,1.7,4.7c0.8,3.2,2.9,6,3,9.3
		c-0.1,0.3-0.3,0.6-0.5,0.8C33.7,322.4,32.2,322.3,30.7,322.1z"/>
	<path class="st53" d="M30.7,322.1c1.3-1.4,2.9-0.5,4.4-0.7c2.4,1.4,2.7,4.2,3.9,6.3c0.6,1,0.9,2.3,1.5,3.4c0.8,1.9,1.8,3.6,2.7,5.4
		c0.8,1.7,1.7,3.3,2.4,5c0.2,0.5,0.4,1.1,0.1,1.7c-2.1,0.3-4.2-0.6-6.2,0.6C36,336.8,32.9,329.6,30.7,322.1z"/>
	<path class="st54" d="M486.8,304c0.4-2.6-1.3-2.7-3.1-2.5c-0.9-1.2-0.2-2.4,0.1-3.5c1.4-5.1,3-10.2,3.9-15.4
		c0.9-5.4,2.7-10.6,3.1-16.1c0.3-5,1.6-9.8,2-14.8c0.1-0.6,0.4-1.1,0.9-1.3c1.5,1.8,0.6,3.9,0.5,5.9
		C493.8,272.4,491.3,288.4,486.8,304z"/>
	<path class="st17" d="M86.8,78.1c-1.1,0-2.2-0.1-3.4-0.1c0.5-0.5,0.9-0.9,1.4-1.4c1.1,1.4,2.7,0.8,4.1,0.8c54,0,108,0,162.1,0.1
		c1.3,0,2.7-0.5,3.8,0.6c-0.2,0.2-0.4,0.4-0.6,0.6c-0.9-0.6-1.8-0.3-2.7-0.3c-24.9,0-49.9,0-74.8,0c-0.9,0-1.9-0.2-2.7,0.3
		c-0.2,0-0.4,0-0.6,0c-1.3-0.5-2.7-0.3-4-0.3c-26.4,0-52.8,0-79.1,0C89,78.4,87.9,78.7,86.8,78.1z"/>
	<path class="st3" d="M233.6,88.1c-51.4,0-102.8,0-154.1,0c-1.5,0-3.1,0.3-4.5-0.6c0.2-0.2,0.4-0.4,0.6-0.6c1.4,0.9,3,0.7,4.5,0.7
		c49.9,0,99.8,0,149.8,0C231,87.5,232.5,86.9,233.6,88.1z"/>
	<path class="st17" d="M429,78.7c-3-0.7-6.1-0.6-9.2-0.6c-41.9,0-83.9,0-125.8,0c1.1-1.1,2.6-0.6,3.8-0.6c41.9,0,83.9,0,125.8,0
		c1.4,0,2.9-0.1,4.3-0.1C428.5,77.7,429,78,429,78.7z"/>
	<path class="st55" d="M24.6,289.6c-0.9,0.1-1.9-0.3-2.6,0.7c-2.6-11.2-4-22.6-4.4-34.2c-0.2-1.7-0.7-3.5,0.2-5.2
		c0.9,0.1,1,0.9,1.2,1.5c0.2,1.1,0,2.3,0.4,3.4c0.1,0.3,0.2,0.6,0.2,0.9c0.1,1.6,0.2,3.2,0.6,4.7c0.2,1.4,0.3,2.9,0.6,4.3
		c0.2,1.3,0.3,2.6,0.6,3.8c0.2,1.6,0.5,3.2,0.8,4.7c0.2,1.6,0.6,3.1,1,4.7c0.3,1.4,0.5,2.9,0.9,4.3
		C24.3,285.5,26.1,287.4,24.6,289.6z"/>
	<path class="st56" d="M494.3,256.2c-0.5-1.9,0.5-3.9-0.7-5.7c-1.4-3.6-0.6-7.1,0.6-10.6c0.2,0,0.3,0,0.5,0
		C494.9,245.3,495.3,250.8,494.3,256.2z"/>
	<path class="st57" d="M18.3,251.1c-1.2,1.6-0.2,3.5-0.7,5.1c-0.9-5.2-0.5-10.5-0.4-15.7c0.2,0,0.3,0,0.5,0c1,1.2,0.8,2.7,0.9,4.1
		c-0.1,2,1.1,4.1,0.1,6.1C18.6,250.8,18.5,250.9,18.3,251.1z"/>
	<path class="st1" d="M345.1,324.3c-3.2,3.5-7.4,5.5-11.4,7.8c-6.9,4.1-14.4,7.1-22.1,9.6c-0.7,0.2-1.4,0.1-2.1,0.2
		c-2.3-1-2.9-3.4-4-5.2c-2.4-4.1-4.8-8.3-7.2-12.5c-6.8-11.7-13.5-23.5-20.3-35.2c-0.9-1.5-1.9-3-1.9-4.8c0.8-2.8,3.6-3.9,5.3-5.8
		c2.5-2.7,5.1-5.4,8.4-7.3c4.1-3.3,8-6.9,12-10.4c1.3-1.2,2.6-2.4,4.3-3.1c1.7-0.1,2.2,1.2,2.9,2.4c3.7,6.3,7.4,12.7,11,19
		c7.9,14,16.1,27.8,24,41.8C344.6,321.8,345.8,322.8,345.1,324.3z"/>
	<path class="st58" d="M392.9,217.5c2.9,2.7,5.8,5.4,8.7,8.1c0,12.2-1.8,24.1-5.5,35.7c-0.2,0.6-0.5,1.1-0.8,1.7
		c-2.1,0.4-4.1-0.3-6.1-0.6c-1.7-0.2-1.9-1.3-1.2-2.7c1.4-3.3,1.4-3.4-1.9-4.2c-0.3-0.1-0.6-0.3-0.8-0.5c-0.3-2.2-1.4-3.2-3.7-3
		c-2.7,0.2-5.3-0.6-8-0.7c-2.4-0.1-3-1.1-2-3.2c0.8-1.7,0.8-2.8-1.3-3c-0.4,0,0,0.2-0.3-0.1c-2.2-1.9-3.7-4.8-6.9-5.5
		c1.1-4.5-2.7-3-4.6-4c-2.5-1.3-6.1-1.2-7-4.9c-0.3-1.1-1.4-1-2.3-1.3c-2-0.5-3.2-1.4-2.5-3.7c0.4-1.2-0.4-1.6-1-2.5
		c-1.8-2.6-4.1-3.7-7.1-4.1c-1.6-0.2-1.3-1.9-0.6-3.1c1.2-1.9,0.5-2.4-1.5-2.7c-2.6-0.4-5.2-1.3-7.9-1.3c-0.9,0-1.8-0.5-2.4-1.3
		c-1.8-3-2.3-3.5-4-4.6c-0.6-2.1-0.7-4.2,0.1-6.3c4.8-1.4,9.6-3.7,14,0.7c0.6,0.6,1.5,0.7,2.3,0.7c1.9,0.2,3.2,0.8,4.1,2.7
		c1.3,2.4,3.6,1.5,5.5,0.9c2.2-0.7,4.1-1.9,6.5-1.8c1.6,0.1,3.1,0,3.9,1.9c0.5,1.2,1.6,1.2,2.7,1.2c3,0.1,5.9,0.7,9,0.7
		c3.6,0,4.2,1.1,2.5,4.2c-0.9,1.7,0.1,1.8,1.2,1.9c2.1,0.2,4.1-0.6,6.2-0.5c1.6,0,3.1-0.1,4.7,0.1c1.4,0.2,2.6,0.8,2.4,2.3
		c-0.4,2.6,1.1,2.7,2.9,2.5C391,217.1,392,217.1,392.9,217.5z"/>
	<path class="st59" d="M271,348.6c-21.7,1.3-42.3-2.9-62-12.2c-1.8-0.9-2.5-1.5-1.2-3.6c4.6-7.5,8.9-15.1,13.4-22.7
		c2.3-1,4.7-0.1,7-0.2c3.5-0.2,7-0.1,10.5,0c3.4,0.1,3.9,0.7,3.3,4c-0.3,1.5,0.6,1.6,1.6,1.6c2.9,0.1,5.6,1.5,8.5,1.5
		c0.6,0,1.2,0.3,1.6,0.8c0,1.1,2.5,5,3.3,6.4c1.1,1.9,2.2,3.2,4.5,3.7c1.3,0.2,0.7,1.5,0.4,2.3c-1.3,4.1-1.3,4.1,3,4.1
		c1.2,0,2.5,0,3.7,0c2.4,0,4.4,0.2,4.3,3.4c0,1.6,1.4,1.4,2.5,1.7c3,0.6,3.6,2.2,1.7,4.6C275.4,345.8,274.1,348.5,271,348.6z"/>
	<path class="st60" d="M40.1,331.3c-1.7-3.3-3.3-6.6-5-10c0-0.2,0-0.4,0-0.6c1.2-1.1,2.7-1,4.1-1c41.3,0,82.6,0,123.9,0
		c1.7,0,3.6-0.2,4.7,1.7c-1.9,3.5-3.9,7-5.8,10.5c-0.8,0.5-1.8,0.5-2.7,0.5c-37.8-0.2-75.7,0-113.5-0.1
		C43.9,332.3,41.8,332.7,40.1,331.3z"/>
	<path class="st61" d="M167.9,321.5c-1.4-0.9-3-0.7-4.5-0.7c-42.7,0-85.5,0-128.2,0c-0.8-3.2-2.9-6-3.1-9.3c1.6-1.4,3.5-1,5.3-1
		c20.6,0.1,41.2,0.1,61.8,0.1c23.3,0,46.6,0,69.8-0.1c1.7,0,3.6-0.4,5,1C171.6,314.6,170.4,318.4,167.9,321.5z"/>
	<path class="st62" d="M305.9,257.8c-1.3,1.1-2.6,2.2-3.8,3.2c-1.3,0.3-2.7,0.4-4,0.4c-28,0-56.1,0-84.1,0c-1.4,0-2.7-0.1-4-0.3
		c-1.3-1.1-2.6-2.2-3.9-3.3c-1.4-0.3-2.5-1.3-3.7-2c-1.3-1-2.6-2-3.8-3.1c-1-0.9-1.9-2-1.2-3.5c1.5-1.7,3.5-1.6,5.5-1.6
		c10.3,0,20.5,0,30.8,0c24.8,0,49.5,0,74.3,0c2.1,0,4.2-0.3,6,0.9c1.5,1.2,0.4,2.2-0.4,3.1C311.2,254,308.8,256.2,305.9,257.8z"/>
	<path class="st63" d="M345.1,324.3c-8.1-14.1-16.2-28.3-24.4-42.4c-0.5-0.9-1.2-1.7-1.3-2.7c0-2,1.4-2.2,2.7-1.9
		c4.6,1.1,9.4,0.9,14,2.2c0.9,0.2,2,0.3,2.1,1.5c0.1,2.3,1.7,2.1,3.3,2.2c2.6,0.1,5.1-0.6,7.7-0.6c3.6,0,4.2,0.6,3.6,4
		c-0.3,1.7,0.6,2,1.9,2.1c2,0.1,3.9-0.7,5.8-0.5c4.6-0.9,8.3,2,12.4,3c1.7,0.4,2,2.4,1.9,4.2c-8.3,10.4-17.2,20.1-27.9,28.1
		C346.4,323.8,345.9,324.4,345.1,324.3z"/>
	<path class="st64" d="M483.1,303.3c-2.2,6.5-4.3,13.1-7.5,19.3c-3.1,0.4-5.8,0.5-8.8-1.8c-2.3-1.7-5-4.1-8.5-4.3
		c-1.2-0.1-2.7-0.5-2.7-1.6c0-3-2-2.4-3.8-2.8c-2.3-0.5-4.6-1.2-7-1.2c-1.1,0-2-0.6-2.7-1.4c-0.8-0.9-1.8-1.3-2.9-1.6
		c-2.9-0.7-3.3-1.3-2-4.1c1.1-2.1,0.5-2.8-1.7-2.8c-3,0-6,0.1-9,0c-1.9-0.1-3.8-0.3-4.9-2.1c3.1-6.6,6.1-13.3,9.2-19.9
		c1.1-0.8,2.1-0.7,3.1,0.3c0.7,0.8,0.7,1.8,0.2,2.6c-1.4,2.5,0.2,2.5,1.9,2.5c5,0,9.9-0.2,14.9,0.6c3.5,0.5,4.2,1.3,2.9,4.7
		c-0.9,2.4-0.2,2.9,2.1,2.9c4.9,0,9.7-0.2,14.6,0.1c1.5,0.2,2.6,1.2,3.6,2.2C477,297.7,479.8,300.7,483.1,303.3z"/>
	<path class="st65" d="M58.8,364.3c-2.7-4.3-6.1-8.3-8.1-13.1c1.2-1.2,2.7-1,4.1-1c30.7,0,61.3,0,92,0c1.4,0,2.9-0.2,4.1,1
		c-2.2,5-5,9.7-8.1,14.2c-26.1-0.3-52.2,0-78.2-0.1C62.5,365.3,60.5,365.5,58.8,364.3z"/>
	<path class="st66" d="M174.4,391c3.5-6.2,7.1-12.3,10.6-18.6c0.9-1.7,1.7-1.8,3.3-0.9c11.5,5.8,23.5,10,36,12.9
		c2.5,0.6,5,1.1,7.5,1.7c1.4,1.2,3,1.7,4.8,1.6c1.2,0,2.3,0.2,2.8,1.5c0.4,1.1-0.4,1.9-1,2.8c-0.7,1-2.3,1.8-1.7,3
		c0.7,1.4,2.4,0.7,3.7,0.7c2.2,0.1,4.3,0,6.5,0c1.3,0,2.8,0,3.5,1.5c0.7,1.5-0.2,2.6-1,3.7c-0.2,0.3-0.5,0.6-0.6,1.3
		c1.3,1.1,4.6,0.7,3.6,4c-2.5,2.3-5.5,1.9-8.5,1.7c-0.4,0-1-0.1-1.1-0.4c-1.4-2.8-4.3-2.7-6.7-3.8c-2.9-1.3-5.6-1.2-8.4-0.4
		c-1.9,0.5-3.8,1.1-5.8,1.1c-2.1,0-3.9-0.3-4.4-2.9c-0.3-1.7-1.8-1.4-3-1.4c-1.8,0-3.3,1.3-5.1,1.2c-3.8-0.7-7.6-1.9-11.6-1.9
		c-1.3,0-2.5-0.4-3.1-1.7c-0.5-1.2-0.3-2.4,0.6-3C188.5,393.2,181.5,391.7,174.4,391z"/>
	<path class="st67" d="M385.4,254.8c0.5,0,1,0,1.5,0c1.3,0,2.9-0.2,3.7,1c0.9,1.4-0.8,2.1-1.4,3.1c-1.4,2-1.5,2.9,1.5,2.9
		c1.5,0,3.3,0.2,4.7,1.1c-0.1,0.2-0.3,0.5-0.4,0.7c-1.6,1.2-3.2,2.3-4.8,3.4c-1.7,1.1-3.7,1.3-5.7,1c-1-0.2-2-0.5-1.7-1.7
		c0.6-2.5-0.9-2.4-2.6-2.5c-2.5-0.1-4.9,0.4-7.3,1.2c-2.4,0.7-4.6,0.7-6.8-0.7c-2.9-1.8-6.3-1.1-9.4-0.8c-3.5,0.4-7,0.5-10.5,0.9
		c-3.1,0.4-6.2,0.4-9.1-1.2c-1.8-0.9-3.7-0.1-5.5-0.4c-1.5-1.1-2.9-2.2-4.8-2.6c-2-0.3-2.5-1.7-1.5-3.5c0.2-0.5,0.5-0.9,0.8-1.3
		c1.5-2.5,1.4-2.3-1.3-2.9c-3.1-0.7-6.3-0.6-9.2-2.2c-0.3-1.7,1.1-2.6,2-3.6c1.9-2,3.6-4.2,3.9-7.2c0.6-1.6-0.1-3.4,1-4.8
		c4.1-1.3,4.9-0.7,4.2,3.3c-0.2,1.5,0.7,1.6,1.6,1.6c4.6,0,9.3,0.4,13.9-0.3c2.1-0.3,4.1-0.5,6.2-0.2c2.4,0.4,3.1,1.6,1.7,3.7
		c-1.4,2.1-0.5,2.4,1.4,2.4c1.8,0,3.5,0,5.3-0.3c2.7-0.5,5.3-0.4,7.8,1.2c1.2,0.7,2.5,0.9,3.8,1.1c0.9,0.1,2.2,0.2,2.2,1.3
		c0.1,2.5,1.8,2.4,3.5,2.3c1.6-0.1,3.2-0.1,3,2.3c-0.1,1.5,1.1,1.4,2.2,1.5C381.4,254.8,383.4,253.6,385.4,254.8z"/>
	<path class="st68" d="M155.7,423.3c3.2-5.9,6.5-11.7,10.1-17.4c1.3-0.5,2.7-0.3,4-0.3c4.5,0.1,4.6,0.2,4.2,4.7
		c-0.1,1.5,0.9,1.3,1.7,1.5c4.3,1.3,8.8,1.3,13.2,1.2c0.8,0,1.7,0,2.5,0c3.9,0.2,4.5,1.2,2.7,4.7c-0.1,0.3-0.2,0.6-0.1,1.5
		c6.7-0.3,13.6-0.2,19.7,3.5c-0.3,2.8-2.9,2.8-4.8,3.9c4,4.1-1.6,5.6-2.6,8.7c2.9,0.5,5.7,0.1,8.4,0.3c1.8,0.1,4.2-0.6,4.7,1.8
		c0.5,2.3-1.6,3.4-3.3,4.4c-0.2,0.1-0.4,0.2-0.6,0.2c-4.6,0.6-9.3,0.2-13.9,0.2c-0.9,0-2.1-0.1-2.6-0.9c-1.7-2.6-4.2-2.2-6.7-2.2
		c-3.9,0-7.9,0.4-11.3-2.2c-0.9-0.7-2.4-0.3-3.7-0.3c-1.6-0.1-2.9-0.5-2.9-2.5c0-1.3-1.1-1.3-1.9-1.6c-4.5-2.2-9.5-1.5-14.2-2.6
		c-4-0.9-4.2-0.6-2.8-4.5C156,424.7,155.9,424,155.7,423.3z"/>
	<path class="st69" d="M213.7,423.4c-5.9-2.3-11.9-4-18.3-3.1c-1.1,0.1-2.5,0.4-3.1-0.8c-0.6-1.2,0.8-1.7,1.4-2.5
		c0.5-0.6,1.5-1.1,1-2c-0.4-0.9-1.3-0.9-2.2-0.9c-2.8,0-5.6-0.3-8.4,0.1c-3.8,0.5-7.2-1.6-10.9-1.4c-1.7,0.1-0.8-1.2-0.5-2
		c1.9-3.9,1.7-4.1-2.7-4.2c-1.4,0-2.9,0.2-4.2-0.6c2.6-5.1,5.4-10.1,8.6-15c2.4-0.9,4.7-0.4,7.2,0c4.7,0.8,9.4,2,14.1,2.8
		c-1.2,4.6-1.2,4.7,3.9,4.7c3.1,0,5.9,1.7,9.1,1.5c0.2,0,0.4,0.6,0.6,1c-0.5,2.1,0.2,3,2.5,2.9c2.7-0.1,5.4-0.1,8,0.2
		c1.2,0.1,2.3,0.2,2.8,1.5c0.5,1.2-0.2,2.2-0.9,3.1c-0.3,0.4-0.7,0.8-1,1.1c-1.4,1.4-0.9,2,0.9,2.3c3.5,0.6,4,2,1.8,4.9
		c-0.5,0.6-1.3,1.1-1.5,2.6c3.6-0.2,7.1-0.1,10.6,0.5c1.2,0.2,2.7-0.2,3.1,1.4c0.4,1.5-0.6,2.5-1.8,3.3c-2.3,1.2-4.8,0.8-7.3,0.8
		c-3,0-6,0.1-8.9,0C216,425.5,214.3,425.4,213.7,423.4z"/>
	<path class="st70" d="M330.7,378.6c7.2,12.6,14.5,25.1,21.7,37.7c0.5,0.9,1.3,1.6,1.3,2.8c-2,0.6-4.1,0.2-6.1,0.2
		c-1.7,0-3.8,0.1-2.9-2.8c0.3-1.2-0.7-1.3-1.5-1.4c-0.9-0.1-1.9-0.1-2.8-0.4c-1.3-0.4-2.5-1.2-1.9-2.7c1.1-2.9-0.7-2.5-2.4-2.6
		c-4.7-0.1-9.5,0.6-14-1.5c-3.6-0.2-6.1-3.3-9.7-3.5c-0.5,0-0.8-0.6-1.2-0.9c-0.8-0.8,0.3-2.6-0.9-2.7c-3.2-0.2-5.4-3.1-8.8-2.7
		c-3,0.3-6,0-9,0.1c-1.3,0.1-2.6,0-3.2-1.4c-0.5-1.2,0.3-2.1,1-3.1c1.7-2.4,1.7-2.4-1.1-3.3c-1.3-0.4-2.2-1.1-2.3-2.6
		c6.4-1.1,12.8-2.1,19.1-3.3c7.3-1.4,14.4-3.4,21.5-5.6C328.6,378.7,329.6,378.3,330.7,378.6z"/>
	<path class="st71" d="M421.6,299c4.7,2.2,9.8,0.9,14.7,1.2c1,0.1,2.3-0.5,2.9,0.5c0.7,1.1-0.4,2.1-1,3c-1.7,2.7-1.6,2.9,1.7,3.4
		c0.6,0.1,1.4,0.1,1.7,0.5c3.3,4.3,8.4,2.5,12.5,3.8c1.5,0.5,3.7-0.4,2.1,2.6c-0.8,1.5,1.1,1.6,2.1,1.7c1.9,0.2,4.2-0.6,4.7,2.5
		c0.1,0.8,1.4,0.7,2.2,0.7c1.5,0,2.9-0.2,3,2c0,1.3,1.3,1.1,2.2,1.1c1.8-0.1,3.5,0.1,5.2,0.6c-0.1,2.4-2.1,4-2.5,6.2
		c-2.7,1.7-5.2,3.8-8.5,4.3c-1.2,0.2-2.5,0.4-3.7,0.3c-2.6-0.2-3.3-1.1-2.5-3.5c0.6-1.5,0.1-1.9-1.3-2c-5.2-0.3-10.3-1.2-15.5-0.2
		c-1.6,0.3-3.3,0.3-4.9-0.2c-1.3-0.4-2.6-1.1-2.2-2.8c0.4-1.6-0.5-1.8-1.7-1.8c-2.4,0-4.8,0.2-6.8,1.8c-1.6,1.3-3.4,1.4-5.3,1.2
		c-0.6-0.1-1.6-0.2-1.6-0.7c0-3.1-2.3-2.2-3.9-2.3c-1.8-0.2-3.3-0.6-3.8-2.5c-0.3-1-1.3-1.3-1.8-2.1
		C413.6,311.8,417.6,305.4,421.6,299z"/>
	<path class="st72" d="M150.8,351.2c-33.4,0-66.8,0-100.2,0c-1.7-2.7-3.3-5.4-5-8.1c-0.2-0.4-0.4-0.8-0.6-1.3c1-1.8,2.8-1.6,4.4-1.6
		c6.2-0.1,12.4,0,18.7,0c26.7,0,53.5,0,80.2,0c2.6,0,5.4-0.4,7.7,1.7C154.3,345,152.6,348.1,150.8,351.2z"/>
	<path class="st73" d="M458.8,355.6c-0.8,1.2-1.7,2.5-2.5,3.7c-2.6,1.4-5.3,1.4-7.6-0.4c-2-1.5-4-1.9-6.4-1.8c-1.7,0.1-3.3,0.1-5,0
		c-1.2-0.1-2.4-0.3-3-1.3c-1.4-2.4-3.6-2.4-5.9-2.4c-3.6,0.1-7.3,0.5-10.4-2c-0.8-0.6-2-0.4-3-0.5c-1.7-0.2-3.3-0.8-4-2.6
		c-0.7-1.9-2.1-2.3-3.9-2.3c-4.6,0-9.1,0-13.7,0c-2.4,0-4.2-0.9-4.9-3.4c6.3-6.3,12.3-13,18-19.9c3.1-0.7,6,0.7,9.1,0.9
		c0.4,0,0.9,0.4,0.9,0.8c0,2.8,3.3,3.5,3.8,6.1c0.2,1,1.3,1.4,2.2,1.3c3.2-0.2,6.1,1,9.2,1.4c2.7,0.3,3.1,0.9,1.9,3.5
		c-0.9,1.9-0.5,2.7,1.6,2.7c0.6,0,1.4-0.1,1.8,0.4c1.7,2,3.8,3,6.4,3.1c0.3,0,0.7,0.2,0.8,0.5c1.7,4.4,6,3.9,9.4,4.8
		c3,0.8,3.8,1.7,2.3,4.4c-0.9,1.7-0.5,2.3,1.2,2.4C457.8,354.9,458.3,355.1,458.8,355.6z"/>
	<path class="st74" d="M331.3,262.3c2.8-1,5.5-0.5,8,0.9c1,0.5,2,0.4,3,0.4c6.8,0.1,13.5-1.5,20.3-1.2c1.1,0,2.5-0.3,3.3,0.6
		c2.3,2.7,5,1.9,7.6,0.9c2.9-1.1,5.9-0.8,8.9-0.9c1.8,0,2.7,0.7,1.4,2.4c-1.4,2-0.2,1.9,1.3,2c2,0.1,3.9-0.2,5.4-1.7
		c1.2-1.1,2.7-1.9,4.4-2c-4.1,12.2-11.3,22.4-20.1,31.7c-0.8-3-3.3-3.5-5.9-4.5c-2.8-1.1-5.5-2-8.5-1.7c-0.7-0.8-0.2-1.6,0.2-2.3
		c1-1.7,0.5-2.6-1.4-2.4c-3.3,0.3-6.3-1.2-9.5-1.2c-2.4,0-1.7-1.7-1-2.9c1.2-2.2,1.1-3.4-1.8-3.5c-1.7-0.1-2.2-1.4-1.8-2.9
		c0.4-1.4,0.2-2.4-1.4-2.8c-0.2-0.1-0.5-0.2-0.5-0.3c-0.3-4.2-4.7-3.8-6.8-5.9c-0.8-0.8-1.9-0.8-2.9-0.9
		C332.7,263.5,331.4,263.9,331.3,262.3z"/>
	<path class="st75" d="M287,387.9c1,1.4,2.3,2.2,4.2,2c2.3-0.3,2.5,0.9,1.5,2.6c-0.2,0.4-0.5,0.7-0.7,1c-0.7,1-2.7,1.7-2.1,3.1
		c0.8,1.8,2.7,0.7,4.2,0.7c3,0,6,0,9,0c1.4,0,2.6,0.4,3.7,1.3c0.6,0.5,1.2,1.3,2.1,1.2c1.9-0.2,3.1,0,2.7,2.5
		c-0.2,1.3,1.1,1.8,2.1,1.8c1.9,0,3.5,0.2,4.7,2.1c0.7,1.2,2.7-0.1,3.7,1.1c-0.6,0.7-1.5,1-2.2,0.7c-3.3-1.4-7.5-0.8-9.9-4.3
		c-0.9-1.3-2.3-1.2-3.7-1.1c-2.5,0.3-4.5,1.3-6.3,3.1c-1.7,1.8-3.8,2.9-6.3,2.9c-7.9,0.1-15.7,0.1-23.6,0c-0.8,0-1.6-0.2-2.4-0.6
		c-1.7-1.4-3.8-1.1-5.8-1.3c-3.2-0.3-6.5,0.9-9.5-0.9c-0.3-2.1-1.8-2.6-3.6-2.5c-0.6,0-1.3,0.2-1.6-0.5c-0.3-0.7,0.4-1.1,0.8-1.5
		c0.4-0.5,0.9-0.9,1.3-1.3c0.6-0.7,1.2-1.4,0.8-2.5c-0.4-1.1-1.4-1-2.4-1c-3.3,0-6.6,0-9.9,0c-0.9,0-2,0.1-2.4-0.9
		c-0.4-0.8,0.3-1.6,0.7-2.3c0.9-1.4,3.5-2.2,2.9-4c-0.7-1.9-3.2-0.7-4.8-1c-1.4-0.3-1.6-1.4-2.2-2.4c11.7,1.8,23.5,3.1,35.4,2.8
		C273.8,388.8,280.4,388.2,287,387.9z"/>
	<path class="st76" d="M290.2,271.4c-5,3.8-9.2,8.5-13.9,12.6c-2.2,3.7-5.8,6-9,8.7c-2.6,2.3-5.6,3.9-9.2,3.9c-1.4,0-2.9,0-4.3,0
		c-0.6,0-1.3-0.1-1.9-0.3c-6.9-2.1-11.7-7-16.2-12.4c-4.4-4-8.9-7.9-13.3-11.9c-0.6-1.3,0.4-1.6,1.3-1.9c1.1-0.3,2.3-0.3,3.4-0.3
		c19.5,0,39,0,58.4,0C287.1,270,289.1,269.4,290.2,271.4z"/>
	<path class="st77" d="M24.6,289.6c0.1-2.2-0.9-4.1-1.2-6.2c1-0.5,2-0.4,3-0.4c34.1,0,68.1,0,102.2,0c18.2,0,36.4,0,54.6,0
		c1.3,0,2.7-0.1,4,0.2c1.2,0.3,2.3,0.6,1.7,2.3c-1,1.6-2,3.2-3,4.8c-1.3,1-2.9,1-4.5,1c-50.8,0-101.6,0-152.3,0
		c-1.6,0-3.1-0.1-4.5-1C24.6,290,24.6,289.8,24.6,289.6z"/>
	<path class="st78" d="M388.5,342.5c2.4,3.2,5.9,2.5,9.1,2.5c3.6,0,7.2,0,10.9,0c1.8,0,3,0.2,3.1,2.4c0.1,2,1.7,2.4,3.3,2.5
		c2.1,0.1,4.1-0.2,5.5,1.9c0.5,0.8,1.7,0.6,2.6,0.6c2.5,0,5,0.1,7.5,0c1.9-0.1,3.4,0.1,4,2.3c0.3,1.2,1.3,1.5,2.5,1.4
		c2,0,3.9,0,5.9,0c2.3,0,4.4-0.2,6.3,2.1c1.7,2,4.7,0.8,7.1,1c-2.3,3.5-4.6,7-6.8,10.6c-1.9,2.3-3.7,4.6-5.6,6.8
		c-0.3,0.2-0.7,0.5-0.8,0.4c-2.7-2.1-6.9-1-9.2-4.1c-0.7-1-1.8-0.9-2.8-1c-2.9-0.2-5.7-0.7-8.6-0.7c-1.7,0-3.4-0.5-3.1-2.8
		c0.2-1.2-0.5-1.4-1.4-1.4c-1.6,0-3.1-0.3-4.5-0.8c-1.6-0.5-3.2-0.9-4.8-1.1c-2-0.2-3-1.1-1.8-3.1c1.3-2,0.2-2.2-1.5-2.6
		c-4.9-1.2-9.8-2.7-14.5-4.6c-1-0.4-1.5-1.2-1-2.3c1.2-2.7-0.5-2.9-2.5-3c-1.7-0.1-3.7-0.1-3.8-2.6
		C385.2,345.4,386.8,344,388.5,342.5z"/>
	<path class="st79" d="M271,348.6c2.7-1.2,4.2-3.8,6-6c1.4-1.7,0.4-2.7-1.6-2.6c-2.4,0-4.6,0.1-3.3-3.5c0.4-1.2-0.7-1.5-1.7-1.5
		c-2.6,0-5.2-0.1-7.8,0c-2.8,0.2-3.4-0.9-2.3-3.3c0.5-1.1,1-2.2,1.5-3.5c-2.5-0.2-5.3,0.4-5.1-3.6c0-0.8-1.9-0.9-3-0.9
		c-0.9,0-2,0.5-2.4-0.7c-0.3-0.9,0.4-1.8,0.9-2.5c0.5-0.7,1.4-1.3,1.4-2.4c3.8,1.6,7.5,1,11.3-0.6c3.1-1.3,6.1-1.4,9,0.8
		c1.9,1.4,4.7,0.6,6.5,2.4c3.9,2.3,8.4,1.4,12.5,2c2,0.3,4.1-0.4,6,0.9c3.6,6,7.1,12,10.7,18c-5.8,2.5-12.1,3.4-18.2,4.5
		C284.5,347.6,277.8,348.5,271,348.6z"/>
	<path class="st80" d="M27.7,299.6c-0.6-1.7-1.2-3.3-1.8-5c1.6-1.3,3.5-1,5.4-1c22,0.1,43.9,0.1,65.9,0.1c26.8,0,53.7,0,80.5-0.1
		c2,0,4.2-0.6,5.6,1.6c-1.4,1.7-1.7,4.2-3.6,5.6c-1.2,1-2.7,1-4.1,1c-47.3,0-94.7,0-142,0C31.2,301.8,29,301.7,27.7,299.6z"/>
	<path class="st81" d="M27.7,299.6c1.7,1.1,3.6,1.3,5.6,1.3c48.8,0,97.5,0,146.3,0c-0.6,3.3-2.7,5.9-4.5,8.6
		c-2.2-1.4-4.7-1.5-7.2-1.5c-44,0-88.1,0-132.1,0c-1.9,0-4,0.4-5.7-1C29.3,304.6,28.5,302.1,27.7,299.6z"/>
	<path class="st82" d="M203.1,255.5c1,0.8,2,1.5,3,2.3c-2.4,0.9-2.4,3.8-4.1,5.2c-2.3-0.4-4.5-0.4-6.8-0.4
		c-20.2,0.1-40.4,0.1-60.7,0.1c-28.9,0-57.9,0-86.8,0c-7.9,0-15.8-0.1-23.6,0c-1.5,0-3.1,0.1-4.4-1c-1-1.6-0.5-3.3-0.6-5
		c1.7-1.4,3.7-1,5.7-1c38.2,0,76.5,0,114.7,0C160.6,255.6,181.8,255.8,203.1,255.5z"/>
	<path class="st83" d="M279.6,321.4c-0.9-0.8-2-1.2-3.1-1.2c-1.7,0-3-0.4-4.4-1.7c-1.6-1.5-3.8-1-5.9-0.4c-2.9,0.8-5.6,2.4-8.9,2.2
		c-1.7-0.1-2.9-0.6-3.9-1.9c-3.6-0.5-7.1-1.9-10.7-1.9c-0.9,0-2,0.2-2.5-0.7c-0.7-1.1,0.6-1.6,1.1-2.3c0.4-0.6,1.2-1,0.6-1.9
		c-0.5-0.7-1.2-0.7-1.9-0.7c-4.6,0-9.1,0-13.7,0c-1.8,0-3.5-0.1-5.2-0.7c4-7,7.9-13.9,11.9-20.9c1-1.7,1.8-3.5,2.7-5.2
		c5.2,4.1,9.5,9.5,16,11.7c-0.6,1-0.6,1.7,0.9,1.7c2.3,0,4.5-0.1,6.8,0c4.3,0.3,5.1,1.5,3.6,5.4c-0.3,0.7-0.8,1.7,0.1,1.8
		c2.5,0.3,3.4,2.8,5.7,3.5c2.7,0.7,3,1.8,1.8,4.4c-1.3,2.7-1.3,2.9,1.7,3c2.3,0.1,4.5-0.1,6.8,0.1c1.5,0.1,3.6,0.1,3.7,2
		C283,319.4,281.9,321.1,279.6,321.4z"/>
	<path class="st84" d="M458.8,355.6c-0.9,0-1.9,0-2.8,0c-0.9,0-1.7-0.2-2-1.1c-0.3-0.8,0.2-1.4,0.7-1.9c0.6-0.8,1.9-1.3,1.4-2.5
		c-0.6-1.3-2-1.4-3.2-1.3c-3.1,0.2-5.3-2.8-8.6-2c-0.8,0.2-1-0.6-0.5-1.3c1.3-2.1-0.1-2.3-1.6-2.3c-2-0.1-4.2,0.6-4.8-2.5
		c-0.2-1.2-2-0.5-3.1-0.6c-2.8-0.2-3.2-0.8-1.8-3.1c1.7-2.9,1.7-2.7-1.6-3.2c-3.2-0.5-6.4-1.3-9.8-1.3c-2.4,0-1.3-3-2.4-3.9
		c-1.2-0.8-3.5-0.2-2.5-3c0.5-1.2-0.5-1.8-1.5-1.7c-2.9,0.3-5.5-0.7-8.2-1.3c0.8-1.6,1.9-3,3.2-4.3c1.5,0.1,3.3-0.4,2.8,2.4
		c-0.3,1.4,1.2,1.4,2.3,1.4c2.2,0,4.4-0.2,6.2,1.4c0,0.9-1.5,0.2-1.3,1.4c0,0,0.1,0.3,0.3,0.3c2.3,0.1,4.3,0.1,6.4-1.6
		c2.3-1.8,5.7-1.6,8.7-1.4c1.6,0.1,1.7,1.1,0.8,2.1c-2,2.1,0.1,2.5,1.3,2.7c1.4,0.3,3,0.4,4.3,0.1c5.8-1.5,11.5,0.2,17.2,0.1
		c0.8,0,1.5,0.2,1.8,1c0.3,0.9-0.5,1.3-0.9,1.8c-0.5,0.6-1.5,1.1-0.9,2.1c0.5,0.9,1.4,0.8,2.2,0.8c3.4-0.1,6.8-0.3,9.4-3
		c0.8-0.9,1.9-0.7,2.9-0.7c-0.4,1-0.8,2.1-1.2,3.1c-3.8,7.6-7.6,15.2-12.5,22.2C459.1,354.6,459,355.1,458.8,355.6z"/>
	<path class="st85" d="M21.5,274.7c-0.1-1.7-0.9-3.3-0.6-5c0.7-0.6,1.5-0.6,2.3-0.6c22.6,0.4,45.2,0.1,67.7,0.2
		c33.7,0.1,67.3,0,101,0c1.9,0,4-0.5,5.7,1c-1,1.9-1.6,4-3.1,5.7c-1.1,0.4-2.2,0.4-3.4,0.4c-54.4,0-108.9,0-163.3,0
		C25.6,276.3,23.1,277,21.5,274.7z"/>
	<path class="st86" d="M290.2,271.4c-0.9-0.8-2-0.5-3-0.5c-20.6,0-41.2,0-61.7,0c-1.1,0-2.6-0.7-3.1,1.2c-4.2-3.6-8.6-7.1-12.5-11.1
		c0.9-1.1,2.1-0.7,3.2-0.7c28.6,0,57.2,0,85.7,0c1.1,0,2.3-0.4,3.2,0.6C298.3,264.7,294.4,268.3,290.2,271.4z"/>
	<path class="st87" d="M58.8,364.3c26.7,0,53.4,0,80,0c1.4,0,3-0.5,3.9,1.1c-2.1,3.6-4.2,7.1-6.2,10.7c-0.8,0.5-1.8,0.5-2.7,0.5
		c-21.2-0.1-42.4-0.1-63.6,0c-0.9,0-1.9,0.1-2.7-0.5c-1.5-1.9-2.9-3.7-4.4-5.6C61.7,368.4,60.2,366.4,58.8,364.3z"/>
	<path class="st88" d="M383.5,346.9c1,2.2,3,1.8,4.8,1.8c3.4,0,3.9,0.7,2.3,3.5c-0.9,1.7-0.3,2.1,1.1,2c1.6,0,3.1,0,3.9,1.8
		c0.1,0.2,0.5,0.6,0.7,0.5c3.6-0.6,6.5,1.8,10,2.1c0.9,0.1,2-0.4,2.4,0.7c0.3,0.9-0.3,1.8-0.9,2.5c-1.9,1.9-1.2,2.4,1.1,2.4
		c1.5,0,3,0.4,4.3,1.2c0.1,2.4-2,3.1-3.5,4.2c-1.3,1-2.8,1.7-3.1,3.6c-0.2,1.3-1.4,2-2.5,2.6c-2.3,1.2-4.4,2.7-6.3,4.4
		c-2.5,0.4-5,1.1-5.9-2.5c-0.3-1.1-1.7-1.1-2.7-1.3c-2.8-0.5-5.6-0.2-8.4-0.3c-1.8-0.1-3.6-0.2-4.3-2.4c-0.6-1.9-2.8-1.1-3.9-2.2
		c-2.3-3.7-4.5-7.5-6.8-11.2C372,356.1,378,351.8,383.5,346.9z"/>
	<path class="st89" d="M188.9,285.5c-0.3-2.1-2-1.5-3.2-1.4c-17.1,0.1-34.2,0.1-51.3,0.1c-15.7,0-31.5,0-47.2-0.1c-20-0.1-40,0-60,0
		c-1.3,0-2.7,0.2-3.9-0.6c-0.4-1.4-0.8-2.8-0.6-4.4c1.7-1.5,3.7-1,5.7-1c44.2,0,88.3,0,132.5,0c8.9,0,17.8-0.1,26.7,0.1
		c1.7,0,4-0.5,4.4,2.2C191.2,282.2,190.2,284,188.9,285.5z"/>
	<path class="st90" d="M67.5,376.1c1.6-0.5,3.2-0.6,4.9-0.6c19.8,0,39.5,0,59.3,0c1.7,0,3.3,0.1,4.9,0.6c-2.8,4.7-4.8,9.8-8.1,14.1
		c-14.5-0.2-28.9,0-43.4-0.1c-2.2,0-4.3,0-6.4-1C74.2,385.4,71.1,380.6,67.5,376.1z"/>
	<path class="st82" d="M493.6,251.7c0.1,5.1-1.7,9.9-1.9,14.9c-1.5,1.3-3.3,1-5,1c-13.6,0.1-27.2-0.1-40.8,0.1
		c-1.7,0.3-2.9-0.6-4-1.7c-1.7-1.7-3.4-3.6-5.4-5c0.8-3.1,1.5-6.2,2.3-9.4c1.3-1,2.9-1,4.5-1c15.3,0,30.6,0,46,0
		C490.8,250.7,492.4,250.5,493.6,251.7z"/>
	<path class="st91" d="M19.6,261.6c36.6,0,73.2,0,109.8,0c23.1,0,46.2,0,69.3,0c1.2,0,2.9-0.7,3.3,1.3c-0.8,1.2-1.6,2.5-2.5,3.7
		c-1,0.3-2,0.3-3.1,0.3c-56.9,0-113.9,0-170.8,0c-1.8,0-3.8,0.3-5.4-1C19.4,264.6,19.6,263.1,19.6,261.6z"/>
	<path class="st92" d="M20.2,266c58.5,0,117,0,175.5,0c1.3,0,2.7-0.5,3.8,0.7c-0.6,1.2-1.3,2.4-1.9,3.6c-25.4,0-50.8,0-76.1,0
		c-30.4,0-60.9,0-91.3,0c-3.1,0-6.2,0.2-9.2-0.6C20.1,268.6,20.2,267.3,20.2,266z"/>
	<path class="st93" d="M493.6,251.7c-18.3,0-36.6,0-54.8,0c0.7-4.4,1.4-8.7,2.1-13.1c0.7-1,1.7-1.2,3-1.2c16,0,32,0.1,48,0
		c1.9,0,2.7,0.7,2.4,2.5c0.4,3.6-0.6,7-0.6,10.6C493.7,250.9,493.7,251.3,493.6,251.7z"/>
	<path class="st94" d="M155.7,423.3c2,1,1.4,2.1,0.2,3.4c-0.8,0.8-1.3,2,0.5,2.2c6.4,0.9,13,1.2,19.4,3.6c0.2,0.9-2.4,3.2,1.2,3.3
		c0.8,0.6,1.8,0.3,2.7,0.3c1.1,0,2.1,0.1,2.6,1.3c0.4,1.1-0.2,2-0.8,2.8c-0.9,1.2-2.5,1.8-3.3,3.5c2.2,1.2,4.4,0.7,6.5,0.4
		c2.1-0.3,4.1-0.6,6.2-0.1c2.2,0.5,2.6,1.8,1.3,3.6c-1.1,1.5-2.8,2.4-3.5,4.2c0.2,0.2,0.2,0.3,0.3,0.4c5.1,2,5.2,3,0.6,6.7
		c-8.9-1.8-17.3-5.4-25.6-8.8c-6.3-2.6-12.3-5.7-18.5-8.6C148.8,435.4,152.2,429.4,155.7,423.3z"/>
	<path class="st80" d="M183.2,295.2c-1.2-0.8-2.6-0.6-3.9-0.6c-26.1,0-52.2,0-78.3,0c-25,0-50.1,0-75.1,0c0-1.6-0.7-2.9-1.2-4.4
		c52.3,0,104.6,0,156.9,0c1.4,0,2.9,0,4.4,0.1C185.4,292.2,184.1,293.6,183.2,295.2z"/>
	<path class="st85" d="M191.9,280.3c-0.9-1.9-2.7-1.3-4.1-1.3c-55,0-110.1,0-165.1,0c-1-1.3-0.6-3-1.2-4.4c1.3,0.8,2.8,0.6,4.2,0.6
		c55,0,109.9,0,164.9,0c1.3,0,2.7-0.5,3.8,0.7C193.9,277.6,193,279,191.9,280.3z"/>
	<path class="st81" d="M30.2,307.1c46.8,0,93.7,0,140.5,0c1.8,0,4.2-0.7,4.4,2.4c-0.4,0.6-0.8,1.3-1.1,1.9c-47.3,0-94.6,0-142,0
		C30.8,310.2,30.6,308.6,30.2,307.1z"/>
	<path class="st95" d="M40.1,331.3c39.1,0,78.2,0,117.3,0c1.6,0,3.1,0.2,4.6,0.6c-1.3,2.1-1.8,4.6-3.6,6.4c-2.2-0.9-4.6-1.1-7-1.1
		c-33.9,0-67.8,0-101.8,0c-2.3,0-4.7,0.9-7-0.3C41.8,335,40.5,333.4,40.1,331.3z"/>
	<path class="st96" d="M78.7,389.2c11.7,0,23.4,0,35.1,0c4,0,8.1,0,12.1,0c0.9,0,2.2-0.5,2.6,1c-3.2,4.8-5.1,10.4-8.7,15
		c-8-0.2-16-0.3-24-0.1c-0.7,0-1.4,0-2.1-0.5c-2.5-2.3-5-4.6-7.5-6.8C83.8,394.9,80.7,392.5,78.7,389.2z"/>
	<path class="st97" d="M42.6,336.9c3-0.8,6.1-0.6,9.2-0.6c26.1,0,52.1,0,78.2,0c8.2,0,16.3,0,24.5,0c1.6,0,3.4-0.2,3.9,2.1
		c-0.8,1.2-1.6,2.4-2.4,3.6c-6.1-1.2-12.4-0.6-18.5-0.7c-29.4,0-58.8,0-88.2,0c-1.4,0-2.9-0.2-4.2,0.6
		C44.3,340.2,43.4,338.6,42.6,336.9z"/>
	<path class="st98" d="M436.5,261c1.3-0.8,1.8,0.4,2.5,1c1.9,1.7,3.7,3.5,5.5,5.2c2.9,1.1,4.8,3.5,6.9,5.6c2.4,2.4,4.8,4.8,7.2,7.2
		c3.3,3.2,6.4,6.7,10,9.6c1.2,0.9,2.8,1.8,2.6,3.8c-5.8,0-11.6,0-17.4,0c-1.8,0-3.2-0.1-1.5-2.3c0.2-0.2,0.2-0.6,0.3-0.9
		c1.6-4.1,1.6-3.8-2.6-4.4c-5.4-0.8-10.7-0.3-16.1-0.6c-0.8,0-1.8,0.4-2.2-0.6c-0.3-0.8,0.4-1.5,0.9-2.2c0.6-0.7,1.5-1.3,1.1-2.4
		c-0.6-1.4-1.9-1-3-1.1C432.7,273,434.6,267,436.5,261z"/>
	<path class="st99" d="M93.6,404.7c7.6-1.3,15.3-0.4,22.9-0.6c1.1,0,2.2,0.4,3.2,1.1c-3.1,4.9-5.3,10.4-8.6,15.1
		c-1-3-4.1-3.8-6.1-5.8C101.4,411.1,97.4,408,93.6,404.7z"/>
	<path class="st32" d="M440,216.3c2.7-0.5,2.7,1.2,2.6,3.1c-0.2,1.2,0.4,2.6-0.5,3.7c0-1.2-0.2-2.5,0-3.7
		C442.3,217.6,441.6,216.7,440,216.3z"/>
	<path class="st32" d="M401.6,223.8c0.3-2.5-0.9-5.2,0.7-7.6C401.7,218.7,402.7,221.4,401.6,223.8z"/>
	<path class="st100" d="M267.8,407.8c8.4,0,16.8,0,25.1,0c2.8,0,5-0.9,6.7-3.2c1.7-2.3,7-3.8,9.6-3c0.2,0.1,0.5,0.1,0.6,0.2
		c0.8,4.3,5.3,2.8,7.6,4.8c1.3,1.1,3,0.4,4.5,0.6c5.5,1.8,11.1,1.1,16.7,1.2c2.1,0,2.4,0.9,1.1,2.4c-2,2.2-0.4,2.8,1.5,3.2
		c0.4,0.1,0.8,0,1.2,0c4.2,0.1,4.5,0.6,2.4,4.1c2.9,0.8,6-0.5,8.8,0.8c2.4,3.3,4.4,6.9,6.2,10.6c-1.5,1.7-3.5,1.5-5.5,1.6
		c-8.3,0.1-16.5,0-24.8,0c-3.5,0-7,0-10.4,0.9c-9-0.8-17.9-2.6-27-2.3c-5,0.2-5.7-1.2-3.3-5.6c1-1.3,1.4-2.6-0.9-2.4
		c-3,0.2-4.2-1.1-3.8-4c0.2-1.3-0.6-1.6-1.6-1.6c-1.7,0-3.5,0-5.2,0c-2.5,0-4.9,0.1-6.8-2.1c-0.6-0.7-1.6-0.8-2.6-1
		c-3.3-0.7-3.7-1.8-1.4-4.4C266.9,408.3,267.3,408,267.8,407.8z"/>
	<path class="st101" d="M372.9,371.8c1.1,0,2.3,0,3.4,0c0.9,0,1.6,0.1,1.3,1.4c-0.6,2.3,1,2.3,2.6,2.3c3.7,0.1,7.4-0.4,11.1,0.6
		c0.7,0.2,1.9,0.1,1.9,0.8c-0.1,4.7,3.3,2.5,5.4,3c3.1,0.5,6.4,0.1,9.5,1.2c2.1,0.8,4.4-0.1,6.4,0.8c0.7,0.5,0.8,1.2,0.6,1.9
		c-0.4,1.6,0.4,2,1.7,2.1c0.6,0,1.5,0.1,1.7,0.6c1.8,4.3,6.6,2.8,9.5,4.9c0.7,0.5,1.8,0.4,2.2,1.5c-2.7,2.9-5.4,5.8-8.1,8.7
		c-1.9,1.5-3.7,2.9-5.6,4.4c-2.1,1-4,1.5-4.9-1.4c-0.1-0.2-0.2-0.5-0.3-0.5c-3.8,0-5.8-4-9.6-4.1c-4.2,0-8.4,0.2-12.7-0.1
		C383.5,390.6,377.8,381.4,372.9,371.8z"/>
	<path class="st102" d="M318.8,431.5c2.7-1.3,5.6-1.3,8.5-1.3c7.9,0.1,15.7,0,23.6,0c3,0,6,0.2,8.9-0.6c2.5,3.8,4.8,7.7,6.8,11.8
		c-4.9,2.5-9.8,4.9-14.9,6.8c-3.9,0.6-7.7,1.4-11.3-1.3c-0.7-0.5-1.8-0.3-2.7-0.4c-2.1-0.1-4.1-0.4-3.4-3.4c0.3-1.4-0.7-1.5-1.7-1.5
		c-2.4-0.1-4.7,0-7.1,0c-2.2,0-4.2-0.1-4.4-3c0-0.6-0.7-0.6-1.3-0.6c-1.7-0.2-4.1,0.3-4.5-2.1C315,433.5,316.9,432.3,318.8,431.5z"
		/>
	<path class="st99" d="M389.1,399.9c1.1-1.3,2.5-0.7,3.8-0.7c3.4-0.1,6.8-0.1,10.2,0c1.4,0,3.2-0.4,3.1,2.2c0,1.3,1.4,0.8,2.2,0.9
		c2,0.2,4.4-0.6,4.4,3c0,1.5,2.5,0.3,3.7,0.7c-4,4.9-9.4,8.2-14.1,12.3c-0.7,0.6-1.5,1.1-1.5,2.1C396.8,413.6,392.6,407,389.1,399.9
		z"/>
	<path class="st103" d="M325.7,152.1c1,0.8,2.1,1.7,3.1,2.5c1.2,1.5,2.5,2.9,3.7,4.3c-1.4,1.5-3.8,2-4.4,4.4
		c-0.2,0.8-1.6,0.8-2.5,0.8c-1.7,0-3.5,0.1-5.2,0.3c-1.4-0.3-2-1.3-2.4-2.6c1.1-2.2-0.7-2-1.9-2.2c-6-6.2-13.3-9.1-22-8.4
		c-2.8,0.2-5.6,0.1-8.3,0c-1.3,0-2.7,0.1-3.5-1.3c-0.6-1.8-0.3-3.7-0.3-5.5c0-9.5,0-19-0.1-28.5c0-1.6-0.3-3.3,1-4.7
		c0.4,0.2,0.8,0.4,1.2,0.6c1.6,1.5,3.3,2.9,4.9,4.4c1.8,2.3,3.9,4.4,6.2,6.2c1.4,1.9,3.1,3.6,5,5c1.2,1.7,2.7,3.2,4.4,4.4
		c3.9,3.7,7.9,7.5,11.8,11.2c1.4,1.9,3.1,3.6,5,5C322.5,149.5,324,150.9,325.7,152.1z"/>
	<path class="st104" d="M282.8,111.1c0,13.1,0,26.1,0.1,39.2c-1.7,0-1.4-1.4-1.6-2.4c-0.2-1.5-0.1-3,0-4.5c-0.2-5.5,0-11-0.1-16.5
		c0-3.3-0.3-3.6-3.5-3.6c-14.4,0-28.8,0-43.2,0c-3.2,0-3.5,0.3-3.6,3.6c-0.1,5.5,0.1,11-0.1,16.5c0.1,1.6,0.2,3.2-0.1,4.8
		c-0.1,0.9-0.1,2.1-1.6,2c0-1.2,0.1-2.5,0.1-3.7c0-0.8,0-1.7,0-2.5c0-1.7,0-3.3,0-5c0-0.6,0-1.2,0-1.9c0-1.9,0-3.7,0-5.6
		c0-1.5,0-2.9,0-4.4c0-1.9,0-3.7,0-5.6c0-0.8,0-1.7,0-2.5c0-1,0-2.1,0-3.1c0-1.5,0-2.9,0-4.4c0.2-1.3,1-1.3,2-1.3
		c16.6,0,33.2,0,49.9,0C281.8,110.4,282.4,110.5,282.8,111.1z"/>
	<path class="st3" d="M318.2,88.1c-28,0-56,0-84,0c1-1.1,2.3-0.6,3.5-0.6c26.8,0,53.6,0,80.5,0c0.2,0.1,0.3,0.3,0.2,0.4
		C318.3,88,318.3,88.1,318.2,88.1z"/>
	<path class="st3" d="M318.2,88.1c0-0.2,0-0.4,0-0.6c26.8,0,53.6,0,80.5,0c1.2,0,2.5-0.5,3.5,0.6C374.2,88.1,346.2,88.1,318.2,88.1z
		"/>
	<path class="st20" d="M108.6,56.3c36.3,0,72.6,0,108.9,0c62,0,124,0,186,0c-0.9,1-2.1,0.6-3.2,0.6c-96.1,0-192.3,0-288.4,0
		C110.7,56.9,109.5,57.4,108.6,56.3z"/>
	<path class="st17" d="M293.3,78.1c-12.6,0-25.3,0-38,0c0.7-0.9,1.7-0.6,2.6-0.6c10.9,0,21.8,0,32.8,0
		C291.6,77.5,292.6,77.2,293.3,78.1z"/>
	<path class="st105" d="M319.9,164c1.3-0.8,2.7-0.6,4.2-0.7c1.6-0.1,3.7,1.1,4-2.3c0.1-1.5,2.8-1.6,4.5-2.1c1.5,1.2,2.9,2.5,4.4,3.7
		c2.9,3.4,6,6.5,9.3,9.3c1.4,1.2,2.9,2.5,4.3,3.7c2,2.5,4.3,4.8,6.9,6.8c2.9,3.5,6.2,6.7,9.9,9.3c3.3,3.8,6.8,7.3,10.6,10.6
		c2.4,2.9,5.1,5.6,8.1,8.1c2.4,2.1,4.9,4.3,6.8,6.8c-1.4,0.9-3,0.5-4.5,0.6c-1.9,0.1-3.4,0.1-2-2.6c0.9-1.7,0-2.5-1.8-2.4
		c-2.7,0.2-5.4-0.3-8,0.5c-1.2,0.4-2.7,0.2-4,0c-0.8-0.1-1.7-0.4-1.9-1.4c-0.1-0.8,0.5-1.2,1.2-1.7c0.8-0.5,1.8-1,1.5-2.1
		c-0.4-1.3-1.7-1.1-2.7-1c-3.6,0.4-7.2-1-10.8-0.7c-0.7,0.1-1.4-0.1-2-0.6c-0.9-0.7,0.7-2.4-1.1-2.4c-2.2-0.1-4.3-0.2-6.3,0.9
		c-2.3,1.3-4.7,2.2-7.4,1c-0.5-0.2-1.4,0-1.3-0.9c0.5-3-1.7-2.8-3.5-2.9c-1.6,0-3.1,0.3-3.4-2c-0.2-1.2-1.6-1.1-2.6-1.1
		c-3.2,0.2-6.4,0.4-9.6,0.6c-1.3-1.3-0.8-2.9-0.9-4.4c-0.3-8.5,0.7-17-1.1-25.3C320.7,167.7,318.9,166,319.9,164z"/>
	<path class="st17" d="M86.8,78.1c27.6,0,55.3,0,82.9,0c1.2,0,2.5-0.5,3.5,0.6c-27.7,0-55.5,0-83.2,0C88.9,78.7,87.7,79.1,86.8,78.1
		z"/>
	<path class="st17" d="M173.9,78.7c0.9-1,2.1-0.6,3.2-0.6c24.6,0,49.2,0,73.8,0c1.1,0,2.3-0.4,3.2,0.6
		C227.4,78.7,200.6,78.7,173.9,78.7z"/>
	<path class="st106" d="M319.9,164c0.1,1.8,1.5,3.1,1.4,4.9c-1.6,1.8-3.7,1.6-5.8,1.6c-9.5,0.1-19,0-28.6,0c-30.9,0-61.9,0-92.8,0
		c-1.3,0-2.7,0.2-4-0.5c0,0-0.2,0.1-0.2,0.1c0.2-0.8,0.4-1.7,0.6-2.5c0.8-1.9,1.7-3.7,2.5-5.6c0.9-1.2,1.8-2.5,2.7-3.7
		c2-1.7,4.1-3.3,6.1-5c5.3-3,11.1-3.4,17.1-3.2c3.4,0.1,6.8,0.1,10.2,0.1c1.6-2.1,0.4-4.6,0.8-6.8c1.2-1.1,2.7-1,4.1-1
		c14.7,0,29.3,0,44,0c1.4,0,2.9-0.1,4.1,1c0.4,2.3-0.8,4.7,0.7,6.8c5.6,0,11.1-0.2,16.7,0.1c7.1,0.4,12.8,3.9,17.5,9.2
		c0.9,0.3,1.5,0.9,1.3,1.9C318.9,162.3,319.4,163.1,319.9,164z"/>
	<path class="st107" d="M189.4,226.2c0-1.2,0-2.5,0-3.7c0-1.5,0-2.9,0-4.4c0-2.1,0-4.1,0-6.2c0-1.7,0-3.3,0-5c0-1.7,0-3.3,0-5
		c0-1.7,0-3.3,0-5c0-1.9,0-3.7,0-5.6c0-1.7,0-3.3,0-5c0-1.5,0-2.9,0-4.4c0-2.1,0-4.1,0-6.2c0.3-1.3-0.3-2.7,0.6-3.8
		c2,3,0.7,6.3,1,9.4c0.1,5,0.1,10,0,15c0.1,7,0.1,14,0,21c0.1,5.5,0.1,11,0,16.5c-0.1,2.1,0.4,4.2-0.5,6.3c-0.2,0.4-0.5,0.5-1,0.3
		c0-1.7-0.1-3.3-0.1-5c0-1.7,0-3.3,0-5C189.4,229.1,189.4,227.6,189.4,226.2z"/>
	<path class="st108" d="M189.4,458.9c0-0.9,0.6-1.5,1.1-2.1c0.6-0.7,2-1.3,1.6-2.4c-0.4-0.9-1.7-0.9-2.7-1.1
		c-0.8-0.1-1.8,0.3-2.2-0.6c-0.5-1.1,0.5-1.7,1.1-2.3c0.9-1,1.9-1.9,2.8-2.9c0.5-0.6,1.6-1.1,1-2c-0.4-0.7-1.3-0.9-2.2-0.9
		c-3.5-0.3-6.9,1-10.4,0.6c-1-0.1-2.3,0.3-2.8-0.9c-0.5-1.4,0.9-1.9,1.7-2.6c0.4-0.4,0.9-0.5,1.3-0.9c0.8-1,2.5-1.6,2.1-3.2
		c-0.5-1.8-2.2-1-3.4-1.2c-0.5-0.1-0.9-0.4-1.4-0.6c2.5-0.1,4.9-0.3,6.9,1.8c0.8,0.8,2.1,0.7,3.3,0.7c3,0,6,0,9,0
		c1.3,0,2.4-0.1,2.7,1.7c0.3,1.7,1.8,1.4,3,1.4c4.8,0,9.5,0,14.3,0c1.4-0.8,2.8-0.3,4.2-0.2c1.5,0.1,2.6,0.8,2.2,2.6
		c-0.4,1.7,0.6,2.2,2,2.3c2.7,0.1,5.4,0,8.1,0.1c1.4,0,2.9-0.1,4,1.2c0.5,1.2-0.3,1.9-0.9,2.7c-1,1.3-0.6,2,0.9,2.3
		c5.7,1.2,5.8,1.5,2.5,6.6c2.7,0.5,5.3,0.9,7.9,1c1.7,0,3.3,0.2,4.8,1.1c2.2,1.2,4.6,0.7,7,0.8c2.3,0.1,4.6-0.2,6.8,0.2
		c2.3,0.5,2.7,1.6,1.3,3.5c-0.8,1.1-1.7,2.1-2.9,2.7c-0.7,0-1.4-0.1-1.9,0.6c-19.9,0.1-39.7-1.7-59.1-6.2
		C198.5,461.7,193.8,460.8,189.4,458.9z"/>
	<path class="st109" d="M190.1,181.4c0-3.1-0.1-6.3-0.1-9.4c0.1-0.6,0.1-1.2,0.2-1.8c1.3-0.8,2.8-0.5,4.2-0.5c39.2,0,78.4,0,117.7,0
		c3.1,0,6.2,0.2,9.2-0.6c0.8,2.5,1.2,5,1.2,7.6c0,7.6,0.1,15.3,0.1,22.9c0,2.3,0,4.6,0,6.8c0.9,1,1,2.2,1,3.5c0,7.2,0,14.4,0,21.6
		c0,1.2-0.1,2.5-1,3.5c-0.4,1.7,0.5,3.5-0.6,5c-1.5-1.7-0.8-3.7-0.9-5.6c-0.1-2.5-0.1-5,0-7.5c-0.1-2.1-0.1-4.3,0-6.4
		c-0.1-7.2-0.1-14.3,0-21.5c-0.1-5.1,0-10.1-0.1-15.2c0-3.5-0.2-3.8-3.6-3.8c-13.7,0-27.3,0-41,0c-2.1,0-4.1,0.4-6.1,1
		c-1.3,0.5-2.4-0.1-3.5-0.6c-8.7-3.6-17.2-3.5-25.3,1.9c-0.9,0.6-1.8,1-2.9,0.6c-2.8-0.5-5.6-0.3-8.4-0.3c-11.8,0-23.6,0-35.4,0
		C193.2,182.4,191.5,182.6,190.1,181.4z"/>
	<path class="st110" d="M189.5,240.5c0.2,0,0.3,0.1,0.5,0.1c1.3,1.5,2.5,3,1,5c-1.9,1.3-4,0.9-6,0.9c-33.6,0-67.1,0-100.7,0
		c-20.4,0-40.8,0-61.2,0c-1.9,0-4,0.5-5.4-1.6c0-1.5,0-2.9,0-4.4C75,240.5,132.2,240.5,189.5,240.5z"/>
	<path class="st111" d="M320.1,437.1c1.3,0.1,3-0.3,2.1,2.1c-0.6,1.6,0.6,1.7,1.7,1.7c3.2,0,6.4,0,9.6,0c2,0,3.5,0.2,1.7,2.8
		c-1.1,1.6-0.1,2.3,1.5,2.2c2.5-0.2,4.8,0.2,6.9,1.9c1,0.8,2.5,0.8,3.9,0.4c1.5-0.5,3-0.8,4.4,0.3c-3.5,2.3-7.5,3.4-11.3,4.9
		c-8.9,3.4-18.1,6.3-27.4,8.4c-0.2,0-0.3,0.3-0.5,0.4c-0.6,0-1.2,0-1.9,0c-2.5,0.3-4.8-1-7.2-1.4c-2-0.4-1.3-2.1-0.7-3.3
		c1.2-2.2,0.4-2.7-1.8-2.6c-3,0.2-6,0.1-9-0.2c-2.8-0.3-3.7-1.9-2.5-4.3c0.8-1.7,0.8-2.4-1.2-2.6c-0.7-0.1-1.5-0.3-1.4-1.3
		c0.5-0.8,1.2-1.4,1.6-2.2c1.1-2.4,3.2-3.3,5.8-3.5c7.2-0.6,14.4-1.7,21.6-1.3C317.7,439.4,319.4,439,320.1,437.1z"/>
	<path class="st112" d="M287.1,446.4c2.7,0.7,6.8,0.4,2.7,5.1c-1.2,1.3,1.1,2.3,2.6,2.3c3.4,0.1,6.8,0.1,10.1,0
		c2.2,0,3.3,0.2,1.7,2.7c-1.9,2.9-1.8,2.9,1.7,3.6c1.7,0.3,3.2,1.2,4.8,1.8c-5.2,2.2-10.9,2.7-16.4,3.5c-10,1.6-20.1,3.1-30.3,2.7
		c0.6-1.8,2.2-2.9,3.4-4.5c-0.8-1.1-1.9-1.1-3-1.1c-2.4,0-4.7,0-7.1,0c-2.4,0-4.5-0.5-6.8-1.3c-3.3-1.1-7.1-0.9-10.6-1.3
		c-0.8-0.1-1.8,0.4-2.2-0.5c-0.3-0.9,0.7-1.3,1.2-2c0.5-0.6,1.1-1.2,1.5-1.9c0.8-1.3,0.4-2.1-1.1-2.4c-0.1,0-0.2,0-0.3,0
		c-1.8-0.2-4.2,0.8-5.1-1.2c-0.9-2,2.2-2.7,2.8-4.4c0.8-1.3,2.1-1.9,3.4-1.9c4.9-0.1,9.7-1.1,14.5-0.8c3.4,0.2,4,1.2,2.6,4.2
		c-0.7,1.5-0.2,1.9,1.2,1.8c2-0.1,3.9-0.8,5.4-2.1c2.4-2.1,5.2-2.7,8.3-2.7c4.3,0,8.7,0.4,13-0.4
		C285.9,445.7,286.6,445.8,287.1,446.4z"/>
	<path class="st113" d="M407.8,381.7c-2.2-0.4-4.5-0.8-6.7-0.6c-1.1,0.1-2.1-0.1-2.6-1.2c0.2-2.1,2.1-2.3,3.4-3.3
		c1.8-1.3,5-1.5,4.4-5c-0.1-0.7,0.9-1,1.6-1.3c2.2-1.2,4.3-2.5,5.6-4.7c1.5,0.2,3.1,0.3,4.6,0.7c1.3,0.3,5-1.4,2.1,2.6
		c-0.9,1.2,0.7,1.8,1.7,1.7c3.4-0.3,6.8,0.6,10.2,0.7c1.4,0,3.1-0.4,2.9,2c0,0.3,0.5,0.9,0.7,0.9c3.3-0.7,5.5,2,8.4,2.7
		c-4.1,5.8-9,10.9-13.7,16.2c-3.4-0.2-6.2-3.1-9.8-2.5c-0.7,0.1-1.5-0.3-1.4-0.9c0.3-3.1-1.8-2.9-3.8-2.8c-1.5,0-2.2-0.6-1.2-2
		c0.5-0.7,0.7-1.5,0.7-2.3c-0.1-0.8-0.4-1.3-1.4-1.1C411.5,381.5,409.6,381.2,407.8,381.7z"/>
	<path class="st114" d="M471.3,293.4c-3-4-7.5-6.5-10.6-10.3c-0.8-1-1.6-1.8-2.4-2.8c0.4-0.2,0.8-0.4,1.2-0.2
		c4.3,2.6,9.1,1.6,13.7,1.8c3.9,0.1,7.9,0,11.8,0c1.3,0,2.7,0,3.8,0.9c-1.7,6.2-3.3,12.4-5,18.7c-0.2,0.6-0.4,1.2-0.6,1.9
		c-2.5-0.3-3.7-2.3-5.4-3.8C475.5,297.5,473.4,295.4,471.3,293.4z"/>
	<path class="st85" d="M488.7,282.8c-6.9,0-13.8-0.2-20.7,0.1c-3.6,0.1-6.8-0.5-9.8-2.6c-4.6-4.4-9.1-8.7-13.7-13.1
		c1.2-0.8,2.6-0.6,3.9-0.6c14.5,0,28.9,0,43.4,0c-0.5,4.6-1.5,9-2.7,13.5C488.9,281,488.8,281.9,488.7,282.8z"/>
	<path class="st82" d="M203.1,255.5c-1.4,1.4-3.2,1.1-5,1.1c-59.7,0-119.4,0-179.1,0c0-0.2,0-0.4,0-0.6c-0.7-0.9,0.1-2.2-0.6-3.1
		c0-0.6,0-1.2,0-1.9c0,0,0,0,0,0c1.7-1.4,3.8-1,5.7-1c39.4,0,78.8,0,118.2,0c18,0,36.1-0.1,54.1,0.1c0.4,0,0.8,0.1,1.2,0.4
		C198.9,252.7,201.5,253.6,203.1,255.5z"/>
	<path class="st91" d="M18.4,252.9c1,0.9,0.5,2.1,0.6,3.1C17.9,255.2,18.5,254,18.4,252.9z"/>
	<path class="st93" d="M196.9,250.4c-1.1,1.2-2.5,0.7-3.8,0.7c-58.2,0-116.5,0-174.7,0c0.2-2.1-0.3-4.2-0.6-6.2
		c1.2,0.8,2.6,0.6,3.9,0.6c16.6,0,33.1,0,49.7,0c26.4,0,52.8,0,79.2,0c12.3,0,24.6,0,36.9,0c1.3,0,2.7,0.1,3.9-0.6
		C194.2,245.7,195.8,247.8,196.9,250.4z"/>
	<path class="st115" d="M331.3,262.3c0.7,0.9,1.7,0.6,2.6,0.6c1.5,0,3.1-0.3,3.8,1.8c0.4,1.1,1.6,0.6,2.5,0.8
		c1.8,0.6,3.7,1.1,3.3,3.7c-0.2,1.1,0.6,1.2,1.3,1.2c2.4-0.1,2.3,1,1.4,2.7c-1.1,2.1-0.4,3,2,3c3.3,0,3.5,0.6,1.8,3.7
		c-1.7,3-1.6,3.1,1.8,3.1c3.1,0.1,6.1,0.8,9.2,0.7c1.9-0.1,2.3,0.9,1.1,2.6c-0.6,0.9-1.6,1.7-1.6,3c-2.1,0.2-4.3,0.6-6.4,0.6
		c-2.8,0-3.5-1.1-2-3.4c1.5-2.3,0.4-2.7-1.6-2.8c-3.4-0.2-6.7,0.9-10.2,0.7c-2.6-0.1-4.4-0.3-2.6-3.3c-5.1-1.7-10.5-1.1-15.5-2.8
		c-1.2-0.4-2.2-0.1-2.8,1.2c-3.8-6.4-7.5-12.8-11.3-19.1c-0.5-0.9-0.7-2.3-2.2-2.2c2.5-3.1,5.8-5.3,8.6-8c0.4-0.4,0.8-0.4,1.2-0.2
		c3.4,0.9,6.8,1.8,10.3,2.1c0.9,0.1,2.1-0.5,2.5,0.5c0.4,0.9-0.5,1.7-1,2.4c-2.6,3.9-2.6,4,2,5.1
		C330.9,260.1,330.6,261.5,331.3,262.3z"/>
	<path class="st116" d="M279.6,321.4c1.3-1,3-2.5,2.6-3.8c-0.6-1.9-3-1.1-4.7-1.2c-2.4-0.1-4.8,0.1-7.1-0.1c-2-0.1-3.3-0.6-1.3-2.9
		c2.7-3.3,2.5-3.6-1.4-4.5c-0.8-0.2-1.4-0.5-1.7-1.2c-0.6-1.4-1.5-2-3.1-1.9c-2.2,0.1-2.2-0.8-1.1-2.4c2.5-4.1,2-5-2.9-5
		c-2.3,0-4.5,0.1-6.8,0c-0.9,0-2.4,0.7-2.6-0.8c-0.1-1.1,1.1-1.6,2.2-1.7c0.6,0,1.2,0.1,1.8,0.1c1.6,0.4,3.3,0.4,4.9,0
		c4.3-0.2,7.4-2.8,10.5-5.4c2.5-2.1,4.9-4.3,7.4-6.5c5,9.8,10.9,19.1,16.3,28.7c2.1,3.7,4.1,7.4,6.2,11c-5.4,0.4-10.8-0.6-16.3-0.6
		C281.1,323.2,280.3,322.5,279.6,321.4z"/>
	<path class="st117" d="M322.6,234.9c0-9.5,0-19.1,0-28.6c1.1,0,2.3-0.1,3.4,0.1c1.1,0.1,1.8,0.8,1,1.9c-1.4,2,0,3,1.5,2.8
		c3.4-0.4,6.3,1.7,9.7,1.4c2.1-0.1,2.2,1.2,1.3,2.6c-0.6,0.9-2,1.7-1.4,2.9c0.7,1.3,2.3,0.6,3.4,0.7c1.8,0.1,3.8-0.2,3.3,2.6
		c-0.1,0.9,0.3,1.1,1,1.1c2.4-0.1,2.7,1.1,1.7,2.9c-1.4,2.4,0.2,3,1.9,3.2c1.8,0.2,3.4,0.2,3,2.7c-0.1,0.5,0.3,1.2,0.8,1.2
		c2.8,0.2,4.6,2.8,7.6,2.6c1.7-0.1,5-0.5,2.7,3.3c-0.8,1.3,0.5,1.6,1.5,1.6c2.2-0.1,4,0,3.6,3c-0.2,1.3,0.9,1.3,1.9,1.4
		c3.2,0.4,3.6,1.2,1.9,3.8c-0.4,0.6-1.4,0.9-0.9,1.8c0.5,0.9,1.4,0.7,2.3,0.6c3.3-0.1,6.5,0.9,9.9,0.7c3.2-0.2,2,2,1.7,3.7
		c-2.5,0.6-5.1,0.7-7.7,0.6c-1.5,0-2.6-0.1-1.6-2c1.2-2.3-0.3-2.3-1.9-2.4c-1.7-0.1-4.2,0.8-4-2.5c0-0.5-0.6-0.6-1-0.5
		c-2.5,0.4-4.6-0.8-6.6-2.1c-1.6-0.9-3.5-0.7-5.2-0.3c-2.7,0.7-5.4,0.3-8,0.4c-0.6,0-1.3,0.1-1.6-0.6c-0.4-0.8,0.2-1.4,0.7-1.9
		c0.3-0.4,0.7-0.7,1.1-1.1c0.5-0.5,1.2-1,0.7-1.8c-0.4-0.7-1.2-0.8-1.9-0.8c-1.6,0-3.2-0.2-4.7,0.1c-5.5,1.1-10.9,0.3-16.4,0.5
		c-2,0.1-2.7-0.7-1.7-2.6c1.6-2.9,1.7-2.9-1.7-3C323.4,234.9,323,234.9,322.6,234.9z"/>
	<path class="st118" d="M315.7,249.6c-0.4,0.1-0.8,0.1-1.2,0.2c-1.1-1.3-2.5-1.2-4-1.2c-36.3,0-72.7,0-109,0c-1.6,0-3.4-0.3-4,1.9
		c-0.2,0-0.4-0.1-0.6-0.1c-1.9-1.9-3.7-3.7-5.6-5.6c-0.3-1.5-1.6-2.6-1.4-4.3c0-2.1,0.1-4.2,0.1-6.3c1.2-1.1,2.7-1,4.1-1
		c41.2,0,82.4,0,123.6,0c1.4,0,2.9-0.1,4.1,1c0,1.9,0,3.8,0.1,5.7c0,3.2-2.1,5.2-4,7.3C317.2,248,316.4,248.8,315.7,249.6z"/>
	<path class="st119" d="M267.8,407.8c-0.7,1.2-2.3,2.6-2.1,3.6c0.4,1.6,2.6,0.2,3.8,1c0.3,0.2,0.7,0.1,0.9,0.3c3.3,4.2,7.9,2,12,2.5
		c1.9,0.2,4.3-0.5,2.5,3c-0.7,1.4-0.3,3.2,2.2,2.7c0.5-0.1,1,0,1.6,0c0.9,0,2.1-0.2,2.5,0.8c0.6,1.3-0.7,1.7-1.5,2.3
		c-8.3,0.7-16.5,3-24.9,2.2c-2.3-0.2-4.3,0.4-5.6,2.6c-1.2,2-3.3,2.4-5.4,2.7c-4.2-0.1-8.4-0.9-12.6-1.2c-1.7-0.1-3.3-0.8-2.6-3.2
		c0.4-1.1-0.2-1.5-1.2-1.6c-1.2-0.1-2.5,0-3.1-1.5c1.6-2.4,1-3.1-1.9-3.2c-3.5-0.1-6.9-0.9-10.4-0.3c-0.5,0.1-1.3-0.2-1.6-0.7
		c-0.4-0.6,0.3-1.1,0.7-1.5c0.3-0.4,0.7-0.7,1.1-1.1c1-1,2.5-2.2,2-3.6c-0.5-1.6-2.4-0.6-3.6-0.8c-0.8-0.1-1.8,0-2.1-1
		c-0.4-1,0.7-1.4,1.1-2c0.9-1.4,3.5-2.1,2.6-4.1c-0.8-2-3.1-0.9-4.8-1c-2.1-0.2-4.1,0-6.2-0.1c-1.2,0-2.8,0.5-3.3-0.9
		c-0.4-1.1,0.8-1.9,1.5-2.8c1.8-0.8,3.3-2.1,5.5-1.9c1.7,0.2,4.6-1,3.4,2.9c-0.3,1.2,1.1,1.4,2.2,1.5c2.9,0.4,5.5-0.8,8.2-1.4
		c2.6-0.6,5.2-1.3,7.5,0.9c0.7,0.7,1.8,0.3,2.7,0.4c1.5,0.3,3.4,0.1,3.6,2.5c0.1,1.3,1.2,1.2,2.1,1.2c2.7,0.2,5.3-0.1,7.8-1.2
		c4.4,0,8.8,0,13.2,0C266.8,406,268,406,267.8,407.8z"/>
	<path class="st120" d="M234.2,424c1.4,0.9,3,0.6,4.5,0.6c1.6,0.1,2.2,0.8,1.1,2.1c-2.2,2.5-0.1,2.8,1.5,2.8
		c4.1,0.2,8.1,0.8,12.2,1.3c0.7,0.8,0.2,1.6-0.3,2.3c-1.6,2.1-0.3,2.4,1.5,2.5c3,0.1,6,0,9,0c2,0,3.8,0.3,4.2,2.8
		c0.2,0.9,0.8,1.4,1.7,1.6c1.4,0.4,2.2,1.2,1.8,2.7c-0.5,1.9,0.6,2.1,2,2.1c3,0,6-0.1,9,0.1c1.1,0.1,2.6-0.3,2.9,1.4
		c-3.7,1.3-7.6,0.6-11.3,0.6c-3.9,0-7.6,0.1-10.5,3.4c-1.1,1.3-3,1.2-4.6,1.6c-1.2,0.3-2.8,0.4-3.4-0.7c-0.7-1.2,0.7-1.9,1.4-2.8
		c0.4-0.5,1.2-1,0.7-1.8c-0.4-0.7-1.2-0.8-1.9-0.8c-6.3,0.2-12.7,0-18.9,1.9c-3.7-1.3-7.6-0.4-11.4-0.6c-3.8-0.2-3.9,0-3.3-3.9
		c0.2-1.2-0.6-1.1-1.3-1.1c-1.6,0.1-3.1-0.2-4.6-0.7c0.8-1.5,3.6-2,2.7-4c-0.8-1.9-3.1-0.8-4.8-0.9c-2.7-0.2-5.4,0-8-0.1
		c-0.5,0-1.1,0.1-1.4-0.5c-0.3-0.6,0.2-1,0.5-1.3c0.7-0.7,1.4-1.5,2.2-2.2c3.3-3.3,3.2-3.9-1.3-6.2c3.1-0.3,5.5-1.2,7.6-2.9
		c1.2,0.9,2.4,1.4,4,1.3C223.2,424.3,228.7,425.3,234.2,424z"/>
	<path class="st83" d="M258.4,296c-1.6,0.8-3.3,0.8-4.9,0C255.2,295.9,256.8,296,258.4,296z"/>
	<path class="st121" d="M285.2,446.4c-3.3-1.3-6.7-0.3-10-0.6c-1-0.1-2.1,0-3.1,0c-2.1,0.1-3.1-0.6-1.8-2.7c1-1.6,0.6-2.3-1.2-2.3
		c-1.6,0-2.6-0.3-2-2.4c0.5-1.7-1-2-2.3-2c-3.4,0-6.8,0-10.2,0c-1.3,0-3,0.3-3.6-1.1c-0.5-1.2,1.1-1.8,1.8-2.6
		c0.5-0.6,0.9-1.1,0.9-1.9c2.3-0.7,4.7-1.1,5.7-4c0.5-1.3,2.3-1.6,3.8-1.6c2.7,0,5.4,0,8.1,0c3.7,0.1,7.4-0.1,11-1.4
		c2.4-0.8,5-1,7.5,0.2c0.3,1.7-2.6,2.8-1.2,4.4c1.2,1.4,3.4,0.6,5.1,0.6c8.6-0.3,17,1.1,25.4,2.5c-0.2,0.3-0.5,0.7-0.7,1
		c-0.8,1.1-2.8,1.7-2.2,3.4c0.7,1.9,2.7,0.9,4.1,1.1c0.4,0.6,1.4,1.1,0.2,1.9c-1.2,0.9-2.6,1.3-4.1,1.2c-7.6-0.7-15.1,1-22.7,1.3
		c-2.1,0.1-3.9,1.1-4.3,3.3c-0.3,1.5-1.2,1.4-2.1,1.7C286.5,446.4,285.9,446.4,285.2,446.4z"/>
	<path class="st88" d="M407.8,381.7c2.2-2.3,4.9-1,7.4-1c0.7,0-0.5,1-0.5,1.7C412.4,382,410,383,407.8,381.7z"/>
	<path class="st105" d="M318.3,161.4c-0.4-0.6-0.9-1.3-1.3-1.9c0.6-0.6,1.3-1.3,2-0.5C319.9,160,319.3,160.8,318.3,161.4z"/>
	<path class="st122" d="M282.1,143.4c-17.4,0-34.8,0-52.2,0c0-6.1,0-12.2-0.1-18.3c0-2.1,0.5-2.9,2.7-2.9c15.6,0.1,31.2,0.1,46.8,0
		c2.3,0,2.8,0.8,2.7,2.9C282.1,131.2,282.1,137.3,282.1,143.4z"/>
	<path class="st123" d="M321.9,234.3c-44,0-87.9,0-131.9,0c0-5.6,0-11.2,0-16.8c0.9-0.8,2-1,3.2-1c12.7,0,25.5-0.1,38.2,0
		c0.4,0,0.8,0.1,1.2,0.2c1.5,0.3,2.4,1.5,3.3,2.6c7.7,9.2,19.9,12,30.8,7.1c1.6-0.7,3.1-1.7,5-1.1c1.9,0.5,3.9,0.5,5.8,0.5
		c13.1,0,26.2,0,39.3,0c1.7,0,3.5-0.3,5,1C321.9,229.3,321.9,231.8,321.9,234.3z"/>
	<path class="st124" d="M233.5,217.5c-14.5,0-28.9,0-43.4,0c0-7.1,0-14.1,0-21.2c1.2-1.1,2.7-1,4.1-1c10.2,0,20.4,0,30.6,0
		c1.8,0,3.7-0.1,5.2,1.4c0.4,0.5,0.5,1.1,0.4,1.8c-0.7,5.8,0.3,11.4,2.9,16.6C233.7,215.8,234,216.7,233.5,217.5z"/>
	<path class="st125" d="M229.9,197.6c-1.1-1.4-2.7-1.3-4.2-1.3c-11.9,0-23.7,0-35.6,0c0-5,0-10,0-14.9c15.3,0,30.7,0,46,0
		c1.1,0,2.6-0.7,3.1,1.1c0,0.4-0.1,0.8-0.4,1.1c-3.8,3.8-6.9,8-7.9,13.4C230.8,197.5,230.3,197.7,229.9,197.6z"/>
	<path class="st126" d="M269.7,180.7c1.2-2,3.4-1.7,5.2-1.7c14.9-0.1,29.8,0,44.7-0.1c2,0,2.5,0.8,2.4,2.6c-0.1,5.8,0,11.6,0,17.4
		c-1.4,1.2-3.1,0.9-4.8,0.9c-9.5,0-19,0-28.6,0c-1.7,0-3.6-0.2-5,1.1c-1,0.8-1.9,0.6-2-0.6c-1-8-5.7-13.8-11.6-18.7
		C269.8,181.3,269.7,181,269.7,180.7z"/>
	<path class="st127" d="M282.7,201.4c-0.1-2.5,1.6-2.7,3.5-2.7c11.9,0,23.8,0,35.7,0c0,7.3,0,14.5,0,21.8c-0.9,0.8-2,1-3.2,1
		c-13.1,0-26.2,0.1-39.3,0c-0.7,0-1.4-0.1-2.1-0.3c-1.1-0.4-1.4-1.4-0.8-2.2c3.7-5.2,4.8-11.3,6-17.3
		C282.5,201.6,282.6,201.5,282.7,201.4z"/>
	<path class="st128" d="M282.7,201.4c0.1,7.1-2,13.5-6.4,19c-0.9,2.7-2.9,4.1-5.5,4.8c-8.8,5.1-17.8,6-27.1,1.4
		c-4.3-2.1-7.5-5.4-10.2-9.2c-3.1-5.2-4.2-10.9-4.2-16.9c0-1.1,0.8-1.9,0.6-2.9c1.5-6,4.4-11.2,9.3-15.1c8.2-5.8,17.1-7.2,26.6-3.6
		c1.3,0.5,2.6,1.2,3.9,1.8C277.2,185.6,281.5,192.6,282.7,201.4z"/>
	<path class="st123" d="M270.8,225.3c1.8-1.6,3.6-3.2,5.5-4.8c15.2,0,30.4,0.1,45.6,0.1c0,2.1,0,4.1,0,6.2c-15.6,0-31.1,0-46.7,0
		C273.6,226.8,271.9,227,270.8,225.3z"/>
	<path class="st88" d="M420.7,372.4c0.7,0.1,2.2-0.4,2.4,1.1c0.1,1.4-1.4,1.6-2.4,1.9c-1.7,0.4-3.3,1.2-5.1,0.5
		c-0.5-0.2-1.3-0.4-1.2-1.2c0.1-0.4,0.6-0.9,1-1.1C416.9,372.9,418.5,372.2,420.7,372.4z"/>
	<path class="st129" d="M256.1,180.8c12.1,0,22.5,10.2,22.3,22.6c-0.2,13.4-10.1,22.5-22.4,22.5c-12.1,0-22.8-9.1-22.4-23.4
		C233.9,190.9,243.5,180.7,256.1,180.8z"/>
	<path class="st130" d="M256.1,185.1c9.8-0.9,18.5,7.8,18.4,18c-0.1,10.7-7.8,18.5-18.5,18.5c-10.2,0-18.1-7.4-18.4-18.3
		C237.2,193.5,245.7,184.2,256.1,185.1z"/>
	<path class="st131" d="M240.4,203.1c0-9.3,6.4-15.5,15.9-15.5c9,0,15.1,6.5,15.2,15.9c0.1,8.8-6.6,15.5-15.5,15.6
		C247.7,219.2,240,212.9,240.4,203.1z"/>
	<path class="st132" d="M255.9,216.8c-7.9,0-13.6-5.8-13.6-13.8c0-7.4,6.3-13.6,13.6-13.6c7.6,0,13.7,6.2,13.8,13.8
		C269.7,211.5,262.5,217.6,255.9,216.8z"/>
	<path class="st133" d="M267.8,203.1c-0.9,6.7-4.3,11.6-11.7,11.7c-6.9,0.1-11.4-4.3-11.7-11.5c-0.2-5.6,3.7-10.9,10.7-11.4
		C263.6,191.4,266.9,197.4,267.8,203.1z"/>
	<path class="st134" d="M264.1,203.4c-0.1,4.5-3.7,7.9-8.2,7.8c-4.6-0.1-8.1-3.7-7.9-8.5c0.1-4.3,3.7-7.7,8.1-7.7
		C260.7,195.1,264.2,198.7,264.1,203.4z"/>
	<path class="st135" d="M256.1,198.8c2.6,0,4.7,1.9,4.7,4.3c0.1,2.2-2.5,5-4.7,5c-2.2,0.1-4.8-2.6-4.9-4.9
		C251.1,200.7,253.3,198.8,256.1,198.8z"/>
</g>
</svg>
