<?xml version="1.0" encoding="utf-8"?>
<!-- Generator: Adobe Illustrator 22.1.0, SVG Export Plug-In . SVG Version: 6.00 Build 0)  -->
<svg version="1.1" id="Layer_1" xmlns="http://www.w3.org/2000/svg" xmlns:xlink="http://www.w3.org/1999/xlink" x="0px" y="0px"
	 viewBox="0 0 512 512" style="enable-background:new 0 0 512 512;" xml:space="preserve">
<g id="XMLID_228_">
	<path id="XMLID_229_" d="M73.9,190.2c-42,72.9-15.3,183.6,31.2,250.7c23.2,33.5,46.7,63.7,78.8,63.7c0.6,0,1.2,0,1.8,0
		c15.1-0.6,26-5.3,36.6-9.8c11.9-5.1,24.1-10.3,43.3-10.3c18.3,0,30,5.1,41.3,9.9c11.1,4.8,22.6,9.8,39.5,9.5
		c36.2-0.7,58.5-33.2,78.1-61.8c20.5-29.9,30.8-59,34.2-70.1l0.1-0.4c0.7-2-0.3-4.1-2.2-5c-0.1,0-0.2-0.1-0.3-0.1
		c-6.4-2.6-62.3-27.4-62.9-95.1c-0.5-55,42-84.1,50.5-89.4l0.4-0.2c0.9-0.6,1.6-1.5,1.8-2.6c0.2-1.1,0-2.2-0.6-3.1
		c-29.4-43-74.3-49.4-92.5-50.2c-2.6-0.3-5.3-0.4-8.1-0.4c-21.3,0-41.7,8-58,14.5c-11.3,4.5-21.1,8.3-27.8,8.3
		c-7.6,0-17.4-3.9-28.8-8.4c-15.2-6-32.4-12.9-50.7-12.9c-0.4,0-0.9,0-1.3,0C136.1,127.5,96,151.8,73.9,190.2z"/>
	<path id="XMLID_230_" d="M353.1,7.5c-25.7,1-56.5,16.9-74.9,38.4c-15.7,18.1-30.9,48.4-26.9,78.8c0.3,1.9,1.8,3.4,3.7,3.5
		c1.7,0.1,3.5,0.2,5.3,0.2c25.1,0,52.2-13.9,70.7-36.3c19.5-23.6,29.3-53.9,26.3-81.1C357.1,9,355.2,7.4,353.1,7.5z"/>
</g>
</svg>
