<?xml version="1.0" encoding="utf-8"?>
<!-- Generator: Adobe Illustrator 22.1.0, SVG Export Plug-In . SVG Version: 6.00 Build 0)  -->
<svg version="1.1" id="Layer_1" xmlns="http://www.w3.org/2000/svg" xmlns:xlink="http://www.w3.org/1999/xlink" x="0px" y="0px"
	 viewBox="0 0 512 512" style="enable-background:new 0 0 512 512;" xml:space="preserve">
<style type="text/css">
	.st0{display:none;fill:#303030;}
	.st1{fill:#252F3E;}
	.st2{fill:#FF9900;}
</style>
<rect x="0" y="0" class="st0" width="512" height="512"/>
<g>
	<path class="st1" d="M145.7,214.7c0,6.2,0.7,11.3,1.8,15c1.3,3.7,3,7.7,5.4,12.1c0.8,1.3,1.2,2.7,1.2,3.9c0,1.7-1,3.4-3.2,5
		l-10.6,7.1c-1.5,1-3,1.5-4.4,1.5c-1.7,0-3.4-0.8-5-2.4c-2.4-2.5-4.4-5.2-6.1-7.9c-1.7-2.9-3.4-6.1-5.2-9.9
		c-13.1,15.5-29.6,23.2-49.4,23.2c-14.1,0-25.4-4-33.6-12.1c-8.2-8.1-12.4-18.8-12.4-32.3c0-14.3,5-25.9,15.3-34.6
		c10.3-8.7,23.9-13.1,41.2-13.1c5.7,0,11.6,0.5,17.8,1.3c6.2,0.8,12.6,2.2,19.3,3.7v-12.3c0-12.8-2.7-21.7-7.9-26.9
		c-5.4-5.2-14.5-7.7-27.4-7.7c-5.9,0-11.9,0.7-18.2,2.2c-6.2,1.5-12.3,3.4-18.2,5.7c-2.7,1.2-4.7,1.8-5.9,2.2
		c-1.2,0.3-2,0.5-2.7,0.5c-2.4,0-3.5-1.7-3.5-5.2v-8.2c0-2.7,0.3-4.7,1.2-5.9c0.8-1.2,2.4-2.4,4.7-3.5c5.9-3,12.9-5.5,21.2-7.6
		c8.2-2.2,17-3.2,26.2-3.2c20,0,34.6,4.5,44.1,13.6c9.2,9.1,14,22.9,14,41.4v54.5H145.7z M77.4,240.2c5.5,0,11.3-1,17.3-3
		c6.1-2,11.4-5.7,16-10.8c2.7-3.2,4.7-6.7,5.7-10.8s1.7-8.9,1.7-14.6V194c-4.9-1.2-10.1-2.2-15.5-2.9s-10.6-1-15.8-1
		c-11.3,0-19.5,2.2-25.1,6.7c-5.5,4.5-8.2,10.9-8.2,19.3c0,7.9,2,13.8,6.2,17.8C63.8,238.2,69.7,240.2,77.4,240.2z M212.5,258.4
		c-3,0-5-0.5-6.4-1.7c-1.3-1-2.5-3.4-3.5-6.6l-39.5-130c-1-3.4-1.5-5.5-1.5-6.7c0-2.7,1.3-4.2,4-4.2H182c3.2,0,5.4,0.5,6.6,1.7
		c1.3,1,2.4,3.4,3.4,6.6l28.2,111.3l26.2-111.3c0.8-3.4,1.8-5.5,3.2-6.6c1.3-1,3.7-1.7,6.7-1.7h13.5c3.2,0,5.4,0.5,6.7,1.7
		c1.3,1,2.5,3.4,3.2,6.6l26.6,112.7l29.1-112.7c1-3.4,2.2-5.5,3.4-6.6c1.3-1,3.5-1.7,6.6-1.7h15.6c2.7,0,4.2,1.3,4.2,4.2
		c0,0.8-0.2,1.7-0.3,2.7c-0.2,1-0.5,2.4-1.2,4.2l-40.5,130c-1,3.4-2.2,5.5-3.5,6.6c-1.3,1-3.5,1.7-6.4,1.7h-14.5
		c-3.2,0-5.4-0.5-6.7-1.7c-1.3-1.2-2.5-3.4-3.2-6.7l-26.1-108.5L236.8,250c-0.8,3.4-1.8,5.5-3.2,6.7c-1.3,1.2-3.7,1.7-6.7,1.7H212.5
		z M428.5,262.9c-8.7,0-17.5-1-25.9-3s-15-4.2-19.3-6.7c-2.7-1.5-4.5-3.2-5.2-4.7c-0.7-1.5-1-3.2-1-4.7v-8.6c0-3.5,1.3-5.2,3.9-5.2
		c1,0,2,0.2,3,0.5c1,0.3,2.5,1,4.2,1.7c5.7,2.5,11.9,4.5,18.5,5.9c6.7,1.3,13.3,2,20,2c10.6,0,18.8-1.8,24.5-5.5
		c5.7-3.7,8.7-9.1,8.7-16c0-4.7-1.5-8.6-4.5-11.8c-3-3.2-8.7-6.1-17-8.7l-24.4-7.6c-12.3-3.9-21.4-9.6-26.9-17.2
		c-5.5-7.4-8.4-15.6-8.4-24.4c0-7.1,1.5-13.3,4.5-18.7c3-5.4,7.1-10.1,12.1-13.8c5-3.9,10.8-6.7,17.5-8.7s13.8-2.9,21.2-2.9
		c3.7,0,7.6,0.2,11.3,0.7c3.9,0.5,7.4,1.2,10.9,1.8c3.4,0.8,6.6,1.7,9.6,2.7c3,1,5.4,2,7.1,3c2.4,1.3,4,2.7,5,4.2
		c1,1.3,1.5,3.2,1.5,5.5v7.9c0,3.5-1.3,5.4-3.9,5.4c-1.3,0-3.5-0.7-6.4-2c-9.6-4.4-20.3-6.6-32.3-6.6c-9.6,0-17.2,1.5-22.4,4.7
		c-5.2,3.2-7.9,8.1-7.9,15c0,4.7,1.7,8.7,5,11.9c3.4,3.2,9.6,6.4,18.5,9.2l23.9,7.6c12.1,3.9,20.8,9.2,26.1,16.1
		c5.2,6.9,7.7,14.8,7.7,23.5c0,7.2-1.5,13.8-4.4,19.5c-3,5.7-7.1,10.8-12.3,14.8c-5.2,4.2-11.4,7.2-18.7,9.4
		C445,261.7,437.1,262.9,428.5,262.9z"/>
	<g>
		<path class="st2" d="M460.3,344.6c-55.3,40.9-135.7,62.5-204.8,62.5c-96.8,0-184.1-35.8-250-95.3c-5.2-4.7-0.5-11.1,5.7-7.4
			c71.3,41.4,159.2,66.4,250.2,66.4c61.4,0,128.8-12.8,190.8-39C461.5,327.7,469.4,337.9,460.3,344.6z"/>
		<path class="st2" d="M483.3,318.4c-7.1-9.1-46.7-4.4-64.7-2.2c-5.4,0.7-6.2-4-1.3-7.6c31.6-22.2,83.6-15.8,89.6-8.4
			c6.1,7.6-1.7,59.5-31.3,84.4c-4.5,3.9-8.9,1.8-6.9-3.2C475.4,364.8,490.4,327.3,483.3,318.4z"/>
	</g>
</g>
</svg>
