<?xml version="1.0" encoding="utf-8"?>
<!-- Generator: Adobe Illustrator 22.1.0, SVG Export Plug-In . SVG Version: 6.00 Build 0)  -->
<svg version="1.1" id="Layer_1" xmlns="http://www.w3.org/2000/svg" xmlns:xlink="http://www.w3.org/1999/xlink" x="0px" y="0px"
	 viewBox="0 0 512 512" style="enable-background:new 0 0 512 512;" xml:space="preserve">
<style type="text/css">
	.st0{fill:#563D7C;}
	.st1{fill:#FFFFFF;}
</style>
<g>
	<path class="st0" d="M12,437.1c0,34.8,28.2,62.9,62.9,62.9h362.2c34.8,0,62.9-28.2,62.9-62.9V74.9c0-34.8-28.2-62.9-62.9-62.9H74.9
		C40.2,12,12,40.2,12,74.9V437.1z"/>
	<path class="st1" d="M214.4,227.9v-69.1h60.8c5.8,0,11.4,0.5,16.8,1.4c5.4,1,10.1,2.7,14.3,5.2c4.1,2.5,7.4,5.9,9.9,10.3
		c2.5,4.4,3.7,10.1,3.7,17c0,12.4-3.7,21.4-11.2,26.9c-7.4,5.5-17,8.3-28.6,8.3H214.4L214.4,227.9z M149.4,108.3v295.5h143.2
		c13.2,0,26.1-1.7,38.7-5c12.6-3.3,23.7-8.4,33.5-15.3c9.8-6.9,17.6-15.8,23.4-26.7c5.8-10.9,8.7-23.8,8.7-38.7
		c0-18.5-4.5-34.3-13.4-47.4c-9-13.1-22.6-22.3-40.8-27.5c13.2-6.3,23.2-14.5,30-24.4c6.8-9.9,10.1-22.3,10.1-37.2
		c0-13.8-2.3-25.4-6.8-34.8c-4.6-9.4-11-16.9-19.2-22.6s-18.2-9.7-29.8-12.2c-11.6-2.5-24.4-3.7-38.5-3.7H149.4L149.4,108.3z
		 M214.4,353.2v-81.1h70.8c14.1,0,25.4,3.2,33.9,9.7c8.6,6.5,12.8,17.3,12.8,32.5c0,7.7-1.3,14.1-3.9,19c-2.6,5-6.1,8.9-10.6,11.8
		c-4.4,2.9-9.5,5-15.3,6.2c-5.8,1.2-11.9,1.9-18.2,1.9H214.4L214.4,353.2z"/>
</g>
</svg>
