<?xml version="1.0" encoding="utf-8"?>
<!-- Generator: Adobe Illustrator 22.1.0, SVG Export Plug-In . SVG Version: 6.00 Build 0)  -->
<svg version="1.1"
	 id="svg3476" inkscape:version="0.91 r13725" sodipodi:docname="CSS3.svg" xmlns:cc="http://creativecommons.org/ns#" xmlns:dc="http://purl.org/dc/elements/1.1/" xmlns:inkscape="http://www.inkscape.org/namespaces/inkscape" xmlns:rdf="http://www.w3.org/1999/02/22-rdf-syntax-ns#" xmlns:sodipodi="http://sodipodi.sourceforge.net/DTD/sodipodi-0.dtd" xmlns:svg="http://www.w3.org/2000/svg"
	 xmlns="http://www.w3.org/2000/svg" xmlns:xlink="http://www.w3.org/1999/xlink" x="0px" y="0px" viewBox="0 0 512 512"
	 style="enable-background:new 0 0 512 512;" xml:space="preserve">
<style type="text/css">
	.st0{fill:#264DE4;}
	.st1{fill:#2965F1;}
	.st2{fill:#EBEBEB;}
	.st3{fill:#FFFFFF;}
</style>
<g>
	
		<sodipodi:namedview  bordercolor="#666666" borderopacity="1.0" fit-margin-bottom="0" fit-margin-left="0" fit-margin-right="0" fit-margin-top="0" id="base" inkscape:current-layer="layer1" inkscape:cx="181.367" inkscape:cy="256" inkscape:document-units="px" inkscape:pageopacity="0.0" inkscape:pageshadow="2" inkscape:window-height="704" inkscape:window-maximized="1" inkscape:window-width="1366" inkscape:window-x="0" inkscape:window-y="27" inkscape:zoom="0.35" pagecolor="#ffffff" showgrid="false">
		</sodipodi:namedview>
	<polygon id="polygon2989" class="st0" points="473.1,9.8 433.5,452.9 255.7,502.2 78.4,453 38.9,9.8 	"/>
	<polygon id="polygon2991" class="st1" points="399.7,424.7 433.5,46 256,46 256,464.5 	"/>
	<polygon id="polygon2993" class="st2" points="129.5,210.4 134.4,264.8 256,264.8 256,210.4 	"/>
	<polygon id="polygon2995" class="st2" points="256,100.4 255.8,100.4 119.7,100.4 124.6,154.7 256,154.7 	"/>
	<polygon id="polygon2997" class="st2" points="256,408.1 256,351.6 255.8,351.6 195.2,335.3 191.4,291.9 161.9,291.9 136.8,291.9 
		144.4,377.3 255.7,408.2 	"/>
	<polygon id="polygon3005" class="st3" points="322.7,264.8 316.4,335.3 255.8,351.6 255.8,408.2 367.2,377.3 368.1,368.1 
		380.8,225 382.2,210.4 392,100.4 255.8,100.4 255.8,154.7 332.4,154.7 327.5,210.4 255.8,210.4 255.8,264.8 	"/>
</g>
</svg>
