<?xml version="1.0" encoding="utf-8"?>
<!-- Generator: Adobe Illustrator 22.1.0, SVG Export Plug-In . SVG Version: 6.00 Build 0)  -->
<svg version="1.1" id="Layer_1" xmlns="http://www.w3.org/2000/svg" xmlns:xlink="http://www.w3.org/1999/xlink" x="0px" y="0px"
	 viewBox="0 0 512 512" style="enable-background:new 0 0 512 512;" xml:space="preserve">
<style type="text/css">
	.st0{fill:url(#SVGID_1_);}
	.st1{fill:url(#SVGID_2_);}
	.st2{fill:#14559A;}
	.st3{fill:url(#SVGID_3_);}
	.st4{fill:#3092C4;}
	.st5{fill:#1969BC;}
	.st6{fill:url(#SVGID_4_);}
	.st7{fill:url(#SVGID_5_);}
	.st8{fill:url(#SVGID_6_);}
	.st9{fill:#2B74B1;}
	.st10{fill:#125A9E;}
	.st11{fill:url(#SVGID_7_);}
	.st12{fill:url(#SVGID_8_);}
	.st13{fill:#0D82CA;}
	.st14{fill:url(#SVGID_9_);}
	.st15{fill:#127BCA;}
	.st16{fill:url(#SVGID_10_);}
	.st17{fill:url(#SVGID_11_);}
	.st18{fill:#05A1E6;}
	.st19{fill:url(#SVGID_12_);}
	.st20{fill:url(#SVGID_13_);}
	.st21{fill:url(#SVGID_14_);}
	.st22{fill:#079AE1;}
	.st23{fill:#1E5CB3;}
	.st24{fill:#1D60B5;}
	.st25{fill:#175FAB;}
	.st26{fill:url(#SVGID_15_);}
	.st27{fill:#7DCBEC;}
	.st28{fill:#5EC5ED;}
	.st29{fill:url(#SVGID_16_);}
	.st30{fill:url(#SVGID_17_);}
	.st31{fill:url(#SVGID_18_);}
</style>
<g>
	
		<linearGradient id="SVGID_1_" gradientUnits="userSpaceOnUse" x1="3.9532" y1="511.2476" x2="3.9532" y2="508.3621" gradientTransform="matrix(45.6076 0 0 -81.335 44.702 41743.2344)">
		<stop  offset="0" style="stop-color:#0994DC"/>
		<stop  offset="0.35" style="stop-color:#66CEF5"/>
		<stop  offset="0.35" style="stop-color:#66CEF5"/>
		<stop  offset="0.8462" style="stop-color:#127BCA"/>
		<stop  offset="0.8462" style="stop-color:#127BCA"/>
		<stop  offset="1" style="stop-color:#127BCA"/>
	</linearGradient>
	<path class="st0" d="M180.9,198c17.7,54.2,24.4,151,76.3,151l0,0c3.9,0,7.9-0.4,11.9-1.1l0,0c-47.1-11-52.7-106.7-81.5-156.2l0,0
		C185.4,193.7,183.1,195.8,180.9,198"/>
	
		<linearGradient id="SVGID_2_" gradientUnits="userSpaceOnUse" x1="3.9276" y1="511.3304" x2="3.9276" y2="508.445" gradientTransform="matrix(47.8692 0 0 -83.4083 45.933 42804.1563)">
		<stop  offset="0" style="stop-color:#0E76BC"/>
		<stop  offset="0.36" style="stop-color:#36AEE8"/>
		<stop  offset="0.36" style="stop-color:#36AEE8"/>
		<stop  offset="0.8462" style="stop-color:#00ADEF"/>
		<stop  offset="0.8462" style="stop-color:#00ADEF"/>
		<stop  offset="1" style="stop-color:#00ADEF"/>
	</linearGradient>
	<path class="st1" d="M187.6,191.6c28.8,49.5,34.3,145.2,81.5,156.2l0,0c3.7-0.7,7.4-1.7,11.1-3l0,0c-42.3-20.7-54-113.6-86.7-158.4
		l0,0C191.6,188.1,189.6,189.8,187.6,191.6"/>
	<path class="st2" d="M229.1,162.2c-3.9,0-7.9,0.4-11.9,1.1c-10.5,2-21.1,6.5-31.9,13.3c2.9,2.9,5.7,6.2,8.4,9.8
		c10.9-9.1,21.8-15.8,32.6-19.8c4.1-1.5,8.1-2.6,12.2-3.4C235.4,162.5,232.3,162.2,229.1,162.2"/>
	
		<linearGradient id="SVGID_3_" gradientUnits="userSpaceOnUse" x1="4.5709" y1="508.9718" x2="4.5709" y2="511.238" gradientTransform="matrix(45.4522 0 0 -84.5 74.5604 43351.6953)">
		<stop  offset="0" style="stop-color:#1C63B7"/>
		<stop  offset="0.5" style="stop-color:#33BDF2"/>
		<stop  offset="1" style="stop-color:#33BDF2;stop-opacity:0.4196"/>
	</linearGradient>
	<path class="st3" d="M313.3,325.7c4.3-3.4,8.7-7.2,13-11.4c-18-54-24.5-152.1-76.7-152.1c-3.7,0-7.5,0.3-11.3,1
		C285.9,175.1,292,278.6,313.3,325.7"/>
	<path class="st4" d="M238.3,163.3c-2.9-0.7-6-1.1-9.3-1.1l20.5,0.1C245.9,162.2,242.1,162.6,238.3,163.3"/>
	<path class="st5" d="M312.4,337.2c-2-1.9-4-4.1-5.9-6.4c-8.8,6.2-17.5,10.9-26.2,14c3.1,1.5,6.3,2.6,9.8,3.3
		c2.7,0.5,5.4,0.8,8.3,0.8c9.8,0,17.5-1.2,24-4.3C318.8,342.7,315.5,340.2,312.4,337.2"/>
	
		<linearGradient id="SVGID_4_" gradientUnits="userSpaceOnUse" x1="4.4659" y1="511.5352" x2="4.4659" y2="508.6497" gradientTransform="matrix(45.0105 0 0 -86.5982 68.7163 44428.625)">
		<stop  offset="0" style="stop-color:#166AB8"/>
		<stop  offset="0.4" style="stop-color:#36AEE8"/>
		<stop  offset="0.4" style="stop-color:#36AEE8"/>
		<stop  offset="0.8462" style="stop-color:#0798DD"/>
		<stop  offset="0.8462" style="stop-color:#0798DD"/>
		<stop  offset="1" style="stop-color:#0798DD"/>
	</linearGradient>
	<path class="st6" d="M226.2,166.7c42.6,22.3,46.3,123.2,80.3,164.1l0,0c2.3-1.6,4.5-3.3,6.8-5.1l0,0
		c-21.3-47.1-27.4-150.6-74.9-162.4l0,0C234.3,164,230.2,165.2,226.2,166.7"/>
	
		<linearGradient id="SVGID_5_" gradientUnits="userSpaceOnUse" x1="3.6247" y1="511.6272" x2="3.6247" y2="508.7416" gradientTransform="matrix(58.3509 0 0 -92.0822 38.5266 47243.6641)">
		<stop  offset="0" style="stop-color:#124379"/>
		<stop  offset="0.39" style="stop-color:#1487CB"/>
		<stop  offset="0.39" style="stop-color:#1487CB"/>
		<stop  offset="0.7802" style="stop-color:#165197"/>
		<stop  offset="0.7802" style="stop-color:#165197"/>
		<stop  offset="1" style="stop-color:#165197"/>
	</linearGradient>
	<path class="st7" d="M193.6,186.5c32.7,44.7,44.4,137.6,86.7,158.4l0,0c8.7-3.1,17.4-7.8,26.2-14l0,0c-34-41-37.7-141.9-80.3-164.1
		l0,0C215.4,170.7,204.5,177.4,193.6,186.5"/>
	
		<linearGradient id="SVGID_6_" gradientUnits="userSpaceOnUse" x1="4.7296" y1="506.5562" x2="6.6643" y2="506.5562" gradientTransform="matrix(19.4176 0 0 -30.9219 51.4739 15877.1309)">
		<stop  offset="0" style="stop-color:#33BDF2;stop-opacity:0.698"/>
		<stop  offset="1" style="stop-color:#1DACD8"/>
	</linearGradient>
	<path class="st8" d="M160,196.7c-5.1,11.6-10.3,26.8-16.7,46.7c12.6-17.7,25.1-33,37.6-45.3c-1.7-5.3-3.6-10.1-5.5-14.5
		C170.2,187.4,165.1,191.8,160,196.7"/>
	<path class="st9" d="M179.9,180.2c-1.5,1.1-3,2.2-4.5,3.3c2,4.3,3.8,9.2,5.5,14.5c2.3-2.2,4.5-4.4,6.8-6.4
		C185.2,187.5,182.7,183.6,179.9,180.2"/>
	<path class="st10" d="M185.2,176.6c-1.8,1.1-3.6,2.3-5.4,3.6c2.8,3.4,5.3,7.3,7.8,11.4c2-1.8,4-3.5,6-5.2
		C191,182.8,188.2,179.5,185.2,176.6"/>
	
		<linearGradient id="SVGID_7_" gradientUnits="userSpaceOnUse" x1="4.1373" y1="509.5771" x2="4.1373" y2="511.4675" gradientTransform="matrix(79.1425 0 0 -98.6787 98.0018 50623.1641)">
		<stop  offset="0" style="stop-color:#136AB4"/>
		<stop  offset="0.6" style="stop-color:#59CAF5;stop-opacity:0.549"/>
		<stop  offset="1" style="stop-color:#59CAF5;stop-opacity:0.2353"/>
	</linearGradient>
	<path class="st11" d="M475.8,158c-24.1,92.9-74.4,167.5-116.6,186.4h-0.1c-0.8,0.3-1.5,0.7-2.3,1c-0.1,0.1-0.2,0.1-0.3,0.1
		c-0.2,0.1-0.4,0.2-0.6,0.2c-0.1,0.1-0.2,0.1-0.3,0.1c-0.4,0.1-0.7,0.2-1.1,0.4c-0.2,0.1-0.3,0.1-0.4,0.2c-0.2,0.1-0.3,0.1-0.5,0.2
		c-0.2,0.1-0.3,0.1-0.5,0.2c-0.2,0.1-0.3,0.1-0.5,0.2c-0.3,0.1-0.6,0.2-0.9,0.3c-0.1,0-0.2,0.1-0.4,0.1c-0.2,0.1-0.4,0.1-0.6,0.2
		c-0.1,0.1-0.3,0.1-0.4,0.1c-0.2,0.1-0.5,0.1-0.7,0.2c-0.3,0.1-0.5,0.1-0.8,0.2c1.9,0.7,3.9,1.1,6,1.1c40,0,80.3-71.7,147.1-190.9
		L475.8,158L475.8,158z"/>
	
		<linearGradient id="SVGID_8_" gradientUnits="userSpaceOnUse" x1="1.1113" y1="510.4293" x2="3.046" y2="510.4293" gradientTransform="matrix(72.0226 0 0 -99.1613 -70.0359 50872.8594)">
		<stop  offset="0" style="stop-color:#05A1E6;stop-opacity:0.2471"/>
		<stop  offset="1" style="stop-color:#05A1E6"/>
	</linearGradient>
	<path class="st12" d="M134.6,165.9C134.6,165.9,134.7,165.9,134.6,165.9c0.1-0.1,0.2-0.1,0.2-0.1h0.1c0.2-0.1,0.4-0.2,0.6-0.2
		c0.1,0,0.1,0,0.1-0.1c0.1,0,0.1-0.1,0.2-0.1c0.2-0.1,0.5-0.2,0.7-0.2h0c0.5-0.2,1-0.4,1.5-0.5c0.1,0,0.1-0.1,0.2-0.1
		c0.2-0.1,0.4-0.1,0.7-0.2c0.1-0.1,0.2-0.1,0.3-0.1c0.2-0.1,0.5-0.1,0.7-0.2c0.1,0,0.2-0.1,0.3-0.1c0.7-0.2,1.5-0.4,2.2-0.6
		c0.1,0,0.2-0.1,0.3-0.1c0.2-0.1,0.4-0.1,0.6-0.1c0.1-0.1,0.2-0.1,0.3-0.1c0.2-0.1,0.4-0.1,0.6-0.1h0.2c0.4-0.1,0.9-0.2,1.3-0.2h0.3
		c0.2-0.1,0.4-0.1,0.6-0.1c0.1,0,0.2-0.1,0.3-0.1c0.2,0,0.4-0.1,0.6-0.1c0.1,0,0.2,0,0.3-0.1c0.5-0.1,0.9-0.1,1.4-0.1
		c-1.4-0.1-2.8-0.2-4.3-0.2C100,162.1,38,245.7,10,354h5.4c8.9-16,17-31.1,24.3-45.2C59.3,232.1,99.2,179.8,134.6,165.9"/>
	<path class="st13" d="M160,196.7c5.1-4.9,10.3-9.3,15.3-13.2c-1.2-2.5-2.4-4.9-3.7-7.1C167.6,181.5,163.8,188.1,160,196.7"/>
	<path class="st13" d="M163.7,166.6c2.9,2.5,5.6,5.9,8,9.9c0.8-0.9,1.5-1.8,2.3-2.6c-3.3-3.1-7-5.7-10.9-7.6
		C163.3,166.4,163.4,166.4,163.7,166.6C163.6,166.5,163.7,166.6,163.7,166.6"/>
	
		<linearGradient id="SVGID_9_" gradientUnits="userSpaceOnUse" x1="2.4235" y1="508.4163" x2="2.4235" y2="511.0037" gradientTransform="matrix(49.0511 0 0 -73.8222 -31.7007 37875.8867)">
		<stop  offset="0" style="stop-color:#318ED5"/>
		<stop  offset="1" style="stop-color:#38A7E4"/>
	</linearGradient>
	<path class="st14" d="M39.7,308.7c41.1-79.2,60.5-129.3,94.9-142.8l0,0C99.2,179.8,59.3,232.1,39.7,308.7"/>
	<path class="st15" d="M174,173.9c-0.8,0.8-1.6,1.7-2.3,2.6c1.3,2.2,2.5,4.5,3.7,7.1c1.5-1.2,3-2.3,4.5-3.3
		C178,177.9,176,175.8,174,173.9"/>
	
		<linearGradient id="SVGID_10_" gradientUnits="userSpaceOnUse" x1="2.6207" y1="507.7656" x2="2.6207" y2="511.0157" gradientTransform="matrix(45.6036 0 0 -57.1283 -20.3153 29351.9492)">
		<stop  offset="0" style="stop-color:#05A1E6"/>
		<stop  offset="1" style="stop-color:#05A1E6;stop-opacity:0.549"/>
	</linearGradient>
	<path class="st16" d="M58.4,353.6L58.4,353.6c-0.3,0.1-0.5,0.1-0.7,0.1h-0.1c-0.2,0-0.4,0.1-0.6,0.1h-0.1c-0.5,0.1-1,0.1-1.5,0.1
		h-0.2c41.6-1.2,60.6-22,70-52.2c7.2-22.9,13.1-42.2,18.2-58.4c-17.4,24.5-34.9,53.7-52.5,86.5C82.3,345.6,69.4,352.2,58.4,353.6"/>
	
		<linearGradient id="SVGID_11_" gradientUnits="userSpaceOnUse" x1="2.5649" y1="508.8987" x2="2.5649" y2="510.8334" gradientTransform="matrix(52.5191 0 0 -81.0936 -25.5294 41622.0156)">
		<stop  offset="0" style="stop-color:#1959A6"/>
		<stop  offset="0.5" style="stop-color:#05A1E6"/>
		<stop  offset="0.5" style="stop-color:#05A1E6"/>
		<stop  offset="0.9176" style="stop-color:#7EC5EA"/>
		<stop  offset="1" style="stop-color:#7EC5EA"/>
	</linearGradient>
	<path class="st17" d="M58.4,353.6L58.4,353.6c11.1-1.4,24-8,32.4-23.8l0,0c17.6-32.7,35.1-62,52.5-86.5l0,0
		c6.3-19.9,11.6-35.1,16.7-46.7l0,0C125.3,229.7,90.5,284.6,58.4,353.6"/>
	<path class="st18" d="M39.7,308.7C32.4,322.9,24.3,338,15.4,354h15.7C33.1,338.1,36.1,323,39.7,308.7"/>
	
		<linearGradient id="SVGID_12_" gradientUnits="userSpaceOnUse" x1="2.4079" y1="509.5629" x2="1.9951" y2="511.2812" gradientTransform="matrix(72.6768 0 0 -99.0047 -59.784 50792.6992)">
		<stop  offset="0" style="stop-color:#165096"/>
		<stop  offset="1" style="stop-color:#0D82CA"/>
	</linearGradient>
	<path class="st19" d="M147.9,162.5c-0.1,0-0.2,0.1-0.3,0.1l0,0c-0.2,0.1-0.4,0.1-0.6,0.1l0,0c-0.1,0-0.2,0-0.3,0.1l0,0
		c-0.2,0.1-0.4,0.1-0.6,0.1l0,0c-0.1,0-0.2,0-0.3,0.1l0,0c-0.5,0.1-0.9,0.2-1.3,0.2l0,0h-0.2l0,0c-0.2,0.1-0.4,0.1-0.6,0.1l0,0
		c-0.1,0.1-0.2,0.1-0.3,0.1l0,0c-0.2,0.1-0.4,0.1-0.6,0.1l0,0c-0.1,0.1-0.2,0.1-0.3,0.1l0,0c-0.7,0.2-1.5,0.4-2.2,0.6l0,0
		c-0.1,0-0.2,0.1-0.3,0.1l0,0c-0.2,0.1-0.4,0.1-0.7,0.2l0,0c-0.1,0.1-0.2,0.1-0.3,0.1l0,0c-0.2,0.1-0.4,0.1-0.7,0.2l0,0
		c-0.1,0-0.2,0.1-0.2,0.1l0,0c-0.5,0.2-1,0.4-1.5,0.5l0,0l0,0l0,0c-0.2,0.1-0.5,0.2-0.7,0.2l0,0c-0.1,0.1-0.2,0.1-0.3,0.1l0,0
		c-0.2,0.1-0.4,0.2-0.6,0.2l0,0c-0.1,0.1-0.2,0.1-0.2,0.1l0,0c-34.4,13.6-53.8,63.7-94.9,142.8l0,0c-3.6,14.3-6.6,29.4-8.7,45.2l0,0
		h2.2c6.2,0,7.9-0.1,15.1-0.1l0,0h0.4h1.1h0.4h0.1h0.4h0.2H51h0.3h0.9H53h0.7H54h1.3l0,0c0.5-0.1,1-0.1,1.5-0.1l0,0h0.1l0,0
		c0.2,0,0.4-0.1,0.6-0.1l0,0h0.1l0,0c0.2,0,0.5-0.1,0.7-0.1l0,0c32.1-69,66.9-123.9,101.6-156.9l0,0c3.8-8.6,7.6-15.2,11.7-20.2l0,0
		c-2.4-4.1-5-7.5-8-9.9l0,0c0,0-0.1,0-0.1-0.1l0,0c-0.2-0.1-0.3-0.2-0.5-0.2l0,0c-0.2-0.1-0.3-0.2-0.5-0.2l0,0
		c-0.2-0.1-0.3-0.1-0.5-0.2l0,0c-0.2-0.1-0.4-0.2-0.6-0.2l0,0c-0.2-0.1-0.3-0.1-0.4-0.2l0,0c-0.3-0.1-0.6-0.2-0.9-0.4l0,0
		c-0.1-0.1-0.3-0.1-0.4-0.1l0,0c-0.2-0.1-0.5-0.2-0.7-0.3l0,0c-0.1-0.1-0.2-0.1-0.4-0.1l0,0c-0.3-0.1-0.6-0.2-0.9-0.3l0,0h-0.1l0,0
		c-0.4-0.1-0.7-0.2-1.1-0.3l0,0c-0.1-0.1-0.2-0.1-0.2-0.1l0,0c-0.3-0.1-0.6-0.2-0.9-0.3l0,0c-0.1,0-0.2-0.1-0.2-0.1l0,0
		c-0.7-0.2-1.5-0.4-2.3-0.5l0,0c-0.1,0-0.2-0.1-0.2-0.1l0,0c-0.3-0.1-0.7-0.1-1-0.2l0,0c-0.1-0.1-0.1-0.1-0.2-0.1l0,0
		c-0.4-0.1-0.8-0.1-1.2-0.2l0,0h-0.2l0,0c-0.3-0.1-0.6-0.1-0.9-0.1l0,0C148.9,162.5,148.4,162.5,147.9,162.5"/>
	
		<linearGradient id="SVGID_13_" gradientUnits="userSpaceOnUse" x1="7.3994" y1="508.7319" x2="7.3994" y2="510.2854" gradientTransform="matrix(32.7663 0 0 -57.2261 151.0651 29360.1406)">
		<stop  offset="0" style="stop-color:#05A1E6"/>
		<stop  offset="0.8736" style="stop-color:#0495D6"/>
		<stop  offset="1" style="stop-color:#0495D6"/>
	</linearGradient>
	<path class="st20" d="M381.7,209.5c-7.9,25.3-14.3,46.2-19.9,63.4l0,0c21.7-29.8,43.1-67.4,63.4-110.7l0,0
		C401.5,169.6,388.8,186.6,381.7,209.5"/>
	
		<linearGradient id="SVGID_14_" gradientUnits="userSpaceOnUse" x1="5.1949" y1="511.4505" x2="4.5951" y2="509.3222" gradientTransform="matrix(60.2691 0 0 -96.3231 122.2086 49414.7539)">
		<stop  offset="0" style="stop-color:#38A7E4;stop-opacity:0.3294"/>
		<stop  offset="0.9615" style="stop-color:#0E88D3"/>
		<stop  offset="0.9615" style="stop-color:#0E88D3"/>
		<stop  offset="1" style="stop-color:#0E88D3"/>
	</linearGradient>
	<path class="st21" d="M362.5,342.8c-1.1,0.6-2.2,1.1-3.3,1.6c42.2-18.8,92.5-93.4,116.6-186.4h-4.9
		C415.6,256.9,397.8,323.1,362.5,342.8"/>
	<path class="st22" d="M335,334.5c9.2-11.2,16.7-30.2,26.9-61.6c-11.8,16.2-23.6,30.1-35.5,41.4c0,0.1,0,0.1-0.1,0.1
		C328.9,322.1,331.7,329,335,334.5"/>
	<path class="st5" d="M335,334.5c-3.1,3.8-6.4,6.7-10.1,8.9c-0.8,0.5-1.6,0.9-2.5,1.3c3.9,2.1,8.1,3.5,12.9,4.1l0,0
		c0.7,0.1,1.4,0.1,2.1,0.2h0.1c0.3,0,0.7,0,1,0.1h0.1h1h1.1h0.3h0.8c0.1,0,0.3,0,0.4-0.1c0.2,0,0.5,0,0.8-0.1h0.1h0.3
		c0.3,0,0.5-0.1,0.8-0.1h0.1c0.1,0,0.2-0.1,0.3-0.1c0.3-0.1,0.6-0.1,0.9-0.1h0.3c0.3-0.1,0.7-0.1,1-0.2h0.1h0.1
		c0.7-0.1,1.3-0.3,2-0.4c-5.4-2-10-6.7-13.9-13.4"/>
	<path class="st23" d="M257.2,349c3.9,0,7.9-0.4,11.9-1.2c3.7-0.7,7.4-1.7,11.1-3c3.1,1.5,6.3,2.6,9.8,3.3c2.7,0.5,5.4,0.8,8.3,0.8
		H257.2L257.2,349z"/>
	<path class="st23" d="M298.4,349c9.7,0,17.5-1.2,24-4.3c3.9,2.1,8.1,3.5,12.9,4.1l0,0c0.7,0.1,1.4,0.1,2.1,0.2h0.1
		c0.3,0,0.7,0,1,0.1h0.1h1L298.4,349L298.4,349z"/>
	<path class="st24" d="M339.7,349h1.1h0.3h0.8c0.1,0,0.3,0,0.4-0.1c0.2,0,0.5,0,0.8-0.1h0.1h0.3c0.3,0,0.5-0.1,0.8-0.1h0.1
		c0.1,0,0.2-0.1,0.2-0.1c0.3-0.1,0.6-0.1,0.9-0.1c0.1,0,0.2,0,0.3-0.1c0.3-0.1,0.7-0.1,1-0.2h0.1h0.1c0.7-0.1,1.3-0.3,2-0.4l0,0
		c1.9,0.7,3.9,1.1,6,1.1L339.7,349L339.7,349z"/>
	<path class="st25" d="M326.3,314.4L326.3,314.4c-4.3,4.1-8.7,7.9-13,11.3c-2.3,1.8-4.5,3.5-6.8,5.1c1.9,2.3,3.8,4.4,5.9,6.4
		c3.1,3,6.4,5.5,10,7.5c0.8-0.4,1.6-0.8,2.4-1.3c3.7-2.2,7-5.1,10.1-8.9C331.7,329,328.9,322.1,326.3,314.4"/>
	
		<linearGradient id="SVGID_15_" gradientUnits="userSpaceOnUse" x1="4.315" y1="511.4054" x2="4.315" y2="509.4285" gradientTransform="matrix(70.2816 0 0 -98.1105 99.6512 50331.6758)">
		<stop  offset="0" style="stop-color:#168CD4"/>
		<stop  offset="0.5" style="stop-color:#1C87CC"/>
		<stop  offset="1" style="stop-color:#154B8D"/>
	</linearGradient>
	<path class="st26" d="M455.5,158h-20.5h-2l0,0H431l0,0h-0.1c-1.3,0.1-2.6,0.1-3.9,0.2l0,0c-0.6,1.3-1.2,2.6-1.8,3.9l0,0
		c-20.3,43.3-41.7,80.9-63.4,110.7l0,0c-10.2,31.4-17.7,50.4-26.9,61.6l0,0c3.9,6.7,8.5,11.4,13.9,13.4l0,0c0.2-0.1,0.3-0.1,0.4-0.1
		l0,0h0.1l0,0c0.1,0,0.2-0.1,0.3-0.1l0,0c0.2-0.1,0.5-0.1,0.7-0.2l0,0c0.1-0.1,0.3-0.1,0.4-0.1l0,0c0.2-0.1,0.4-0.1,0.6-0.2l0,0
		c0.1-0.1,0.3-0.1,0.4-0.1l0,0c0.3-0.1,0.6-0.2,0.9-0.3l0,0c0.1-0.1,0.3-0.1,0.5-0.2l0,0c0.2-0.1,0.3-0.1,0.5-0.2l0,0
		c0.2-0.1,0.4-0.1,0.5-0.2l0,0c0.1-0.1,0.3-0.1,0.4-0.2l0,0c0.4-0.1,0.7-0.2,1.1-0.4l0,0c0.1,0,0.2-0.1,0.3-0.1l0,0
		c0.2-0.1,0.4-0.2,0.6-0.3l0,0c0.1-0.1,0.2-0.1,0.3-0.1l0,0c0.7-0.3,1.5-0.6,2.3-1l0,0h0.1l0,0c1.1-0.5,2.2-1,3.3-1.6l0,0
		c35.3-19.7,53.1-85.9,108.4-184.8l0,0L455.5,158L455.5,158z"/>
	<path class="st27" d="M149.3,162.4c0.1,0,0.2,0,0.3,0.1c0.2,0,0.4,0,0.6,0.1h0.2c0.4,0.1,0.8,0.1,1.2,0.2c0.1,0,0.1,0,0.2,0.1
		c0.3,0.1,0.7,0.1,1,0.2c0.1,0,0.2,0.1,0.2,0.1c0.8,0.2,1.5,0.3,2.3,0.5c0.1,0,0.1,0.1,0.2,0.1c0.3,0.1,0.6,0.2,0.9,0.3
		c0.1,0,0.2,0.1,0.3,0.1c0.4,0.1,0.7,0.2,1.1,0.3c0,0,0,0,0.1,0.1c0.3,0.1,0.6,0.2,0.9,0.3c0.1,0.1,0.2,0.1,0.4,0.1
		c0.2,0.1,0.5,0.2,0.7,0.3c0.1,0,0.3,0.1,0.4,0.1c0.3,0.1,0.6,0.3,0.9,0.4c0.2,0.1,0.3,0.1,0.4,0.2c0.2,0.1,0.4,0.2,0.5,0.2
		c0.2,0.1,0.3,0.2,0.5,0.2c0.2,0.1,0.3,0.2,0.5,0.2c3.9,1.9,7.5,4.5,10.9,7.6c1.2-1.3,2.5-2.5,3.9-3.5c-7.3-5.2-15.6-8.1-25.2-8.1
		C151.6,162.3,150.5,162.4,149.3,162.4"/>
	<path class="st28" d="M174,173.9c2,1.9,4,4,5.9,6.3c1.8-1.3,3.6-2.5,5.4-3.6c-2.3-2.3-4.8-4.4-7.4-6.3
		C176.5,171.4,175.2,172.6,174,173.9"/>
	
		<linearGradient id="SVGID_16_" gradientUnits="userSpaceOnUse" x1="3.5802" y1="547.3785" x2="4.9566" y2="551.7394" gradientTransform="matrix(32.4594 0 0 4.2491 39.3485 -2172.4102)">
		<stop  offset="0" style="stop-color:#97D6EE"/>
		<stop  offset="0.7033" style="stop-color:#55C1EA"/>
		<stop  offset="1" style="stop-color:#55C1EA"/>
	</linearGradient>
	<path class="st29" d="M149.3,162.4c1.1-0.1,2.2-0.1,3.3-0.1c9.6,0,17.9,3,25.2,8.1c7.7-6.1,17.1-8.2,30-8.2h-62.8
		C146.5,162.2,147.9,162.2,149.3,162.4"/>
	
		<linearGradient id="SVGID_17_" gradientUnits="userSpaceOnUse" x1="4.4998" y1="535.0592" x2="5.8323" y2="532.9226" gradientTransform="matrix(26.4722 0 0 7.484 62.275 -3828.6802)">
		<stop  offset="0" style="stop-color:#7ACCEC"/>
		<stop  offset="1" style="stop-color:#3FB7ED"/>
	</linearGradient>
	<path class="st30" d="M207.9,162.2c-13,0-22.3,2.1-30,8.2c2.6,1.8,5,3.9,7.4,6.3c10.8-6.8,21.4-11.4,31.9-13.3
		c4-0.8,8-1.1,11.9-1.1H207.9L207.9,162.2z"/>
	
		<linearGradient id="SVGID_18_" gradientUnits="userSpaceOnUse" x1="5.0579" y1="510.9283" x2="5.0579" y2="508.5757" gradientTransform="matrix(52.0449 0 0 -80.6355 113.4486 41367.168)">
		<stop  offset="0" style="stop-color:#1DA7E7"/>
		<stop  offset="1" style="stop-color:#37ABE7;stop-opacity:0"/>
	</linearGradient>
	<path class="st31" d="M361.8,272.9c5.6-17.2,12-38.1,19.9-63.4c7.1-22.8,19.8-39.9,43.5-47.3c0.6-1.3,1.2-2.6,1.8-3.9
		c-38.7,2.3-56.8,22-65.9,51.1c-15.9,50.9-25.5,83.9-34.8,104.9C338.2,302.9,350,289,361.8,272.9"/>
</g>
</svg>
