<?xml version="1.0" encoding="utf-8"?>
<!-- Generator: Adobe Illustrator 22.1.0, SVG Export Plug-In . SVG Version: 6.00 Build 0)  -->
<svg version="1.1" id="Layer_1" xmlns="http://www.w3.org/2000/svg" xmlns:xlink="http://www.w3.org/1999/xlink" x="0px" y="0px"
	 viewBox="0 0 512 512" style="enable-background:new 0 0 512 512;" xml:space="preserve">
<style type="text/css">
	.st0{fill:#5382A1;}
	.st1{fill:#E76F00;}
</style>
<g>
	<path class="st0" d="M190,393.3c0,0-19.2,11.2,13.6,14.9c39.8,4.5,60.1,3.9,103.9-4.4c0,0,11.5,7.2,27.6,13.5
		C237,459.4,112.8,414.8,190,393.3"/>
	<path class="st0" d="M178,338.3c0,0-21.5,15.9,11.3,19.3c42.5,4.4,76,4.7,134.1-6.4c0,0,8,8.1,20.7,12.6
		C225.3,398.5,93,366.5,178,338.3"/>
	<path class="st1" d="M279.2,245.1c24.2,27.9-6.4,53-6.4,53s61.5-31.7,33.2-71.5c-26.4-37.1-46.6-55.5,62.9-119
		C369,107.6,197.2,150.5,279.2,245.1"/>
	<path class="st0" d="M409.2,433.9c0,0,14.2,11.7-15.6,20.7c-56.7,17.2-236,22.4-285.8,0.7c-17.9-7.8,15.7-18.6,26.2-20.9
		c11-2.4,17.3-1.9,17.3-1.9c-19.9-14-128.7,27.5-55.3,39.5C296.3,504.4,461.1,457.3,409.2,433.9"/>
	<path class="st0" d="M199.2,281.4c0,0-91.2,21.7-32.3,29.5c24.9,3.3,74.5,2.6,120.7-1.3c37.7-3.2,75.7-10,75.7-10
		s-13.3,5.7-22.9,12.3c-92.6,24.4-271.6,13-220.1-11.9C163.8,279,199.2,281.4,199.2,281.4"/>
	<path class="st0" d="M362.9,372.8c94.2-48.9,50.6-95.9,20.2-89.6c-7.4,1.6-10.8,2.9-10.8,2.9s2.8-4.3,8-6.2
		c60.1-21.1,106.3,62.3-19.4,95.4C361,375.3,362.4,374,362.9,372.8"/>
	<path class="st1" d="M306.1,5.1c0,0,52.1,52.2-49.5,132.4c-81.5,64.3-18.6,101,0,143c-47.6-42.9-82.5-80.7-59-115.8
		C231.9,113,327.1,88,306.1,5.1"/>
	<path class="st0" d="M208.5,505.4c90.4,5.8,229.2-3.2,232.5-46c0,0-6.3,16.2-74.7,29.1c-77.1,14.5-172.3,12.8-228.7,3.5
		C137.5,492.1,149.1,501.6,208.5,505.4"/>
</g>
</svg>
