<?xml version="1.0" encoding="utf-8"?>
<!-- Generator: Adobe Illustrator 22.1.0, SVG Export Plug-In . SVG Version: 6.00 Build 0)  -->
<svg version="1.1" id="Layer_1" xmlns="http://www.w3.org/2000/svg" xmlns:xlink="http://www.w3.org/1999/xlink" x="0px" y="0px"
	 viewBox="0 0 512 512" style="enable-background:new 0 0 512 512;" xml:space="preserve">
<style type="text/css">
	.st0{display:none;fill:#303030;}
	.st1{fill:#D5B930;}
	.st2{opacity:0.986;fill:#EBEBEB;fill-opacity:0;enable-background:new    ;}
	.st3{opacity:0.986;fill:#EBEBEB;fill-opacity:0.9216;enable-background:new    ;}
	.st4{fill:#FDD83E;}
</style>
<rect x="0" y="0" class="st0" width="512" height="512"/>
<g id="g5193" transform="translate(4.988 -113.385)">
	<path id="path5113" class="st1" d="M72.1,568.7l-40.8-449l439.4,0.2l-40.4,448.5L250.7,619L72.1,568.7z M397.2,544.2l34.1-384.5
		H251.4l1.4,424.1L397.2,544.2z M234.6,216h-43.7l-0.5,230.1L105.5,423l0.2,52.6l128.9,34.8L234.6,216L234.6,216z"/>
	<path id="path5159" class="st2" d="M220.2,506.1c-5.7-1.7-33.6-9.3-62-17l-51.6-13.9v-25.9c0-25.4,0-25.9,2.6-25
		c1.4,0.5,20.2,5.7,41.8,11.7l39.2,10.8l0.3-114.8l0.3-114.8h42.8v146c0,116-0.3,146-1.5,146C231.3,509,225.8,507.7,220.2,506.1
		L220.2,506.1z"/>
	<path id="path5157" class="st3" d="M105.7,475.6l-0.2-52.6c0,0,54.2,15.3,84.8,23.1l0.5-230h43.7v294.2L105.7,475.6L105.7,475.6z"
		/>
	<path id="path5117" class="st4" d="M251.4,159.4h179.9L397.2,544l-145.8,39.6V159.4z M387.9,479.5l11.8-143.8l-87.4,9.8v-76.8
		l93.2-0.3l3.8-52.4l-140.7,0.7l1.9,190.9l85-14.6l-1.2,42.5l-85.7,22.8l0.9,52.1L387.9,479.5L387.9,479.5z"/>
</g>
</svg>
