<?xml version="1.0" encoding="utf-8"?>
<!-- Generator: Adobe Illustrator 22.1.0, SVG Export Plug-In . SVG Version: 6.00 Build 0)  -->
<svg version="1.1" id="Layer_1" xmlns="http://www.w3.org/2000/svg" xmlns:xlink="http://www.w3.org/1999/xlink" x="0px" y="0px"
	 viewBox="0 0 512 512" style="enable-background:new 0 0 512 512;" xml:space="preserve">
<style type="text/css">
	.st0{fill:#F0543F;}
</style>
<g>
	<path class="st0" d="M316.8,427c-2.7,0-5.2-1.4-6.6-3.8l-58.5-97.6l-109.4,29.7c-3.5,1-7.2-0.6-8.9-3.8L5.5,111
		c-1.2-2.2-1.2-4.9-0.1-7.2c1.2-2.3,3.3-3.8,5.9-4.1L120,85.1c3.1-0.4,6.1,1,7.7,3.7l131.2,218.8l152.4-41.4l-50.9-71.7
		c-1.5-2.1-1.8-4.8-0.9-7.2c0.9-2.4,3-4.2,5.5-4.8l71.3-16.8c2.9-0.7,6,0.4,7.8,2.7l61.7,77c1.6,2,2.1,4.8,1.3,7.2
		c-0.8,2.5-2.8,4.4-5.3,5.1l-65,17.7l56.7,79.9c1.4,2,1.8,4.5,1.1,6.8c-0.7,2.3-2.5,4.2-4.8,5l-170.3,59.6
		C318.5,426.8,317.6,427,316.8,427z M267.1,321.4l53.1,88.5l154.6-54.1l-54-76.1L267.1,321.4z M24.4,113.6l119.7,225.2l99.2-27
		L117,101.1L24.4,113.6z M379.6,194.8l47.5,67l59.1-16.1l-51.3-64L379.6,194.8z"/>
</g>
</svg>
