<?xml version="1.0" encoding="utf-8"?>
<!-- Generator: Adobe Illustrator 22.1.0, SVG Export Plug-In . SVG Version: 6.00 Build 0)  -->
<svg version="1.1" id="Layer_1" xmlns="http://www.w3.org/2000/svg" xmlns:xlink="http://www.w3.org/1999/xlink" x="0px" y="0px"
	 viewBox="0 0 512 512" style="enable-background:new 0 0 512 512;" xml:space="preserve">
<style type="text/css">
	.st0{fill:url(#SVGID_1_);}
	.st1{fill:url(#SVGID_2_);}
</style>
<g>
	
		<linearGradient id="SVGID_1_" gradientUnits="userSpaceOnUse" x1="7.274" y1="5.7767" x2="8.5389" y2="7.0318" gradientTransform="matrix(189.3834 0 0 189.8058 -1318.5394 -1037.3828)">
		<stop  offset="0" style="stop-color:#387EB8"/>
		<stop  offset="1" style="stop-color:#366994"/>
	</linearGradient>
	<path class="st0" d="M254,14.7C131.1,14.7,138.7,68,138.7,68l0.2,55.2h117.4v16.5H92.4c0,0-78.7-8.9-78.7,115.1
		s68.7,119.7,68.7,119.7h41v-57.5c0,0-2.3-68.7,67.5-68.7h116.5c0,0,65.4,1.1,65.4-63.2V79C372.6,79,382.7,14.7,254,14.7L254,14.7
		L254,14.7z M189.4,51.9c11.8,0,21.1,9.5,21.1,21.1c0,11.8-9.5,21.1-21.1,21.1c-11.8,0-21.1-9.5-21.1-21.1
		C168.3,61.2,177.6,51.9,189.4,51.9L189.4,51.9L189.4,51.9z"/>
	
		<linearGradient id="SVGID_2_" gradientUnits="userSpaceOnUse" x1="7.7032" y1="6.2431" x2="9.0616" y2="7.5302" gradientTransform="matrix(189.3834 0 0 189.8058 -1252.5389 -973.1094)">
		<stop  offset="0" style="stop-color:#FFE052"/>
		<stop  offset="1" style="stop-color:#FFC331"/>
	</linearGradient>
	<path class="st1" d="M257.7,496.5c122.9,0,115.3-53.3,115.3-53.3l-0.2-55.2H255.4v-16.5h163.9c0,0,78.7,8.9,78.7-115.1
		s-68.7-119.7-68.7-119.7h-41v57.7c0,0,2.3,68.7-67.5,68.7H204.3c0,0-65.4-1.1-65.4,63.2v106.2C138.9,432.2,129,496.5,257.7,496.5
		L257.7,496.5L257.7,496.5z M322.3,459.3c-11.8,0-21.1-9.5-21.1-21.1c0-11.8,9.5-21.1,21.1-21.1c11.6,0,21.1,9.5,21.1,21.1
		C343.4,450,333.9,459.3,322.3,459.3L322.3,459.3L322.3,459.3z"/>
</g>
</svg>
