<?xml version="1.0" encoding="utf-8"?>
<!-- Generator: Adobe Illustrator 22.1.0, SVG Export Plug-In . SVG Version: 6.00 Build 0)  -->
<svg version="1.1" id="Layer_1" xmlns="http://www.w3.org/2000/svg" xmlns:xlink="http://www.w3.org/1999/xlink" x="0px" y="0px"
	 viewBox="0 0 512 512" style="enable-background:new 0 0 512 512;" xml:space="preserve">
<style type="text/css">
	.st0{display:none;fill:#303030;}
	.st1{fill:#54C1DE;}
</style>
<rect x="0" y="0" class="st0" width="512" height="512"/>
<g>
	<circle class="st1" cx="256" cy="256" r="46"/>
	<path class="st1" d="M430.9,180.1c-8.9-3.2-18.2-6.5-27.9-9.3c2.4-9.7,4.4-19.4,6.1-28.7c8.5-53.3-0.8-90.9-26.7-105.4
		c-7.7-4.4-16.2-6.5-25.8-6.5c-28.3,0-64.2,21-100.6,56.1c-36.3-35.1-72.3-56.1-100.6-56.1c-9.7,0-18.2,2-25.8,6.5
		c-25.8,14.9-35.1,52.5-26.7,105.4c1.6,9.3,3.6,19,6.1,28.7c-9.7,2.8-19,5.7-27.9,9.3c-50.5,19.4-77.9,46-77.9,75.9
		s27.9,56.5,77.9,75.9c8.9,3.2,18.2,6.5,27.9,9.3c-2.4,9.7-4.4,19.4-6.1,28.7c-8.5,53.3,0.8,90.9,26.7,105.4
		c7.7,4.4,16.2,6.5,25.8,6.5c28.7,0,64.6-21,100.6-56.1c36.3,35.1,72.3,56.1,100.6,56.1c9.7,0,18.2-2,25.8-6.5
		c25.8-14.9,35.1-52.5,26.7-105.4c-1.6-9.3-3.6-19-6.1-28.7c9.7-2.8,19-5.7,27.9-9.3c50.5-19.4,77.9-46,77.9-75.9
		S481.4,199.5,430.9,180.1z M371.1,56.9c16.6,9.7,22.2,39.6,15.3,82c-1.2,8.5-3.2,17.4-5.7,26.7c-21-4.8-43.2-8.1-66.6-10.1
		c-13.7-19.4-27.9-36.8-42-52.5C302,73.4,332.3,53.3,357,53.3C362.2,53.3,367.1,54.5,371.1,56.9z M325.9,296.4
		c-7.3,12.9-15.8,25.8-24.6,38.8c-14.9,1.2-29.9,1.6-45.2,1.6c-15.8,0-30.7-0.4-45.2-1.6c-8.9-12.9-17-25.8-24.2-38.8
		c-7.7-13.3-14.9-27.1-21.4-40.4c6.5-13.3,13.7-27.1,21.4-40.4c7.3-12.9,15.8-25.8,24.6-38.8c14.9-1.2,29.9-1.6,45.2-1.6
		c15.8,0,30.7,0.4,45.2,1.6c8.9,12.9,17,25.8,24.2,38.8c7.7,13.3,14.9,27.1,21.4,40.4C340.4,269.3,333.5,282.7,325.9,296.4z
		 M359.4,283.1c6.1,14.1,10.9,27.9,15.3,41.6c-13.7,3.2-28.3,5.7-43.6,7.7c4.8-7.7,10.1-15.8,14.5-24.2
		C350.5,299.6,355,291.1,359.4,283.1z M256,392.5c-9.7-10.5-19-21.8-27.9-33.5c9.3,0.4,18.6,0.8,27.9,0.8c9.3,0,18.6-0.4,27.9-0.8
		C275,370.7,265.7,382,256,392.5z M180.9,331.9c-15.3-2-29.9-4.4-43.6-7.7c4.4-13.3,9.3-27.5,15.3-41.6c4.4,8.1,8.9,16.6,13.7,24.6
		C171.2,316.2,176,323.8,180.9,331.9z M152.6,228.9c-6.1-14.1-10.9-27.9-15.3-41.6c13.7-3.2,28.3-5.7,43.6-7.7
		c-4.8,7.7-10.1,15.8-14.5,24.2C161.5,212.4,157.1,220.9,152.6,228.9z M256,119.5c9.7,10.5,19,21.8,27.9,33.5
		c-9.3-0.4-18.6-0.8-27.9-0.8c-9.3,0-18.6,0.4-27.9,0.8C237,141.3,246.3,130,256,119.5z M345.7,204.3l-14.5-24.2
		c15.3,2,29.9,4.4,43.6,7.7c-4.4,13.3-9.3,27.5-15.3,41.6C355,220.9,350.5,212.4,345.7,204.3z M125.6,138.9
		c-6.9-42.4-1.2-72.3,15.3-82c4-2.4,8.9-3.6,14.1-3.6c24.2,0,54.5,19.8,84.8,49.7c-14.1,15.3-28.3,33.1-42,52.5
		c-23.4,2-45.6,5.7-66.6,10.1C128.8,156.2,127.2,147.4,125.6,138.9z M25.8,256c0-19,23-39.2,63.4-54.1c8.1-3.2,17-6.1,25.8-8.5
		c6.5,20.2,14.5,41.6,24.2,63c-9.7,21.4-18.2,42.4-24.2,62.6C59.3,302.8,25.8,278.6,25.8,256z M140.9,455.1
		c-16.6-9.7-22.2-39.6-15.3-82c1.2-8.5,3.2-17.4,5.7-26.7c21,4.8,43.2,8.1,66.6,10.1c13.7,19.4,27.9,36.8,42,52.5
		c-29.9,29.5-60.2,49.7-84.8,49.7C149.8,458.7,144.9,457.5,140.9,455.1z M386.5,373.1c6.9,42.4,1.2,72.3-15.3,82
		c-4,2.4-8.9,3.6-14.1,3.6c-24.2,0-54.5-19.8-84.8-49.7c14.1-15.3,28.3-33.1,42-52.5c23.4-2,45.6-5.7,66.6-10.1
		C383.2,355.8,384.8,364.6,386.5,373.1z M422.8,310.1c-8.1,3.2-17,6.1-25.8,8.5c-6.5-20.2-14.5-41.6-24.2-63
		c9.7-21.4,18.2-42.4,24.2-62.6c55.7,16.2,89.3,40.4,89.3,63C486.2,275,462.8,295.2,422.8,310.1z"/>
</g>
</svg>
