<?xml version="1.0" encoding="utf-8"?>
<!-- Generator: Adobe Illustrator 22.1.0, SVG Export Plug-In . SVG Version: 6.00 Build 0)  -->
<svg version="1.1" id="Layer_1" xmlns="http://www.w3.org/2000/svg" xmlns:xlink="http://www.w3.org/1999/xlink" x="0px" y="0px"
	 viewBox="0 0 512 512" style="enable-background:new 0 0 512 512;" xml:space="preserve">
<style type="text/css">
	.st0{fill:#CC0000;}
</style>
<g transform="translate(8 8)">
	<path class="st0" d="M432.2,313v22.7h41c8.4,0,22.8-6.1,23.3-23.3v-8.8c0-14.7-12-23.3-23.3-23.3h-20.4v-10.5h40.5V247h-38.8
		c-10,0-23.4,8.3-23.4,23.7v7.9c0,15.4,13.3,23.3,23.4,23.3c28.2,0.1-6.8,0,19.3,0v11 M212.7,307.5c0,0,21.9-1.9,21.9-30.2
		s-26.6-31-26.6-31h-47.9v89.3h24.1v-21.6l20.8,21.6h35.6L212.7,307.5z M203.4,289.2h-19.2v-20.4h19.3c0,0,5.4,2,5.4,10.2
		S203.4,289.2,203.4,289.2z M294,247h-24.4c-17.4,0-23.3,15.8-23.3,23.3v65.4h24.4v-15.7h22.9v15.7h23.7v-65.4
		C317.3,251.3,300,247,294,247z M293.6,294.7h-23.1v-21.7c0,0,0-4.9,7.6-4.9h8.4c6.8,0,6.9,4.9,6.9,4.9v21.7H293.6z"/>
	<rect x="328.5" y="247" class="st0" width="25.4" height="88.7"/>
	<polygon class="st0" points="389.6,312.8 389.6,247 364.3,247 364.3,312.8 364.3,335.7 389.6,335.7 423.8,335.7 423.8,312.8 	"/>
	<path class="st0" d="M9.2,335.7h99c0,0-18.9-86.3,43.7-121.3c13.7-6.6,57.1-31.5,128.3,21.2c2.3-1.9,4.4-3.4,4.4-3.4
		s-65.2-65-137.7-57.8c-36.5,3.3-81.3,36.5-107.6,80.3S9.2,335.7,9.2,335.7z"/>
	<path class="st0" d="M9.2,335.7h99c0,0-18.9-86.3,43.7-121.3c13.7-6.6,57.1-31.5,128.3,21.2c2.3-1.9,4.4-3.4,4.4-3.4
		s-65.2-65-137.7-57.8c-36.5,3.3-81.3,36.5-107.6,80.3S9.2,335.7,9.2,335.7z"/>
	<path class="st0" d="M9.2,335.7h99c0,0-18.9-86.3,43.7-121.3c13.7-6.6,57.1-31.5,128.3,21.2c2.3-1.9,4.4-3.4,4.4-3.4
		s-65.2-65-137.7-57.8c-36.6,3.3-81.5,36.5-107.8,80.3S9.2,335.7,9.2,335.7z M215.4,181.5l0.5-8.4c-1.1-0.6-4.3-2.1-12.2-4.4
		l-0.5,8.3C207.4,178.3,211.4,179.8,215.4,181.5z"/>
	<path class="st0" d="M203.5,208l-0.5,7.9c4.1,0.1,8.3,0.6,12.4,1.5l0.5-7.8C211.7,208.8,207.5,208.3,203.5,208z M157.2,168.9h1.3
		l-2.5-7.6c-3.9,0-7.9,0.3-12,0.8l2.4,7.4C149.9,169.1,153.5,168.9,157.2,168.9z M163.2,215l2.9,8.6c3.6-1.8,7.3-3.3,10.9-4.4
		l-2.8-8.3C169.9,212.3,166.3,213.7,163.2,215z M106.3,182.1l-5.6-8.6c-3.1,1.6-6.4,3.4-9.8,5.4l5.8,8.8
		C99.9,185.6,103,183.7,106.3,182.1z M132,238.5l6,9c2.1-3.1,4.6-6,7.4-8.9l-5.6-8.5C136.9,232.7,134.2,235.6,132,238.5z
		 M113.8,278.8l10.2,8c0.5-4.9,1.4-9.8,2.6-14.7l-9-7.1C115.9,269.7,114.8,274.3,113.8,278.8z M58.9,219.3l-8.9-7.8
		c-3.3,3.1-6.4,6.3-9.3,9.4l9.6,8.3C53,225.8,55.9,222.4,58.9,219.3z M21.1,275.3l-14.4-5.3c-2.4,5.4-5,11.7-6.3,15l14.4,5.3
		C16.4,286.1,19.1,280,21.1,275.3z M111.9,310.7c0.3,6.6,0.9,12,1.5,15.8l15,5.4c-1.1-4.9-2.3-10.4-3-16.3L111.9,310.7z"/>
</g>
</svg>
