<?xml version="1.0" encoding="utf-8"?>
<!-- Generator: Adobe Illustrator 22.1.0, SVG Export Plug-In . SVG Version: 6.00 Build 0)  -->
<svg version="1.1" id="Layer_1" xmlns="http://www.w3.org/2000/svg" xmlns:xlink="http://www.w3.org/1999/xlink" x="0px" y="0px"
	 viewBox="0 0 512 512" style="enable-background:new 0 0 512 512;" xml:space="preserve">
<style type="text/css">
	.st0{fill:#3498DB;}
</style>
<path class="st0" d="M150.9,34.9c-13.4,0-26.6,7.6-33.3,19.3L12.5,236.7c-6.7,11.7-6.7,26.9,0,38.5l105.1,182.5
	c6.8,11.6,19.9,19.2,33.3,19.3h210.1c13.4,0,26.6-7.6,33.3-19.3l105.1-182.5c6.7-11.7,6.6-26.9,0-38.5L394.4,54.2
	c-6.8-11.6-19.9-19.2-33.3-19.3H150.9z M152.8,141.7c0.3,0,0.6,0,0.9,0H190c1.6,0.1,3.1,0.9,4,2.4l61.5,109.6
	c0.3,0.5,0.5,1.1,0.6,1.8c0.1-0.6,0.3-1.2,0.6-1.8l61.3-109.6c0.9-1.5,2.4-2.3,4.1-2.4h36.2c3.2,0,5.6,4.1,4.1,6.9l-60,107.4
	l60,107.2c1.6,2.9-0.8,7.1-4.1,7.1H322c-1.7,0-3.3-1-4.1-2.5l-61.3-109.6c-0.3-0.5-0.5-1.1-0.6-1.8c-0.1,0.6-0.3,1.2-0.6,1.8
	l-61.5,109.6c-0.8,1.5-2.3,2.4-4,2.5h-36.3c-3.3,0-5.8-4.2-4.1-7.1l60-107.2l-60-107.4C148.2,146,149.9,142.3,152.8,141.7
	L152.8,141.7z"/>
</svg>
